STARTFONT 2.1
COMMENT 18x18 Japanese kanji font
COMMENT
COMMENT This font was created by modifying jiskan16.bdf which is
COMMENT from Japanese Industrial Standard, JIS X 9051-1984
COMMENT named "16-dots Matrix Character Patterns for Display Devices"
FONT -Misc-Fixed-Bold-R-Normal--18-180-72-72-C-180-JISX0208.1983-0
SIZE 18 72 72
FONTBOUNDINGBOX 18 18 0 -2
STARTPROPERTIES 19
FONT_ASCENT 16
FONT_DESCENT 2
DEFAULT_CHAR 8481
COPYRIGHT "from JIS X 9051-1984, by permission to use"
FONTNAME_REGISTRY ""
FOUNDRY "JIS"
FAMILY_NAME "Fixed"
WEIGHT_NAME "Bold"
SLANT "R"
SETWIDTH_NAME "Normal"
ADD_STYLE_NAME ""
PIXEL_SIZE 18
POINT_SIZE 180
RESOLUTION_X 72
RESOLUTION_Y 72
SPACING "C"
AVERAGE_WIDTH 180
CHARSET_REGISTRY "JISX0208.1983"
CHARSET_ENCODING "0"
ENDPROPERTIES
CHARS 6877
STARTCHAR 2121
ENCODING 8481
SWIDTH 1000 0
DWIDTH 18 0
BBX 18 18 0 -2
BITMAP
000000
000000
000000
000000
000000
000000
000000
000000
000000
000000
000000
000000
000000
000000
000000
000000
000000
000000
ENDCHAR
STARTCHAR 2122
ENCODING 8482
SWIDTH 1000 0
DWIDTH 18 0
BBX 18 18 0 -2
BITMAP
000000
000000
000000
000000
000000
000000
000000
000000
000000
000000
000000
000000
000000
000000
380000
1c0000
0c0000
000000
ENDCHAR
STARTCHAR 2123
ENCODING 8483
SWIDTH 1000 0
DWIDTH 18 0
BBX 18 18 0 -2
BITMAP
000000
000000
000000
000000
000000
000000
000000
000000
000000
000000
000000
000000
000000
380000
6c0000
6c0000
380000
000000
ENDCHAR
STARTCHAR 2124
ENCODING 8484
SWIDTH 1000 0
DWIDTH 18 0
BBX 18 18 0 -2
BITMAP
000000
000000
000000
000000
000000
000000
000000
000000
000000
000000
000000
000000
000000
380000
380000
180000
300000
000000
ENDCHAR
STARTCHAR 2125
ENCODING 8485
SWIDTH 1000 0
DWIDTH 18 0
BBX 18 18 0 -2
BITMAP
000000
000000
000000
000000
000000
000000
000000
000000
000000
000000
000000
000000
000000
380000
380000
000000
000000
000000
ENDCHAR
STARTCHAR 2126
ENCODING 8486
SWIDTH 1000 0
DWIDTH 18 0
BBX 18 18 0 -2
BITMAP
000000
000000
000000
000000
000000
000000
000000
000000
00e000
00e000
000000
000000
000000
000000
000000
000000
000000
000000
ENDCHAR
STARTCHAR 2127
ENCODING 8487
SWIDTH 1000 0
DWIDTH 18 0
BBX 18 18 0 -2
BITMAP
000000
000000
000000
000000
000000
000000
000000
00e000
00e000
000000
000000
000000
000000
00e000
00e000
000000
000000
000000
ENDCHAR
STARTCHAR 2128
ENCODING 8488
SWIDTH 1000 0
DWIDTH 18 0
BBX 18 18 0 -2
BITMAP
000000
000000
000000
000000
000000
000000
000000
00e000
00e000
000000
000000
000000
000000
00e000
00e000
006000
00c000
000000
ENDCHAR
STARTCHAR 2129
ENCODING 8489
SWIDTH 1000 0
DWIDTH 18 0
BBX 18 18 0 -2
BITMAP
000000
000000
03f800
060c00
0c0600
0c0600
060600
001c00
007000
00c000
00c000
000000
000000
00e000
00e000
000000
000000
000000
ENDCHAR
STARTCHAR 212a
ENCODING 8490
SWIDTH 1000 0
DWIDTH 18 0
BBX 18 18 0 -2
BITMAP
000000
000000
00e000
00e000
00e000
00e000
00e000
00c000
00c000
00c000
00c000
000000
000000
00e000
00e000
000000
000000
000000
ENDCHAR
STARTCHAR 212b
ENCODING 8491
SWIDTH 1000 0
DWIDTH 18 0
BBX 18 18 0 -2
BITMAP
000000
360000
360000
000000
000000
000000
000000
000000
000000
000000
000000
000000
000000
000000
000000
000000
000000
000000
ENDCHAR
STARTCHAR 212c
ENCODING 8492
SWIDTH 1000 0
DWIDTH 18 0
BBX 18 18 0 -2
BITMAP
000000
000000
000000
380000
6c0000
6c0000
380000
000000
000000
000000
000000
000000
000000
000000
000000
000000
000000
000000
ENDCHAR
STARTCHAR 212d
ENCODING 8493
SWIDTH 1000 0
DWIDTH 18 0
BBX 18 18 0 -2
BITMAP
000000
007000
01c000
000000
000000
000000
000000
000000
000000
000000
000000
000000
000000
000000
000000
000000
000000
000000
ENDCHAR
STARTCHAR 212e
ENCODING 8494
SWIDTH 1000 0
DWIDTH 18 0
BBX 18 18 0 -2
BITMAP
000000
01c000
007000
000000
000000
000000
000000
000000
000000
000000
000000
000000
000000
000000
000000
000000
000000
000000
ENDCHAR
STARTCHAR 212f
ENCODING 8495
SWIDTH 1000 0
DWIDTH 18 0
BBX 18 18 0 -2
BITMAP
000000
03b800
03b800
000000
000000
000000
000000
000000
000000
000000
000000
000000
000000
000000
000000
000000
000000
000000
ENDCHAR
STARTCHAR 2130
ENCODING 8496
SWIDTH 1000 0
DWIDTH 18 0
BBX 18 18 0 -2
BITMAP
000000
00e000
03b800
000000
000000
000000
000000
000000
000000
000000
000000
000000
000000
000000
000000
000000
000000
000000
ENDCHAR
STARTCHAR 2131
ENCODING 8497
SWIDTH 1000 0
DWIDTH 18 0
BBX 18 18 0 -2
BITMAP
000000
7fffc0
000000
000000
000000
000000
000000
000000
000000
000000
000000
000000
000000
000000
000000
000000
000000
000000
ENDCHAR
STARTCHAR 2132
ENCODING 8498
SWIDTH 1000 0
DWIDTH 18 0
BBX 18 18 0 -2
BITMAP
000000
000000
000000
000000
000000
000000
000000
000000
000000
000000
000000
000000
000000
000000
000000
000000
7fffc0
000000
ENDCHAR
STARTCHAR 2133
ENCODING 8499
SWIDTH 1000 0
DWIDTH 18 0
BBX 18 18 0 -2
BITMAP
000000
000000
000000
000000
000000
038000
01c000
00e000
007000
003800
001800
001c00
000c00
000000
000000
000000
000000
000000
ENDCHAR
STARTCHAR 2134
ENCODING 8500
SWIDTH 1000 0
DWIDTH 18 0
BBX 18 18 0 -2
BITMAP
000000
000000
000000
000000
003c00
073c00
038000
01c000
00e000
007000
003000
003800
001800
000000
000000
000000
000000
000000
ENDCHAR
STARTCHAR 2135
ENCODING 8501
SWIDTH 1000 0
DWIDTH 18 0
BBX 18 18 0 -2
BITMAP
000000
000000
000000
000000
060000
070000
038000
01c000
00f000
003800
001c00
003800
00f000
01c000
000000
000000
000000
000000
ENDCHAR
STARTCHAR 2136
ENCODING 8502
SWIDTH 1000 0
DWIDTH 18 0
BBX 18 18 0 -2
BITMAP
000000
000000
000000
000000
061e00
071e00
038000
01c000
00f000
003800
001c00
003800
00f000
01c000
000000
000000
000000
000000
ENDCHAR
STARTCHAR 2137
ENCODING 8503
SWIDTH 1000 0
DWIDTH 18 0
BBX 18 18 0 -2
BITMAP
000000
000000
000000
000000
031800
031800
031800
031800
031800
031800
031800
063000
063000
0c6000
000000
000000
000000
000000
ENDCHAR
STARTCHAR 2138
ENCODING 8504
SWIDTH 1000 0
DWIDTH 18 0
BBX 18 18 0 -2
BITMAP
000000
00c000
01e000
03f000
073800
0e1c00
1c0f00
7803c0
000000
1fff00
00c000
00c000
00c000
00c000
00c000
7fffc0
000000
000000
ENDCHAR
STARTCHAR 2139
ENCODING 8505
SWIDTH 1000 0
DWIDTH 18 0
BBX 18 18 0 -2
BITMAP
000000
000000
018000
018000
018000
03fe00
030600
070e00
060c00
0e1c00
1df800
00f000
003800
001c00
000c00
000000
000000
000000
ENDCHAR
STARTCHAR 213a
ENCODING 8506
SWIDTH 1000 0
DWIDTH 18 0
BBX 18 18 0 -2
BITMAP
000000
000000
000380
000700
000e00
03dc00
06f800
0c7000
0cf800
1ddc00
1b8000
1f0000
1e0000
1e0000
1c0000
380000
000000
000000
ENDCHAR
STARTCHAR 213b
ENCODING 8507
SWIDTH 1000 0
DWIDTH 18 0
BBX 18 18 0 -2
BITMAP
000000
000000
000000
03f800
0f1e00
1c0700
180300
380380
300180
300180
380380
180300
1c0700
0f1e00
03f800
000000
000000
000000
ENDCHAR
STARTCHAR 213c
ENCODING 8508
SWIDTH 1000 0
DWIDTH 18 0
BBX 18 18 0 -2
BITMAP
000000
000000
000000
000000
000000
000000
000000
300000
1fff80
000000
000000
000000
000000
000000
000000
000000
000000
000000
ENDCHAR
STARTCHAR 213d
ENCODING 8509
SWIDTH 1000 0
DWIDTH 18 0
BBX 18 18 0 -2
BITMAP
000000
000000
000000
000000
000000
000000
000000
000000
7fffc0
000000
000000
000000
000000
000000
000000
000000
000000
000000
ENDCHAR
STARTCHAR 213e
ENCODING 8510
SWIDTH 1000 0
DWIDTH 18 0
BBX 18 18 0 -2
BITMAP
000000
000000
000000
000000
000000
000000
000000
000000
03f800
000000
000000
000000
000000
000000
000000
000000
000000
000000
ENDCHAR
STARTCHAR 213f
ENCODING 8511
SWIDTH 1000 0
DWIDTH 18 0
BBX 18 18 0 -2
BITMAP
000000
0000c0
000180
000300
000600
000c00
001800
003000
006000
00c000
018000
030000
060000
0c0000
180000
300000
600000
000000
ENDCHAR
STARTCHAR 2140
ENCODING 8512
SWIDTH 1000 0
DWIDTH 18 0
BBX 18 18 0 -2
BITMAP
000000
600000
300000
180000
0c0000
060000
030000
018000
00c000
006000
003000
001800
000c00
000600
000300
000180
0000c0
000000
ENDCHAR
STARTCHAR 2141
ENCODING 8513
SWIDTH 1000 0
DWIDTH 18 0
BBX 18 18 0 -2
BITMAP
000000
000000
000000
000000
000000
000000
000000
1f0000
31c0c0
607180
001f00
000000
000000
000000
000000
000000
000000
000000
ENDCHAR
STARTCHAR 2142
ENCODING 8514
SWIDTH 1000 0
DWIDTH 18 0
BBX 18 18 0 -2
BITMAP
000000
033000
033000
033000
033000
033000
033000
033000
033000
033000
033000
033000
033000
033000
033000
033000
033000
000000
ENDCHAR
STARTCHAR 2143
ENCODING 8515
SWIDTH 1000 0
DWIDTH 18 0
BBX 18 18 0 -2
BITMAP
000000
00c000
00c000
00c000
00c000
00c000
00c000
00c000
00c000
00c000
00c000
00c000
00c000
00c000
00c000
00c000
00c000
000000
ENDCHAR
STARTCHAR 2144
ENCODING 8516
SWIDTH 1000 0
DWIDTH 18 0
BBX 18 18 0 -2
BITMAP
000000
000000
000000
000000
000000
000000
000000
000000
38e380
38e380
000000
000000
000000
000000
000000
000000
000000
000000
ENDCHAR
STARTCHAR 2145
ENCODING 8517
SWIDTH 1000 0
DWIDTH 18 0
BBX 18 18 0 -2
BITMAP
000000
000000
000000
000000
000000
000000
000000
000000
0e0e00
0e0e00
000000
000000
000000
000000
000000
000000
000000
000000
ENDCHAR
STARTCHAR 2146
ENCODING 8518
SWIDTH 1000 0
DWIDTH 18 0
BBX 18 18 0 -2
BITMAP
000000
000600
000c00
000e00
000e00
000000
000000
000000
000000
000000
000000
000000
000000
000000
000000
000000
000000
000000
ENDCHAR
STARTCHAR 2147
ENCODING 8519
SWIDTH 1000 0
DWIDTH 18 0
BBX 18 18 0 -2
BITMAP
000000
0e0000
0e0000
060000
0c0000
000000
000000
000000
000000
000000
000000
000000
000000
000000
000000
000000
000000
000000
ENDCHAR
STARTCHAR 2148
ENCODING 8520
SWIDTH 1000 0
DWIDTH 18 0
BBX 18 18 0 -2
BITMAP
000000
001b00
003600
003f00
003f00
000000
000000
000000
000000
000000
000000
000000
000000
000000
000000
000000
000000
000000
ENDCHAR
STARTCHAR 2149
ENCODING 8521
SWIDTH 1000 0
DWIDTH 18 0
BBX 18 18 0 -2
BITMAP
000000
1f8000
1f8000
0d8000
1b0000
000000
000000
000000
000000
000000
000000
000000
000000
000000
000000
000000
000000
000000
ENDCHAR
STARTCHAR 214a
ENCODING 8522
SWIDTH 1000 0
DWIDTH 18 0
BBX 18 18 0 -2
BITMAP
000000
000600
000c00
001c00
001800
003800
003000
003000
003000
003000
003000
003000
003800
001800
001c00
000c00
000600
000000
ENDCHAR
STARTCHAR 214b
ENCODING 8523
SWIDTH 1000 0
DWIDTH 18 0
BBX 18 18 0 -2
BITMAP
000000
0c0000
060000
070000
030000
038000
018000
018000
018000
018000
018000
018000
038000
030000
070000
060000
0c0000
000000
ENDCHAR
STARTCHAR 214c
ENCODING 8524
SWIDTH 1000 0
DWIDTH 18 0
BBX 18 18 0 -2
BITMAP
000000
000600
001c00
007000
006000
006000
006000
006000
006000
006000
006000
006000
006000
006000
007000
001c00
000600
000000
ENDCHAR
STARTCHAR 214d
ENCODING 8525
SWIDTH 1000 0
DWIDTH 18 0
BBX 18 18 0 -2
BITMAP
000000
0c0000
070000
01c000
00c000
00c000
00c000
00c000
00c000
00c000
00c000
00c000
00c000
00c000
01c000
070000
0c0000
000000
ENDCHAR
STARTCHAR 214e
ENCODING 8526
SWIDTH 1000 0
DWIDTH 18 0
BBX 18 18 0 -2
BITMAP
000000
007e00
006000
006000
006000
006000
006000
006000
006000
006000
006000
006000
006000
006000
006000
006000
007e00
000000
ENDCHAR
STARTCHAR 214f
ENCODING 8527
SWIDTH 1000 0
DWIDTH 18 0
BBX 18 18 0 -2
BITMAP
000000
0fc000
00c000
00c000
00c000
00c000
00c000
00c000
00c000
00c000
00c000
00c000
00c000
00c000
00c000
00c000
0fc000
000000
ENDCHAR
STARTCHAR 2150
ENCODING 8528
SWIDTH 1000 0
DWIDTH 18 0
BBX 18 18 0 -2
BITMAP
000000
000600
000c00
001800
001800
001800
001800
001800
003000
001800
001800
001800
001800
001800
001800
000c00
000600
000000
ENDCHAR
STARTCHAR 2151
ENCODING 8529
SWIDTH 1000 0
DWIDTH 18 0
BBX 18 18 0 -2
BITMAP
000000
0c0000
060000
030000
030000
030000
030000
030000
018000
030000
030000
030000
030000
030000
030000
060000
0c0000
000000
ENDCHAR
STARTCHAR 2152
ENCODING 8530
SWIDTH 1000 0
DWIDTH 18 0
BBX 18 18 0 -2
BITMAP
000000
000600
000c00
000c00
001800
003000
003000
006000
00c000
00c000
006000
003000
003000
001800
000c00
000c00
000600
000000
ENDCHAR
STARTCHAR 2153
ENCODING 8531
SWIDTH 1000 0
DWIDTH 18 0
BBX 18 18 0 -2
BITMAP
000000
0c0000
060000
060000
030000
018000
018000
00c000
006000
006000
00c000
018000
018000
030000
060000
060000
0c0000
000000
ENDCHAR
STARTCHAR 2154
ENCODING 8532
SWIDTH 1000 0
DWIDTH 18 0
BBX 18 18 0 -2
BITMAP
000000
000d80
001b00
001b00
003600
006c00
006c00
00d800
01b000
01b000
00d800
006c00
006c00
003600
001b00
001b00
000d80
000000
ENDCHAR
STARTCHAR 2155
ENCODING 8533
SWIDTH 1000 0
DWIDTH 18 0
BBX 18 18 0 -2
BITMAP
000000
360000
1b0000
1b0000
0d8000
06c000
06c000
036000
01b000
01b000
036000
06c000
06c000
0d8000
1b0000
1b0000
360000
000000
ENDCHAR
STARTCHAR 2156
ENCODING 8534
SWIDTH 1000 0
DWIDTH 18 0
BBX 18 18 0 -2
BITMAP
000000
007e00
006000
006000
006000
006000
006000
006000
006000
006000
006000
006000
000000
000000
000000
000000
000000
000000
ENDCHAR
STARTCHAR 2157
ENCODING 8535
SWIDTH 1000 0
DWIDTH 18 0
BBX 18 18 0 -2
BITMAP
000000
000000
000000
000000
000000
000000
00c000
00c000
00c000
00c000
00c000
00c000
00c000
00c000
00c000
00c000
0fc000
000000
ENDCHAR
STARTCHAR 2158
ENCODING 8536
SWIDTH 1000 0
DWIDTH 18 0
BBX 18 18 0 -2
BITMAP
000000
00fe00
00c600
00de00
00d000
00d000
00d000
00d000
00d000
00d000
00d000
00f000
000000
000000
000000
000000
000000
000000
ENDCHAR
STARTCHAR 2159
ENCODING 8537
SWIDTH 1000 0
DWIDTH 18 0
BBX 18 18 0 -2
BITMAP
000000
000000
000000
000000
000000
000000
01e000
016000
016000
016000
016000
016000
016000
016000
0f6000
0c6000
0fe000
000000
ENDCHAR
STARTCHAR 215a
ENCODING 8538
SWIDTH 1000 0
DWIDTH 18 0
BBX 18 18 0 -2
BITMAP
000000
007e00
007c00
007800
007000
007000
006000
006000
006000
006000
006000
006000
007000
007000
007800
007c00
007e00
000000
ENDCHAR
STARTCHAR 215b
ENCODING 8539
SWIDTH 1000 0
DWIDTH 18 0
BBX 18 18 0 -2
BITMAP
000000
0fc000
07c000
03c000
01c000
01c000
00c000
00c000
00c000
00c000
00c000
00c000
01c000
01c000
03c000
07c000
0fc000
000000
ENDCHAR
STARTCHAR 215c
ENCODING 8540
SWIDTH 1000 0
DWIDTH 18 0
BBX 18 18 0 -2
BITMAP
000000
000000
000000
00c000
00c000
00c000
00c000
00c000
1fff00
00c000
00c000
00c000
00c000
00c000
00c000
000000
000000
000000
ENDCHAR
STARTCHAR 215d
ENCODING 8541
SWIDTH 1000 0
DWIDTH 18 0
BBX 18 18 0 -2
BITMAP
000000
000000
000000
000000
000000
000000
000000
000000
1fff00
000000
000000
000000
000000
000000
000000
000000
000000
000000
ENDCHAR
STARTCHAR 215e
ENCODING 8542
SWIDTH 1000 0
DWIDTH 18 0
BBX 18 18 0 -2
BITMAP
000000
000000
000000
00c000
00c000
00c000
00c000
1fff00
00c000
00c000
00c000
00c000
000000
000000
1fff00
000000
000000
000000
ENDCHAR
STARTCHAR 215f
ENCODING 8543
SWIDTH 1000 0
DWIDTH 18 0
BBX 18 18 0 -2
BITMAP
000000
000000
000000
000000
0c0600
060c00
031800
01b000
00e000
00e000
01b000
031800
060c00
0c0600
000000
000000
000000
000000
ENDCHAR
STARTCHAR 2160
ENCODING 8544
SWIDTH 1000 0
DWIDTH 18 0
BBX 18 18 0 -2
BITMAP
000000
000000
000000
000000
00e000
00e000
000000
000000
1fff00
000000
000000
00e000
00e000
000000
000000
000000
000000
000000
ENDCHAR
STARTCHAR 2161
ENCODING 8545
SWIDTH 1000 0
DWIDTH 18 0
BBX 18 18 0 -2
BITMAP
000000
000000
000000
000000
000000
000000
1fff00
000000
000000
000000
1fff00
000000
000000
000000
000000
000000
000000
000000
ENDCHAR
STARTCHAR 2162
ENCODING 8546
SWIDTH 1000 0
DWIDTH 18 0
BBX 18 18 0 -2
BITMAP
000000
000000
000000
003000
003000
006000
1fff00
006000
00c000
00c000
1fff00
00c000
018000
018000
000000
000000
000000
000000
ENDCHAR
STARTCHAR 2163
ENCODING 8547
SWIDTH 1000 0
DWIDTH 18 0
BBX 18 18 0 -2
BITMAP
000000
000000
000380
000e00
003800
00e000
038000
0e0000
380000
0e0000
030000
01c000
007000
001800
000e00
000380
000000
000000
ENDCHAR
STARTCHAR 2164
ENCODING 8548
SWIDTH 1000 0
DWIDTH 18 0
BBX 18 18 0 -2
BITMAP
000000
000000
380000
0e0000
038000
00e000
003800
000e00
000380
000e00
001800
007000
01c000
030000
0e0000
380000
000000
000000
ENDCHAR
STARTCHAR 2165
ENCODING 8549
SWIDTH 1000 0
DWIDTH 18 0
BBX 18 18 0 -2
BITMAP
000000
000000
000000
000f00
007800
03c000
1e0000
03c000
007800
000f00
000000
1fff00
000000
000000
1fff00
000000
000000
000000
ENDCHAR
STARTCHAR 2166
ENCODING 8550
SWIDTH 1000 0
DWIDTH 18 0
BBX 18 18 0 -2
BITMAP
000000
000000
000000
1e0000
03c000
007800
000f00
007800
03c000
1e0000
000000
1fff00
000000
000000
1fff00
000000
000000
000000
ENDCHAR
STARTCHAR 2167
ENCODING 8551
SWIDTH 1000 0
DWIDTH 18 0
BBX 18 18 0 -2
BITMAP
000000
000000
000000
000000
000000
0f1e00
19b300
30e180
30e180
30e180
30e180
19b300
0f1e00
000000
000000
000000
000000
000000
ENDCHAR
STARTCHAR 2168
ENCODING 8552
SWIDTH 1000 0
DWIDTH 18 0
BBX 18 18 0 -2
BITMAP
000000
000000
000000
000000
00e000
00e000
000000
000000
000000
000000
000000
000000
1c0700
1c0700
000000
000000
000000
000000
ENDCHAR
STARTCHAR 2169
ENCODING 8553
SWIDTH 1000 0
DWIDTH 18 0
BBX 18 18 0 -2
BITMAP
000000
000000
007f80
000380
000780
000d80
001980
003180
0fe180
18c000
306000
306000
306000
306000
18c000
0f8000
000000
000000
ENDCHAR
STARTCHAR 216a
ENCODING 8554
SWIDTH 1000 0
DWIDTH 18 0
BBX 18 18 0 -2
BITMAP
000000
000000
01f000
031800
060c00
060c00
060c00
060c00
031800
01f000
00c000
0ffe00
00c000
00c000
00c000
00c000
00c000
000000
ENDCHAR
STARTCHAR 216b
ENCODING 8555
SWIDTH 1000 0
DWIDTH 18 0
BBX 18 18 0 -2
BITMAP
000000
000000
1c0000
360000
360000
1c0000
000000
000000
000000
000000
000000
000000
000000
000000
000000
000000
000000
000000
ENDCHAR
STARTCHAR 216c
ENCODING 8556
SWIDTH 1000 0
DWIDTH 18 0
BBX 18 18 0 -2
BITMAP
000000
000000
060000
0e0000
1c0000
180000
000000
000000
000000
000000
000000
000000
000000
000000
000000
000000
000000
000000
ENDCHAR
STARTCHAR 216d
ENCODING 8557
SWIDTH 1000 0
DWIDTH 18 0
BBX 18 18 0 -2
BITMAP
000000
000000
0cc000
1dc000
3b8000
330000
000000
000000
000000
000000
000000
000000
000000
000000
000000
000000
000000
000000
ENDCHAR
STARTCHAR 216e
ENCODING 8558
SWIDTH 1000 0
DWIDTH 18 0
BBX 18 18 0 -2
BITMAP
000000
000000
387d80
6dc780
6f8380
3b0180
070180
060000
060000
060000
070000
030180
038380
01c700
007c00
000000
000000
000000
ENDCHAR
STARTCHAR 216f
ENCODING 8559
SWIDTH 1000 0
DWIDTH 18 0
BBX 18 18 0 -2
BITMAP
000000
000000
3f1f80
0c0600
0c0600
060c00
3fff80
031800
033000
01e000
3fff80
00c000
00c000
00c000
00c000
03f000
000000
000000
ENDCHAR
STARTCHAR 2170
ENCODING 8560
SWIDTH 1000 0
DWIDTH 18 0
BBX 18 18 0 -2
BITMAP
000000
000000
00c000
03f800
06dc00
0cce00
0cc000
06c000
03c000
00f800
00cc00
00c600
0cc600
0ecc00
07f800
00c000
000000
000000
ENDCHAR
STARTCHAR 2171
ENCODING 8561
SWIDTH 1000 0
DWIDTH 18 0
BBX 18 18 0 -2
BITMAP
000000
000000
000000
000000
000000
000000
001800
01f000
033800
066c00
066000
06c000
06c000
038c00
01f800
030000
000000
000000
ENDCHAR
STARTCHAR 2172
ENCODING 8562
SWIDTH 1000 0
DWIDTH 18 0
BBX 18 18 0 -2
BITMAP
000000
000000
00fc00
018600
030300
030000
030000
030000
030000
3ffc00
018000
018000
1f8000
338180
33e300
1e3e00
000000
000000
ENDCHAR
STARTCHAR 2173
ENCODING 8563
SWIDTH 1000 0
DWIDTH 18 0
BBX 18 18 0 -2
BITMAP
000000
000000
1e0180
330300
330600
330c00
331800
333000
1e6000
00cf00
019980
031980
061980
0c1980
181980
300f00
000000
000000
ENDCHAR
STARTCHAR 2174
ENCODING 8564
SWIDTH 1000 0
DWIDTH 18 0
BBX 18 18 0 -2
BITMAP
000000
018c00
018c00
018c00
018c00
0fff00
0fff00
031800
031800
031800
031800
1ffe00
1ffe00
063000
063000
063000
063000
000000
ENDCHAR
STARTCHAR 2175
ENCODING 8565
SWIDTH 1000 0
DWIDTH 18 0
BBX 18 18 0 -2
BITMAP
000000
000000
07c000
0e6000
0c6000
0ce000
0fc000
07bf00
070c00
0f9c00
1dd800
38f800
307000
30f980
19df80
0f8f00
000000
000000
ENDCHAR
STARTCHAR 2176
ENCODING 8566
SWIDTH 1000 0
DWIDTH 18 0
BBX 18 18 0 -2
BITMAP
000000
000000
000000
000000
000000
00c000
0edc00
07f800
03f000
00c000
03f000
07f800
0edc00
00c000
000000
000000
000000
000000
ENDCHAR
STARTCHAR 2177
ENCODING 8567
SWIDTH 1000 0
DWIDTH 18 0
BBX 18 18 0 -2
BITMAP
000000
000000
000000
01f000
071c00
0c0600
0cfe00
19bb00
1b3300
1b3300
1b7600
0dfc00
0c0300
070e00
01f800
000000
000000
000000
ENDCHAR
STARTCHAR 2178
ENCODING 8568
SWIDTH 1000 0
DWIDTH 18 0
BBX 18 18 0 -2
BITMAP
000000
000000
03f000
073c00
071c00
078000
03e000
077800
061c00
070c00
03dc00
00f800
003c00
071c00
079c00
01f800
000000
000000
ENDCHAR
STARTCHAR 2179
ENCODING 8569
SWIDTH 1000 0
DWIDTH 18 0
BBX 18 18 0 -2
BITMAP
000000
000000
00c000
01e000
01e000
033000
033000
3f3f00
180600
0c0c00
061800
061800
0ccc00
0dec00
1f3e00
1c0e00
000000
000000
ENDCHAR
STARTCHAR 217a
ENCODING 8570
SWIDTH 1000 0
DWIDTH 18 0
BBX 18 18 0 -2
BITMAP
000000
000000
00c000
00c000
01e000
01e000
03f000
3fff00
1ffe00
0ffc00
07f800
07f800
0ffc00
0f3c00
1e1e00
180600
000000
000000
ENDCHAR
STARTCHAR 217b
ENCODING 8571
SWIDTH 1000 0
DWIDTH 18 0
BBX 18 18 0 -2
BITMAP
000000
000000
01f000
071c00
0c0600
180300
180300
300180
300180
300180
300180
180300
180300
0c0600
071c00
01f000
000000
000000
ENDCHAR
STARTCHAR 217c
ENCODING 8572
SWIDTH 1000 0
DWIDTH 18 0
BBX 18 18 0 -2
BITMAP
000000
000000
01f000
07fc00
0ffe00
1fff00
1fff00
3fff80
3fff80
3fff80
3fff80
1fff00
1fff00
0ffe00
07fc00
01f000
000000
000000
ENDCHAR
STARTCHAR 217d
ENCODING 8573
SWIDTH 1000 0
DWIDTH 18 0
BBX 18 18 0 -2
BITMAP
000000
000000
01f000
071c00
0c0600
19f300
1b1b00
360d80
360d80
360d80
360d80
1b1b00
19f300
0c0600
071c00
01f000
000000
000000
ENDCHAR
STARTCHAR 217e
ENCODING 8574
SWIDTH 1000 0
DWIDTH 18 0
BBX 18 18 0 -2
BITMAP
000000
00e000
01b000
031800
060c00
0c0600
180300
300180
6000c0
6000c0
300180
180300
0c0600
060c00
031800
01b000
00e000
000000
ENDCHAR
STARTCHAR 2221
ENCODING 8737
SWIDTH 1000 0
DWIDTH 18 0
BBX 18 18 0 -2
BITMAP
000000
00e000
01f000
03f800
07fc00
0ffe00
1fff00
3fff80
7fffc0
7fffc0
3fff80
1fff00
0ffe00
07fc00
03f800
01f000
00e000
000000
ENDCHAR
STARTCHAR 2222
ENCODING 8738
SWIDTH 1000 0
DWIDTH 18 0
BBX 18 18 0 -2
BITMAP
000000
000000
3fff80
300180
300180
300180
300180
300180
300180
300180
300180
300180
300180
300180
300180
3fff80
000000
000000
ENDCHAR
STARTCHAR 2223
ENCODING 8739
SWIDTH 1000 0
DWIDTH 18 0
BBX 18 18 0 -2
BITMAP
000000
000000
3fff80
3fff80
3fff80
3fff80
3fff80
3fff80
3fff80
3fff80
3fff80
3fff80
3fff80
3fff80
3fff80
3fff80
000000
000000
ENDCHAR
STARTCHAR 2224
ENCODING 8740
SWIDTH 1000 0
DWIDTH 18 0
BBX 18 18 0 -2
BITMAP
000000
000000
000000
00c000
01e000
01e000
033000
033000
061800
060c00
0c0c00
0c0600
180600
180300
3fff80
000000
000000
000000
ENDCHAR
STARTCHAR 2225
ENCODING 8741
SWIDTH 1000 0
DWIDTH 18 0
BBX 18 18 0 -2
BITMAP
000000
000000
000000
00c000
01e000
01e000
03f000
03f800
07f800
07fc00
0ffc00
0ffe00
1fff00
1fff00
3fff80
000000
000000
000000
ENDCHAR
STARTCHAR 2226
ENCODING 8742
SWIDTH 1000 0
DWIDTH 18 0
BBX 18 18 0 -2
BITMAP
000000
000000
000000
3fff80
180300
180600
0c0600
0c0c00
060c00
061800
033000
033000
01e000
01e000
00c000
000000
000000
000000
ENDCHAR
STARTCHAR 2227
ENCODING 8743
SWIDTH 1000 0
DWIDTH 18 0
BBX 18 18 0 -2
BITMAP
000000
000000
000000
3fff80
1fff00
1fff00
0ffe00
0ffc00
07fc00
07f800
03f800
03f000
01e000
01e000
00c000
000000
000000
000000
ENDCHAR
STARTCHAR 2228
ENCODING 8744
SWIDTH 1000 0
DWIDTH 18 0
BBX 18 18 0 -2
BITMAP
000000
000000
000000
18e300
0ce600
060c00
031800
01b000
1ce700
1ce700
01b000
031800
060c00
0ce600
18e300
000000
000000
000000
ENDCHAR
STARTCHAR 2229
ENCODING 8745
SWIDTH 1000 0
DWIDTH 18 0
BBX 18 18 0 -2
BITMAP
000000
000000
3fff80
3fff80
000000
000000
3fff80
3fff80
00e000
00e000
00e000
00e000
00e000
00e000
00e000
00e000
000000
000000
ENDCHAR
STARTCHAR 222a
ENCODING 8746
SWIDTH 1000 0
DWIDTH 18 0
BBX 18 18 0 -2
BITMAP
000000
000000
000000
000000
000000
000000
000600
000300
7fffc0
000300
000600
000000
000000
000000
000000
000000
000000
000000
ENDCHAR
STARTCHAR 222b
ENCODING 8747
SWIDTH 1000 0
DWIDTH 18 0
BBX 18 18 0 -2
BITMAP
000000
000000
000000
000000
000000
000000
0c0000
180000
7fffc0
180000
0c0000
000000
000000
000000
000000
000000
000000
000000
ENDCHAR
STARTCHAR 222c
ENCODING 8748
SWIDTH 1000 0
DWIDTH 18 0
BBX 18 18 0 -2
BITMAP
000000
00c000
00c000
01e000
03f000
00c000
00c000
00c000
00c000
00c000
00c000
00c000
00c000
00c000
00c000
00c000
00c000
000000
ENDCHAR
STARTCHAR 222d
ENCODING 8749
SWIDTH 1000 0
DWIDTH 18 0
BBX 18 18 0 -2
BITMAP
000000
00c000
00c000
00c000
00c000
00c000
00c000
00c000
00c000
00c000
00c000
00c000
00c000
03f000
01e000
00c000
00c000
000000
ENDCHAR
STARTCHAR 222e
ENCODING 8750
SWIDTH 1000 0
DWIDTH 18 0
BBX 18 18 0 -2
BITMAP
000000
000000
000000
3fff80
3fff80
3fff80
3fff80
000000
000000
000000
3fff80
3fff80
3fff80
3fff80
000000
000000
000000
000000
ENDCHAR
STARTCHAR 223a
ENCODING 8762
SWIDTH 1000 0
DWIDTH 18 0
BBX 18 18 0 -2
BITMAP
000000
000000
000000
000000
03fe00
060000
0c0000
0c0000
0ffe00
0c0000
0c0000
060000
03fe00
000000
000000
000000
000000
000000
ENDCHAR
STARTCHAR 223b
ENCODING 8763
SWIDTH 1000 0
DWIDTH 18 0
BBX 18 18 0 -2
BITMAP
000000
000000
000000
000000
0ff800
000c00
000600
000600
0ffe00
000600
000600
000c00
0ff800
000000
000000
000000
000000
000000
ENDCHAR
STARTCHAR 223c
ENCODING 8764
SWIDTH 1000 0
DWIDTH 18 0
BBX 18 18 0 -2
BITMAP
000000
000000
000000
07ff00
0c0000
180000
180000
180000
180000
0c0000
07ff00
000000
000000
1fff00
000000
000000
000000
000000
ENDCHAR
STARTCHAR 223d
ENCODING 8765
SWIDTH 1000 0
DWIDTH 18 0
BBX 18 18 0 -2
BITMAP
000000
000000
000000
1ffc00
000600
000300
000300
000300
000300
000600
1ffc00
000000
000000
1fff00
000000
000000
000000
000000
ENDCHAR
STARTCHAR 223e
ENCODING 8766
SWIDTH 1000 0
DWIDTH 18 0
BBX 18 18 0 -2
BITMAP
000000
000000
000000
000000
03ff00
060000
0c0000
180000
180000
180000
180000
0c0000
060000
03ff00
000000
000000
000000
000000
ENDCHAR
STARTCHAR 223f
ENCODING 8767
SWIDTH 1000 0
DWIDTH 18 0
BBX 18 18 0 -2
BITMAP
000000
000000
000000
000000
1ff800
000c00
000600
000300
000300
000300
000300
000600
000c00
1ff800
000000
000000
000000
000000
ENDCHAR
STARTCHAR 2240
ENCODING 8768
SWIDTH 1000 0
DWIDTH 18 0
BBX 18 18 0 -2
BITMAP
000000
000000
000000
0c0600
0c0600
0c0600
0c0600
0c0600
0c0600
0c0600
0c0600
0c0600
060c00
031800
01f000
000000
000000
000000
ENDCHAR
STARTCHAR 2241
ENCODING 8769
SWIDTH 1000 0
DWIDTH 18 0
BBX 18 18 0 -2
BITMAP
000000
000000
000000
01f000
031800
060c00
0c0600
0c0600
0c0600
0c0600
0c0600
0c0600
0c0600
0c0600
0c0600
000000
000000
000000
ENDCHAR
STARTCHAR 224a
ENCODING 8778
SWIDTH 1000 0
DWIDTH 18 0
BBX 18 18 0 -2
BITMAP
000000
000000
000000
00c000
00c000
01e000
01e000
033000
033000
061800
061800
0c0c00
0c0c00
180600
180600
000000
000000
000000
ENDCHAR
STARTCHAR 224b
ENCODING 8779
SWIDTH 1000 0
DWIDTH 18 0
BBX 18 18 0 -2
BITMAP
000000
000000
000000
180600
180600
0c0c00
0c0c00
061800
061800
033000
033000
01e000
01e000
00c000
00c000
000000
000000
000000
ENDCHAR
STARTCHAR 224c
ENCODING 8780
SWIDTH 1000 0
DWIDTH 18 0
BBX 18 18 0 -2
BITMAP
000000
000000
000000
000000
000000
000000
000000
1fff00
000300
000300
000300
000300
000000
000000
000000
000000
000000
000000
ENDCHAR
STARTCHAR 224d
ENCODING 8781
SWIDTH 1000 0
DWIDTH 18 0
BBX 18 18 0 -2
BITMAP
000000
000000
000000
000000
000c00
000600
7fff00
000180
0000c0
000180
7fff00
000600
000c00
000000
000000
000000
000000
000000
ENDCHAR
STARTCHAR 224e
ENCODING 8782
SWIDTH 1000 0
DWIDTH 18 0
BBX 18 18 0 -2
BITMAP
000000
000000
000000
000000
060c00
0c0600
1fff00
300180
6000c0
300180
1fff00
0c0600
060c00
000000
000000
000000
000000
000000
ENDCHAR
STARTCHAR 224f
ENCODING 8783
SWIDTH 1000 0
DWIDTH 18 0
BBX 18 18 0 -2
BITMAP
000000
000000
300300
300300
180600
180600
0ffc00
0c0c00
061800
061800
033000
033000
01e000
01e000
00c000
00c000
000000
000000
ENDCHAR
STARTCHAR 2250
ENCODING 8784
SWIDTH 1000 0
DWIDTH 18 0
BBX 18 18 0 -2
BITMAP
000000
000000
000000
0ffc00
000c00
000c00
000c00
000c00
0ffc00
000c00
000c00
000c00
000c00
0ffc00
000000
000000
000000
000000
ENDCHAR
STARTCHAR 225c
ENCODING 8796
SWIDTH 1000 0
DWIDTH 18 0
BBX 18 18 0 -2
BITMAP
000000
000000
000000
000600
000c00
001800
003000
006000
00c000
018000
030000
060000
0c0000
1fff00
000000
000000
000000
000000
ENDCHAR
STARTCHAR 225d
ENCODING 8797
SWIDTH 1000 0
DWIDTH 18 0
BBX 18 18 0 -2
BITMAP
000000
000000
000000
00c000
00c000
00c000
00c000
00c000
00c000
00c000
00c000
00c000
00c000
1fff00
000000
000000
000000
000000
ENDCHAR
STARTCHAR 225e
ENCODING 8798
SWIDTH 1000 0
DWIDTH 18 0
BBX 18 18 0 -2
BITMAP
000000
03f800
1e0f00
7001c0
000000
000000
000000
000000
000000
000000
000000
000000
000000
000000
000000
000000
000000
000000
ENDCHAR
STARTCHAR 225f
ENCODING 8799
SWIDTH 1000 0
DWIDTH 18 0
BBX 18 18 0 -2
BITMAP
000000
000000
00f800
01dc00
030c00
000c00
000c00
01fc00
033800
061800
0e3800
0c3000
0c7000
0ee000
07c000
000000
000000
000000
ENDCHAR
STARTCHAR 2260
ENCODING 8800
SWIDTH 1000 0
DWIDTH 18 0
BBX 18 18 0 -2
BITMAP
000000
000000
3fff80
1c0300
1c0700
0e0600
0e0e00
070c00
071c00
039800
03b800
01f000
01f000
00e000
00e000
000000
000000
000000
ENDCHAR
STARTCHAR 2261
ENCODING 8801
SWIDTH 1000 0
DWIDTH 18 0
BBX 18 18 0 -2
BITMAP
000000
000000
000000
000000
1fff00
000000
000000
000000
1fff00
000000
000000
000000
1fff00
000000
000000
000000
000000
000000
ENDCHAR
STARTCHAR 2262
ENCODING 8802
SWIDTH 1000 0
DWIDTH 18 0
BBX 18 18 0 -2
BITMAP
000000
000000
000000
0e0000
0e0000
000000
1fff00
000000
000000
000000
1fff00
000000
000e00
000e00
000000
000000
000000
000000
ENDCHAR
STARTCHAR 2263
ENCODING 8803
SWIDTH 1000 0
DWIDTH 18 0
BBX 18 18 0 -2
BITMAP
000000
000000
003180
006300
01ce00
031800
0e7000
18c000
318000
18c000
0c6000
063000
039c00
00c600
006300
003180
000000
000000
ENDCHAR
STARTCHAR 2264
ENCODING 8804
SWIDTH 1000 0
DWIDTH 18 0
BBX 18 18 0 -2
BITMAP
000000
000000
318000
18c000
0e7000
031800
01ce00
006300
003180
006300
00c600
018c00
073800
0c6000
18c000
318000
000000
000000
ENDCHAR
STARTCHAR 2265
ENCODING 8805
SWIDTH 1000 0
DWIDTH 18 0
BBX 18 18 0 -2
BITMAP
000000
007fc0
006000
006000
00c000
00c000
00c000
00c000
018000
018000
018000
198000
3f0000
7f0000
0f0000
0e0000
060000
000000
ENDCHAR
STARTCHAR 2266
ENCODING 8806
SWIDTH 1000 0
DWIDTH 18 0
BBX 18 18 0 -2
BITMAP
000000
000000
000000
000000
000000
0f1e00
183300
306180
306180
30c180
30c180
198300
0f1e00
000000
000000
000000
000000
000000
ENDCHAR
STARTCHAR 2267
ENCODING 8807
SWIDTH 1000 0
DWIDTH 18 0
BBX 18 18 0 -2
BITMAP
000000
000000
000000
000000
000000
0f1e00
19b300
30e000
30e000
30e000
30e000
19b300
0f1e00
000000
000000
000000
000000
000000
ENDCHAR
STARTCHAR 2268
ENCODING 8808
SWIDTH 1000 0
DWIDTH 18 0
BBX 18 18 0 -2
BITMAP
000000
000000
000000
000000
1c0700
1c0700
000000
000000
000000
000000
000000
000000
00e000
00e000
000000
000000
000000
000000
ENDCHAR
STARTCHAR 2269
ENCODING 8809
SWIDTH 1000 0
DWIDTH 18 0
BBX 18 18 0 -2
BITMAP
000000
00f000
01b000
018000
018000
01c000
01c000
00c000
00e000
00e000
006000
007000
007000
003000
003000
01b000
01e000
000000
ENDCHAR
STARTCHAR 226a
ENCODING 8810
SWIDTH 1000 0
DWIDTH 18 0
BBX 18 18 0 -2
BITMAP
000000
079e00
0db600
0c3000
0c3000
0e3800
0e3800
061800
071c00
071c00
030c00
038e00
038e00
018600
018600
0db600
0f3c00
000000
ENDCHAR
STARTCHAR 2272
ENCODING 8818
SWIDTH 1000 0
DWIDTH 18 0
BBX 18 18 0 -2
BITMAP
000000
00e000
01b000
01b000
00e000
000000
00e000
00e000
01b000
01b000
031800
07fc00
060c00
0c0600
3f1f80
000000
000000
000000
ENDCHAR
STARTCHAR 2273
ENCODING 8819
SWIDTH 1000 0
DWIDTH 18 0
BBX 18 18 0 -2
BITMAP
000000
000000
1c3000
363000
366000
36c000
36c000
378000
1f0000
03e700
07bd80
0dbd80
0dbd80
19bd80
31bd80
30e700
000000
000000
ENDCHAR
STARTCHAR 2274
ENCODING 8820
SWIDTH 1000 0
DWIDTH 18 0
BBX 18 18 0 -2
BITMAP
000000
001800
031800
031800
031f00
03ff00
1ff800
1f1800
031800
031800
031f00
03ff00
1ff800
1f1800
031800
031800
030000
000000
ENDCHAR
STARTCHAR 2275
ENCODING 8821
SWIDTH 1000 0
DWIDTH 18 0
BBX 18 18 0 -2
BITMAP
000000
030000
030000
030000
030000
030000
030000
03f800
039c00
031c00
031c00
031c00
033800
037000
03c000
038000
030000
000000
ENDCHAR
STARTCHAR 2276
ENCODING 8822
SWIDTH 1000 0
DWIDTH 18 0
BBX 18 18 0 -2
BITMAP
000000
006000
006000
007000
007800
007c00
006e00
006700
006300
006300
006600
006c00
006000
07e000
0fe000
0fc000
078000
000000
ENDCHAR
STARTCHAR 2277
ENCODING 8823
SWIDTH 1000 0
DWIDTH 18 0
BBX 18 18 0 -2
BITMAP
000000
00c000
01e000
06d800
0ffc00
06d800
00c000
03f000
01e000
01e000
01e000
01e000
01e000
00c000
00c000
00c000
00c000
000000
ENDCHAR
STARTCHAR 2278
ENCODING 8824
SWIDTH 1000 0
DWIDTH 18 0
BBX 18 18 0 -2
BITMAP
000000
00c000
01e000
06d800
0ffc00
06d800
01e000
01e000
00c000
00c000
01e000
01e000
06d800
0ffc00
06d800
01e000
00c000
000000
ENDCHAR
STARTCHAR 2279
ENCODING 8825
SWIDTH 1000 0
DWIDTH 18 0
BBX 18 18 0 -2
BITMAP
000000
000000
03f800
07d800
0fd800
0fd800
0fd800
07d800
03d800
00d800
00d800
00d800
00d800
00d800
00d800
00d800
00d800
000000
ENDCHAR
STARTCHAR 227e
ENCODING 8830
SWIDTH 1000 0
DWIDTH 18 0
BBX 18 18 0 -2
BITMAP
000000
01f000
071c00
0c0600
180300
300180
300180
6000c0
6000c0
6000c0
6000c0
300180
300180
180300
0c0600
071c00
01f000
000000
ENDCHAR
STARTCHAR 2330
ENCODING 9008
SWIDTH 1000 0
DWIDTH 18 0
BBX 18 18 0 -2
BITMAP
000000
000000
01f000
031800
060c00
060c00
0e0e00
0c0600
0c0600
0c0600
0c0600
0e0e00
060c00
060c00
031800
01f000
000000
000000
ENDCHAR
STARTCHAR 2331
ENCODING 9009
SWIDTH 1000 0
DWIDTH 18 0
BBX 18 18 0 -2
BITMAP
000000
000000
00c000
01c000
03c000
06c000
00c000
00c000
00c000
00c000
00c000
00c000
00c000
00c000
00c000
03f000
000000
000000
ENDCHAR
STARTCHAR 2332
ENCODING 9010
SWIDTH 1000 0
DWIDTH 18 0
BBX 18 18 0 -2
BITMAP
000000
000000
03f800
070c00
0e0600
0c0600
000600
000e00
001c00
003800
007000
00e000
01c000
038000
070000
0ffe00
000000
000000
ENDCHAR
STARTCHAR 2333
ENCODING 9011
SWIDTH 1000 0
DWIDTH 18 0
BBX 18 18 0 -2
BITMAP
000000
000000
01f800
078c00
0e0600
000600
000600
000c00
03f800
000c00
000600
000600
000600
000e00
003c00
0ff000
000000
000000
ENDCHAR
STARTCHAR 2334
ENCODING 9012
SWIDTH 1000 0
DWIDTH 18 0
BBX 18 18 0 -2
BITMAP
000000
000000
003800
007800
00f800
01d800
039800
071800
0e1800
1c1800
181800
1fff00
001800
001800
001800
007e00
000000
000000
ENDCHAR
STARTCHAR 2335
ENCODING 9013
SWIDTH 1000 0
DWIDTH 18 0
BBX 18 18 0 -2
BITMAP
000000
000000
0ffe00
0c0000
0c0000
0c0000
0c0000
0ff800
0e0c00
0c0600
000600
000600
000e00
001c00
007800
0fe000
000000
000000
ENDCHAR
STARTCHAR 2336
ENCODING 9014
SWIDTH 1000 0
DWIDTH 18 0
BBX 18 18 0 -2
BITMAP
000000
000000
007c00
01e000
038000
070000
060000
0ff000
0f1c00
0e0e00
0c0600
0c0600
0e0600
060e00
071c00
01f000
000000
000000
ENDCHAR
STARTCHAR 2337
ENCODING 9015
SWIDTH 1000 0
DWIDTH 18 0
BBX 18 18 0 -2
BITMAP
000000
000000
0fff00
0c0600
0c0e00
0c0c00
001c00
001800
003800
003000
007000
006000
006000
00e000
00c000
00c000
000000
000000
ENDCHAR
STARTCHAR 2338
ENCODING 9016
SWIDTH 1000 0
DWIDTH 18 0
BBX 18 18 0 -2
BITMAP
000000
000000
01f000
071c00
0e0e00
0c0600
0c0600
060c00
03f800
060c00
0c0600
0c0600
0c0600
0e0e00
071c00
01f000
000000
000000
ENDCHAR
STARTCHAR 2339
ENCODING 9017
SWIDTH 1000 0
DWIDTH 18 0
BBX 18 18 0 -2
BITMAP
000000
000000
01f000
071c00
0e0c00
0c0e00
0c0600
0c0600
0e0e00
071e00
01fe00
000c00
001c00
003800
00f000
07c000
000000
000000
ENDCHAR
STARTCHAR 2341
ENCODING 9025
SWIDTH 1000 0
DWIDTH 18 0
BBX 18 18 0 -2
BITMAP
000000
000000
00c000
01e000
01e000
033000
033000
073800
061800
07f800
0e1c00
0c0c00
1c0e00
180600
7e1f80
000000
000000
000000
ENDCHAR
STARTCHAR 2342
ENCODING 9026
SWIDTH 1000 0
DWIDTH 18 0
BBX 18 18 0 -2
BITMAP
000000
000000
1ff800
060c00
060600
060600
060600
060c00
07f800
060e00
060300
060300
060300
060600
1ffc00
000000
000000
000000
ENDCHAR
STARTCHAR 2343
ENCODING 9027
SWIDTH 1000 0
DWIDTH 18 0
BBX 18 18 0 -2
BITMAP
000000
000000
01f600
071e00
0e0e00
0c0600
1c0600
180000
180000
180000
1c0000
0c0600
0e0e00
071c00
01f000
000000
000000
000000
ENDCHAR
STARTCHAR 2344
ENCODING 9028
SWIDTH 1000 0
DWIDTH 18 0
BBX 18 18 0 -2
BITMAP
000000
000000
1ff000
061c00
060e00
060600
060700
060300
060300
060300
060700
060600
060e00
061c00
1ff000
000000
000000
000000
ENDCHAR
STARTCHAR 2345
ENCODING 9029
SWIDTH 1000 0
DWIDTH 18 0
BBX 18 18 0 -2
BITMAP
000000
000000
1ffe00
060600
060300
060000
063000
063000
07f000
063000
063000
060000
060300
060600
1ffe00
000000
000000
000000
ENDCHAR
STARTCHAR 2346
ENCODING 9030
SWIDTH 1000 0
DWIDTH 18 0
BBX 18 18 0 -2
BITMAP
000000
000000
0fff00
030300
030300
030000
031800
031800
03f800
031800
031800
030000
030000
030000
0fc000
000000
000000
000000
ENDCHAR
STARTCHAR 2347
ENCODING 9031
SWIDTH 1000 0
DWIDTH 18 0
BBX 18 18 0 -2
BITMAP
000000
000000
01f600
071e00
0e0600
0c0600
1c0000
180000
180000
181f80
1c0600
0c0600
0e0e00
071e00
01f600
000000
000000
000000
ENDCHAR
STARTCHAR 2348
ENCODING 9032
SWIDTH 1000 0
DWIDTH 18 0
BBX 18 18 0 -2
BITMAP
000000
000000
3f1f80
0c0600
0c0600
0c0600
0c0600
0c0600
0ffe00
0c0600
0c0600
0c0600
0c0600
0c0600
3f1f80
000000
000000
000000
ENDCHAR
STARTCHAR 2349
ENCODING 9033
SWIDTH 1000 0
DWIDTH 18 0
BBX 18 18 0 -2
BITMAP
000000
000000
03f000
00c000
00c000
00c000
00c000
00c000
00c000
00c000
00c000
00c000
00c000
00c000
03f000
000000
000000
000000
ENDCHAR
STARTCHAR 234a
ENCODING 9034
SWIDTH 1000 0
DWIDTH 18 0
BBX 18 18 0 -2
BITMAP
000000
000000
007e00
001800
001800
001800
001800
001800
001800
001800
001800
001800
0c1800
0e3000
07e000
000000
000000
000000
ENDCHAR
STARTCHAR 234b
ENCODING 9035
SWIDTH 1000 0
DWIDTH 18 0
BBX 18 18 0 -2
BITMAP
000000
000000
1fbf00
061c00
063800
067000
06e000
07c000
07c000
06e000
067000
063800
061c00
060e00
1f9f80
000000
000000
000000
ENDCHAR
STARTCHAR 234c
ENCODING 9036
SWIDTH 1000 0
DWIDTH 18 0
BBX 18 18 0 -2
BITMAP
000000
000000
0fc000
030000
030000
030000
030000
030000
030000
030000
030000
030300
030300
030300
0fff00
000000
000000
000000
ENDCHAR
STARTCHAR 234d
ENCODING 9037
SWIDTH 1000 0
DWIDTH 18 0
BBX 18 18 0 -2
BITMAP
000000
000000
7c0f80
1c0e00
1e1e00
1e1e00
1e1e00
1f3e00
1b3600
1b3600
1bf600
19e600
19e600
18c600
7ccf80
000000
000000
000000
ENDCHAR
STARTCHAR 234e
ENCODING 9038
SWIDTH 1000 0
DWIDTH 18 0
BBX 18 18 0 -2
BITMAP
000000
000000
3e1f80
0f0600
0f0600
0f8600
0dc600
0cc600
0ce600
0c7600
0c3600
0c3e00
0c1e00
0c0e00
3e0600
000000
000000
000000
ENDCHAR
STARTCHAR 234f
ENCODING 9039
SWIDTH 1000 0
DWIDTH 18 0
BBX 18 18 0 -2
BITMAP
000000
000000
01f000
071c00
0e0e00
0c0600
1c0700
180300
180300
180300
1c0700
0c0600
0e0e00
071c00
01f000
000000
000000
000000
ENDCHAR
STARTCHAR 2350
ENCODING 9040
SWIDTH 1000 0
DWIDTH 18 0
BBX 18 18 0 -2
BITMAP
000000
000000
0ffc00
030600
030300
030300
030300
030600
03fc00
030000
030000
030000
030000
030000
0fc000
000000
000000
000000
ENDCHAR
STARTCHAR 2351
ENCODING 9041
SWIDTH 1000 0
DWIDTH 18 0
BBX 18 18 0 -2
BITMAP
000000
000000
01f000
071c00
0e0e00
0c0600
1c0700
180300
180300
180300
1c0700
0ce600
0fbe00
071c00
01fd80
000700
000000
000000
ENDCHAR
STARTCHAR 2352
ENCODING 9042
SWIDTH 1000 0
DWIDTH 18 0
BBX 18 18 0 -2
BITMAP
000000
000000
1ff800
060c00
060600
060600
060600
060c00
07f800
061800
061c00
060c00
060e00
060600
1f9f80
000000
000000
000000
ENDCHAR
STARTCHAR 2353
ENCODING 9043
SWIDTH 1000 0
DWIDTH 18 0
BBX 18 18 0 -2
BITMAP
000000
000000
03f600
061e00
0c0e00
0c0600
0c0600
070000
01f000
001c00
0c0600
0c0600
0e0600
0f0c00
0df800
000000
000000
000000
ENDCHAR
STARTCHAR 2354
ENCODING 9044
SWIDTH 1000 0
DWIDTH 18 0
BBX 18 18 0 -2
BITMAP
000000
000000
3fff00
30c300
30c300
00c000
00c000
00c000
00c000
00c000
00c000
00c000
00c000
00c000
03f000
000000
000000
000000
ENDCHAR
STARTCHAR 2355
ENCODING 9045
SWIDTH 1000 0
DWIDTH 18 0
BBX 18 18 0 -2
BITMAP
000000
000000
3f1f80
0c0600
0c0600
0c0600
0c0600
0c0600
0c0600
0c0600
0c0600
0c0600
0e0e00
071c00
01f000
000000
000000
000000
ENDCHAR
STARTCHAR 2356
ENCODING 9046
SWIDTH 1000 0
DWIDTH 18 0
BBX 18 18 0 -2
BITMAP
000000
000000
3f1f80
0c0600
0e0e00
060c00
061c00
071800
031800
033800
03b000
01f000
01e000
01e000
00c000
000000
000000
000000
ENDCHAR
STARTCHAR 2357
ENCODING 9047
SWIDTH 1000 0
DWIDTH 18 0
BBX 18 18 0 -2
BITMAP
000000
000000
7eefc0
18e300
18e300
19f300
1db700
0db600
0fbe00
0f1e00
0f1e00
0f1e00
071c00
060c00
060c00
000000
000000
000000
ENDCHAR
STARTCHAR 2358
ENCODING 9048
SWIDTH 1000 0
DWIDTH 18 0
BBX 18 18 0 -2
BITMAP
000000
000000
3f3f00
0c0c00
0e1c00
073800
03f000
01e000
00c000
01e000
03f000
073800
0e1c00
0c0c00
3e3f00
000000
000000
000000
ENDCHAR
STARTCHAR 2359
ENCODING 9049
SWIDTH 1000 0
DWIDTH 18 0
BBX 18 18 0 -2
BITMAP
000000
000000
3f3f00
0c0c00
0e1c00
061800
073800
033000
03f000
01e000
00c000
00c000
00c000
00c000
03f000
000000
000000
000000
ENDCHAR
STARTCHAR 235a
ENCODING 9050
SWIDTH 1000 0
DWIDTH 18 0
BBX 18 18 0 -2
BITMAP
000000
000000
0ffe00
0c1c00
0c3800
003000
007000
00e000
00c000
01c000
038000
030000
070600
0e0600
1ffe00
000000
000000
000000
ENDCHAR
STARTCHAR 2361
ENCODING 9057
SWIDTH 1000 0
DWIDTH 18 0
BBX 18 18 0 -2
BITMAP
000000
000000
000000
000000
000000
000000
000000
03f000
061800
001800
03f800
061800
061800
063e00
03ee00
000000
000000
000000
ENDCHAR
STARTCHAR 2362
ENCODING 9058
SWIDTH 1000 0
DWIDTH 18 0
BBX 18 18 0 -2
BITMAP
000000
000000
0f0000
030000
030000
030000
030000
03f800
038c00
030600
030600
030600
030600
038c00
03f800
000000
000000
000000
ENDCHAR
STARTCHAR 2363
ENCODING 9059
SWIDTH 1000 0
DWIDTH 18 0
BBX 18 18 0 -2
BITMAP
000000
000000
000000
000000
000000
000000
000000
01f800
030c00
060000
060000
060000
060000
030c00
01f800
000000
000000
000000
ENDCHAR
STARTCHAR 2364
ENCODING 9060
SWIDTH 1000 0
DWIDTH 18 0
BBX 18 18 0 -2
BITMAP
000000
000000
007800
001800
001800
001800
001800
03f800
063800
0c1800
0c1800
0c1800
0c1800
063800
03fe00
000000
000000
000000
ENDCHAR
STARTCHAR 2365
ENCODING 9061
SWIDTH 1000 0
DWIDTH 18 0
BBX 18 18 0 -2
BITMAP
000000
000000
000000
000000
000000
000000
000000
01f000
031800
060c00
07fc00
060000
060000
030c00
01f800
000000
000000
000000
ENDCHAR
STARTCHAR 2366
ENCODING 9062
SWIDTH 1000 0
DWIDTH 18 0
BBX 18 18 0 -2
BITMAP
000000
000000
003c00
006600
00c000
00c000
00c000
07f800
00c000
00c000
00c000
00c000
00c000
00c000
03f000
000000
000000
000000
ENDCHAR
STARTCHAR 2367
ENCODING 9063
SWIDTH 1000 0
DWIDTH 18 0
BBX 18 18 0 -2
BITMAP
000000
000000
000000
000000
000000
000000
000000
03fe00
061800
061800
061800
03f000
060000
07fc00
0c0600
0c0600
07fc00
000000
ENDCHAR
STARTCHAR 2368
ENCODING 9064
SWIDTH 1000 0
DWIDTH 18 0
BBX 18 18 0 -2
BITMAP
000000
000000
0f0000
030000
030000
030000
030000
03f800
039c00
030c00
030c00
030c00
030c00
030c00
0f9f00
000000
000000
000000
ENDCHAR
STARTCHAR 2369
ENCODING 9065
SWIDTH 1000 0
DWIDTH 18 0
BBX 18 18 0 -2
BITMAP
000000
000000
000000
00e000
00e000
000000
000000
01e000
006000
006000
006000
006000
006000
006000
01f800
000000
000000
000000
ENDCHAR
STARTCHAR 236a
ENCODING 9066
SWIDTH 1000 0
DWIDTH 18 0
BBX 18 18 0 -2
BITMAP
000000
000000
000000
007000
007000
000000
000000
00f000
003000
003000
003000
003000
003000
003000
003000
0c6000
07c000
000000
ENDCHAR
STARTCHAR 236b
ENCODING 9067
SWIDTH 1000 0
DWIDTH 18 0
BBX 18 18 0 -2
BITMAP
000000
000000
1e0000
060000
060000
060000
060000
067e00
063800
06e000
078000
06c000
067000
061c00
1fbf00
000000
000000
000000
ENDCHAR
STARTCHAR 236c
ENCODING 9068
SWIDTH 1000 0
DWIDTH 18 0
BBX 18 18 0 -2
BITMAP
000000
000000
03c000
00c000
00c000
00c000
00c000
00c000
00c000
00c000
00c000
00c000
00c000
00c000
03f000
000000
000000
000000
ENDCHAR
STARTCHAR 236d
ENCODING 9069
SWIDTH 1000 0
DWIDTH 18 0
BBX 18 18 0 -2
BITMAP
000000
000000
000000
000000
000000
000000
000000
1fde00
0e7300
0c6300
0c6300
0c6300
0c6300
0c6300
1ef780
000000
000000
000000
ENDCHAR
STARTCHAR 236e
ENCODING 9070
SWIDTH 1000 0
DWIDTH 18 0
BBX 18 18 0 -2
BITMAP
000000
000000
000000
000000
000000
000000
000000
0ff800
039c00
030c00
030c00
030c00
030c00
030c00
0f9f00
000000
000000
000000
ENDCHAR
STARTCHAR 236f
ENCODING 9071
SWIDTH 1000 0
DWIDTH 18 0
BBX 18 18 0 -2
BITMAP
000000
000000
000000
000000
000000
000000
000000
01f000
031800
060c00
060c00
060c00
060c00
031800
01f000
000000
000000
000000
ENDCHAR
STARTCHAR 2370
ENCODING 9072
SWIDTH 1000 0
DWIDTH 18 0
BBX 18 18 0 -2
BITMAP
000000
000000
000000
000000
000000
000000
000000
0ff800
038c00
030600
030600
030600
038c00
03f800
030000
030000
0fc000
000000
ENDCHAR
STARTCHAR 2371
ENCODING 9073
SWIDTH 1000 0
DWIDTH 18 0
BBX 18 18 0 -2
BITMAP
000000
000000
000000
000000
000000
000000
000000
03f800
063800
0c1800
0c1800
0c1800
063800
03f800
001800
001800
007e00
000000
ENDCHAR
STARTCHAR 2372
ENCODING 9074
SWIDTH 1000 0
DWIDTH 18 0
BBX 18 18 0 -2
BITMAP
000000
000000
000000
000000
000000
000000
000000
07bc00
01ec00
01c000
018000
018000
018000
018000
07e000
000000
000000
000000
ENDCHAR
STARTCHAR 2373
ENCODING 9075
SWIDTH 1000 0
DWIDTH 18 0
BBX 18 18 0 -2
BITMAP
000000
000000
000000
000000
000000
000000
000000
03fc00
061c00
060c00
03e000
003800
060c00
070c00
07f800
000000
000000
000000
ENDCHAR
STARTCHAR 2374
ENCODING 9076
SWIDTH 1000 0
DWIDTH 18 0
BBX 18 18 0 -2
BITMAP
000000
000000
000000
018000
018000
018000
018000
0ff800
018000
018000
018000
018000
018000
00cc00
007800
000000
000000
000000
ENDCHAR
STARTCHAR 2375
ENCODING 9077
SWIDTH 1000 0
DWIDTH 18 0
BBX 18 18 0 -2
BITMAP
000000
000000
000000
000000
000000
000000
000000
0f3c00
030c00
030c00
030c00
030c00
030c00
039c00
01ff00
000000
000000
000000
ENDCHAR
STARTCHAR 2376
ENCODING 9078
SWIDTH 1000 0
DWIDTH 18 0
BBX 18 18 0 -2
BITMAP
000000
000000
000000
000000
000000
000000
000000
1f3e00
061800
073800
033000
03f000
01e000
01e000
00c000
000000
000000
000000
ENDCHAR
STARTCHAR 2377
ENCODING 9079
SWIDTH 1000 0
DWIDTH 18 0
BBX 18 18 0 -2
BITMAP
000000
000000
000000
000000
000000
000000
000000
3eef80
0ce600
0ffe00
07bc00
07bc00
07bc00
031800
031800
000000
000000
000000
ENDCHAR
STARTCHAR 2378
ENCODING 9080
SWIDTH 1000 0
DWIDTH 18 0
BBX 18 18 0 -2
BITMAP
000000
000000
000000
000000
000000
000000
000000
0fbe00
031800
01b000
00e000
01b000
031800
060c00
1fbf00
000000
000000
000000
ENDCHAR
STARTCHAR 2379
ENCODING 9081
SWIDTH 1000 0
DWIDTH 18 0
BBX 18 18 0 -2
BITMAP
000000
000000
000000
000000
000000
000000
000000
0f9f00
030c00
039c00
019800
01f800
00f000
007000
00e000
0dc000
078000
000000
ENDCHAR
STARTCHAR 237a
ENCODING 9082
SWIDTH 1000 0
DWIDTH 18 0
BBX 18 18 0 -2
BITMAP
000000
000000
000000
000000
000000
000000
000000
07fc00
061800
063000
006000
00c000
018c00
030c00
07fc00
000000
000000
000000
ENDCHAR
STARTCHAR 2421
ENCODING 9249
SWIDTH 1000 0
DWIDTH 18 0
BBX 18 18 0 -2
BITMAP
000000
000000
000000
000000
000000
060000
066000
1fc000
060000
0fe000
1ee000
37b000
333000
37b000
1c6000
01c000
000000
000000
ENDCHAR
STARTCHAR 2422
ENCODING 9250
SWIDTH 1000 0
DWIDTH 18 0
BBX 18 18 0 -2
BITMAP
000000
000000
030000
018c00
19f800
0fc000
030000
03f800
07ee00
0f6300
1b6300
19c300
31c300
370600
1c1c00
00f000
000000
000000
ENDCHAR
STARTCHAR 2423
ENCODING 9251
SWIDTH 1000 0
DWIDTH 18 0
BBX 18 18 0 -2
BITMAP
000000
000000
000000
000000
000000
000000
300000
306000
303000
303000
301800
301800
307800
1e1800
1c0000
0c0000
000000
000000
ENDCHAR
STARTCHAR 2424
ENCODING 9252
SWIDTH 1000 0
DWIDTH 18 0
BBX 18 18 0 -2
BITMAP
000000
000000
000000
300000
181800
180c00
300600
300600
300300
300300
331f00
360700
1e0300
1c0000
0e0000
000000
000000
000000
ENDCHAR
STARTCHAR 2425
ENCODING 9253
SWIDTH 1000 0
DWIDTH 18 0
BBX 18 18 0 -2
BITMAP
000000
000000
000000
000000
060000
03c000
018000
000000
07e000
1c3000
003000
003000
003000
006000
01c000
070000
000000
000000
ENDCHAR
STARTCHAR 2426
ENCODING 9254
SWIDTH 1000 0
DWIDTH 18 0
BBX 18 18 0 -2
BITMAP
000000
030000
01f000
006000
000000
01f000
1f1800
0c0c00
000c00
000c00
000c00
001800
001800
003000
00e000
038000
000000
000000
ENDCHAR
STARTCHAR 2427
ENCODING 9255
SWIDTH 1000 0
DWIDTH 18 0
BBX 18 18 0 -2
BITMAP
000000
000000
000000
000000
060000
03c000
018000
000000
1fe000
00c000
018000
030000
078000
0cc000
18c000
307800
000000
000000
ENDCHAR
STARTCHAR 2428
ENCODING 9256
SWIDTH 1000 0
DWIDTH 18 0
BBX 18 18 0 -2
BITMAP
000000
030000
01f000
006000
000000
19f800
0f3000
006000
00c000
018000
01e000
033000
063000
0c3000
183000
301f00
000000
000000
ENDCHAR
STARTCHAR 2429
ENCODING 9257
SWIDTH 1000 0
DWIDTH 18 0
BBX 18 18 0 -2
BITMAP
000000
000000
000000
000000
000000
060000
066000
37b000
1e1800
060000
07f000
071800
0e1800
1e1800
363000
1ee000
000000
000000
ENDCHAR
STARTCHAR 242a
ENCODING 9258
SWIDTH 1000 0
DWIDTH 18 0
BBX 18 18 0 -2
BITMAP
000000
000000
0c0000
060000
061c00
06c600
378300
1e0000
067800
07cc00
070600
0e0600
1e0600
379c00
1ef000
060000
000000
000000
ENDCHAR
STARTCHAR 242b
ENCODING 9259
SWIDTH 1000 0
DWIDTH 18 0
BBX 18 18 0 -2
BITMAP
000000
000000
060000
030000
060000
07d800
6f6c00
3e6600
066600
066300
0c6f00
0c6300
186000
1ec000
33c000
638000
000000
000000
ENDCHAR
STARTCHAR 242c
ENCODING 9260
SWIDTH 1000 0
DWIDTH 18 0
BBX 18 18 0 -2
BITMAP
000000
000180
060cc0
030600
060000
07d800
6f6c00
3e6600
066600
066300
0c6f00
0c6300
186000
1ec000
33c000
638000
000000
000000
ENDCHAR
STARTCHAR 242d
ENCODING 9261
SWIDTH 1000 0
DWIDTH 18 0
BBX 18 18 0 -2
BITMAP
000000
000000
018000
00cc00
0cf800
07e000
006600
183c00
0ff000
001800
001800
07fc00
0c0c00
0c0000
060000
03f000
000000
000000
ENDCHAR
STARTCHAR 242e
ENCODING 9262
SWIDTH 1000 0
DWIDTH 18 0
BBX 18 18 0 -2
BITMAP
000000
000180
0300c0
019b00
19f180
0fc000
00cc00
307800
1fe000
003000
003000
0ff800
181800
180000
0c0000
07e000
000000
000000
ENDCHAR
STARTCHAR 242f
ENCODING 9263
SWIDTH 1000 0
DWIDTH 18 0
BBX 18 18 0 -2
BITMAP
000000
000000
001800
001800
003000
006000
01c000
070000
0c0000
0c0000
070000
01c000
006000
003000
001800
000c00
000c00
000000
ENDCHAR
STARTCHAR 2430
ENCODING 9264
SWIDTH 1000 0
DWIDTH 18 0
BBX 18 18 0 -2
BITMAP
000000
000000
001800
001800
003300
006180
01cc00
070600
0c0000
0c0000
070000
01c000
006000
003000
001800
000c00
000c00
000000
ENDCHAR
STARTCHAR 2431
ENCODING 9265
SWIDTH 1000 0
DWIDTH 18 0
BBX 18 18 0 -2
BITMAP
000000
000000
003000
301800
181800
181b00
1b1e00
31f800
301800
301800
301800
3c1800
3c1800
383000
18e000
038000
000000
000000
ENDCHAR
STARTCHAR 2432
ENCODING 9266
SWIDTH 1000 0
DWIDTH 18 0
BBX 18 18 0 -2
BITMAP
000000
000180
006080
603600
303300
303000
363e00
63f000
603000
603000
603000
783000
783000
706000
31c000
070000
000000
000000
ENDCHAR
STARTCHAR 2433
ENCODING 9267
SWIDTH 1000 0
DWIDTH 18 0
BBX 18 18 0 -2
BITMAP
000000
000000
000000
061c00
03f000
006000
00c000
000000
000000
000000
0c0000
180000
180000
0e0600
03fc00
000000
000000
000000
ENDCHAR
STARTCHAR 2434
ENCODING 9268
SWIDTH 1000 0
DWIDTH 18 0
BBX 18 18 0 -2
BITMAP
000000
000000
000000
061c00
03f000
006600
00c300
001800
000c00
000000
0c0000
180000
180000
0e0600
03fc00
000000
000000
000000
ENDCHAR
STARTCHAR 2435
ENCODING 9269
SWIDTH 1000 0
DWIDTH 18 0
BBX 18 18 0 -2
BITMAP
000000
000000
038000
00c000
00c600
187c00
0fe000
006000
003000
003000
0ff800
181800
180000
180000
0e0000
03f000
000000
000000
ENDCHAR
STARTCHAR 2436
ENCODING 9270
SWIDTH 1000 0
DWIDTH 18 0
BBX 18 18 0 -2
BITMAP
000000
001b00
038d80
00c000
00c600
187c00
0fe000
006000
003000
003000
0ff800
181800
180000
180000
0e0000
03f000
000000
000000
ENDCHAR
STARTCHAR 2437
ENCODING 9271
SWIDTH 1000 0
DWIDTH 18 0
BBX 18 18 0 -2
BITMAP
000000
000000
180000
0c0000
0e0000
0c0000
0c0000
0c0000
0c0000
0c0000
0c0600
0c0600
0c0c00
0c1800
067000
03c000
000000
000000
ENDCHAR
STARTCHAR 2438
ENCODING 9272
SWIDTH 1000 0
DWIDTH 18 0
BBX 18 18 0 -2
BITMAP
000000
000000
180000
0c1800
0e0c00
0c6000
0c3000
0c0000
0c0000
0c0000
0c0600
0c0600
0c0c00
0c1800
067000
03c000
000000
000000
ENDCHAR
STARTCHAR 2439
ENCODING 9273
SWIDTH 1000 0
DWIDTH 18 0
BBX 18 18 0 -2
BITMAP
000000
000000
00c000
006000
607f00
3fe000
006000
006000
07e000
0c6000
0c6000
07e000
006000
00c000
038000
0e0000
000000
000000
ENDCHAR
STARTCHAR 243a
ENCODING 9274
SWIDTH 1000 0
DWIDTH 18 0
BBX 18 18 0 -2
BITMAP
000000
001b00
00cd80
006000
307f00
1fe000
006000
006000
03e000
066000
066000
03e000
006000
00c000
038000
0e0000
000000
000000
ENDCHAR
STARTCHAR 243b
ENCODING 9275
SWIDTH 1000 0
DWIDTH 18 0
BBX 18 18 0 -2
BITMAP
000000
000000
003000
0c1800
061800
061800
061f00
37f800
1e1800
061800
061800
067800
063000
060000
060000
03fc00
000000
000000
ENDCHAR
STARTCHAR 243c
ENCODING 9276
SWIDTH 1000 0
DWIDTH 18 0
BBX 18 18 0 -2
BITMAP
000000
000300
006180
183c00
0c3600
0c3000
0c3e00
6ff000
3c3000
0c3000
0c3000
0cf000
0c6000
0c0000
0c0000
07f800
000000
000000
ENDCHAR
STARTCHAR 243d
ENCODING 9277
SWIDTH 1000 0
DWIDTH 18 0
BBX 18 18 0 -2
BITMAP
000000
000000
0df800
073000
006000
01c000
030000
063f00
1df000
3fe000
018000
030000
030000
030000
018000
00f800
000000
000000
ENDCHAR
STARTCHAR 243e
ENCODING 9278
SWIDTH 1000 0
DWIDTH 18 0
BBX 18 18 0 -2
BITMAP
000000
000180
0df880
073300
006180
01c000
030000
063f00
1df000
3fe000
018000
030000
030000
030000
018000
00f800
000000
000000
ENDCHAR
STARTCHAR 243f
ENCODING 9279
SWIDTH 1000 0
DWIDTH 18 0
BBX 18 18 0 -2
BITMAP
000000
000000
060000
060000
06c000
678000
3e0000
0c7c00
0cce00
0c1800
180000
180000
198000
318000
30c000
607e00
000000
000000
ENDCHAR
STARTCHAR 2440
ENCODING 9280
SWIDTH 1000 0
DWIDTH 18 0
BBX 18 18 0 -2
BITMAP
000000
000300
060180
060c00
06c600
678000
3e0000
0c7c00
0cce00
0c1800
180000
180000
198000
318000
30c000
607e00
000000
000000
ENDCHAR
STARTCHAR 2441
ENCODING 9281
SWIDTH 1000 0
DWIDTH 18 0
BBX 18 18 0 -2
BITMAP
000000
000000
030000
030000
033000
33e000
1f0000
030000
067c00
07c600
0f0600
0c0600
000600
000c00
003800
03e000
000000
000000
ENDCHAR
STARTCHAR 2442
ENCODING 9282
SWIDTH 1000 0
DWIDTH 18 0
BBX 18 18 0 -2
BITMAP
000000
000300
030180
030c00
033600
33e000
1f0000
030000
067c00
07c600
0f0600
0c0600
000600
000c00
003800
03e000
000000
000000
ENDCHAR
STARTCHAR 2443
ENCODING 9283
SWIDTH 1000 0
DWIDTH 18 0
BBX 18 18 0 -2
BITMAP
000000
000000
000000
000000
000000
000000
000000
03e000
0e3000
381800
001800
001800
003000
00e000
078000
000000
000000
000000
ENDCHAR
STARTCHAR 2444
ENCODING 9284
SWIDTH 1000 0
DWIDTH 18 0
BBX 18 18 0 -2
BITMAP
000000
000000
000000
000000
01f000
071c00
7c0600
300300
000300
000300
000300
000600
001c00
007000
03c000
000000
000000
000000
ENDCHAR
STARTCHAR 2445
ENCODING 9285
SWIDTH 1000 0
DWIDTH 18 0
BBX 18 18 0 -2
BITMAP
000000
000300
001980
000c00
01f000
071c00
7c0600
300300
000300
000300
000300
000600
001c00
007000
03c000
000000
000000
000000
ENDCHAR
STARTCHAR 2446
ENCODING 9286
SWIDTH 1000 0
DWIDTH 18 0
BBX 18 18 0 -2
BITMAP
000000
000000
000000
007f00
33dc00
1e3000
006000
00c000
00c000
018000
018000
018000
018000
00c000
007e00
000000
000000
000000
ENDCHAR
STARTCHAR 2447
ENCODING 9287
SWIDTH 1000 0
DWIDTH 18 0
BBX 18 18 0 -2
BITMAP
000000
000000
000000
007f00
33dc00
1e3300
006180
00cc00
00c600
018000
018000
018000
018000
00c000
007e00
000000
000000
000000
ENDCHAR
STARTCHAR 2448
ENCODING 9288
SWIDTH 1000 0
DWIDTH 18 0
BBX 18 18 0 -2
BITMAP
000000
000000
060000
030000
030000
030000
030c00
037800
01c000
070000
0c0000
180000
180000
180000
0e0600
03fc00
000000
000000
ENDCHAR
STARTCHAR 2449
ENCODING 9289
SWIDTH 1000 0
DWIDTH 18 0
BBX 18 18 0 -2
BITMAP
000000
000600
063300
031800
030000
030000
030c00
037800
01c000
070000
0c0000
180000
180000
180000
0e0600
03fc00
000000
000000
ENDCHAR
STARTCHAR 244a
ENCODING 9290
SWIDTH 1000 0
DWIDTH 18 0
BBX 18 18 0 -2
BITMAP
000000
000000
060000
06c000
678000
3e3e00
0c0700
0c0c00
183000
183000
301800
301800
61f800
031e00
031b00
01f000
000000
000000
ENDCHAR
STARTCHAR 244b
ENCODING 9291
SWIDTH 1000 0
DWIDTH 18 0
BBX 18 18 0 -2
BITMAP
000000
000000
000000
300000
19be00
18ec00
181800
180000
300000
300000
318000
318000
3d8000
3cc000
387e00
180000
000000
000000
ENDCHAR
STARTCHAR 244c
ENCODING 9292
SWIDTH 1000 0
DWIDTH 18 0
BBX 18 18 0 -2
BITMAP
000000
000000
018000
00c000
318000
19f800
1b8c00
1f8600
1d8600
198600
3f0600
3f0600
367e00
3fc600
18cf00
007800
000000
000000
ENDCHAR
STARTCHAR 244d
ENCODING 9293
SWIDTH 1000 0
DWIDTH 18 0
BBX 18 18 0 -2
BITMAP
000000
000000
180000
0c0000
0c3c00
0ee600
7d8600
3f0600
0e0600
0c0600
0c0600
1c7e00
3cc600
6ccf00
1c7800
0c0000
000000
000000
ENDCHAR
STARTCHAR 244e
ENCODING 9294
SWIDTH 1000 0
DWIDTH 18 0
BBX 18 18 0 -2
BITMAP
000000
000000
000000
01f000
07dc00
0cc600
18c300
18c300
318300
318300
318300
330600
1b0600
0e1c00
00f000
000000
000000
000000
ENDCHAR
STARTCHAR 244f
ENCODING 9295
SWIDTH 1000 0
DWIDTH 18 0
BBX 18 18 0 -2
BITMAP
000000
000000
003000
301800
181b00
1b1e00
19f800
181800
301800
301800
300c00
300c00
3cfc00
3d8e00
398f00
18f800
000000
000000
ENDCHAR
STARTCHAR 2450
ENCODING 9296
SWIDTH 1000 0
DWIDTH 18 0
BBX 18 18 0 -2
BITMAP
000000
000d80
0066c0
603000
303600
363c00
33f000
303000
603000
603000
601800
601800
79f800
7b1c00
731e00
31f000
000000
000000
ENDCHAR
STARTCHAR 2451
ENCODING 9297
SWIDTH 1000 0
DWIDTH 18 0
BBX 18 18 0 -2
BITMAP
000000
000380
0066c0
6036c0
303780
363c00
33f000
303000
603000
603000
601800
601800
79f800
7b1c00
731e00
31f000
000000
000000
ENDCHAR
STARTCHAR 2452
ENCODING 9298
SWIDTH 1000 0
DWIDTH 18 0
BBX 18 18 0 -2
BITMAP
000000
000000
000000
033000
663000
3c3800
0c3800
183c00
183700
303000
303000
303000
306000
306000
18c000
0f8000
000000
000000
ENDCHAR
STARTCHAR 2453
ENCODING 9299
SWIDTH 1000 0
DWIDTH 18 0
BBX 18 18 0 -2
BITMAP
000000
000180
0000c0
033600
663300
3c3800
0c3800
183c00
183700
303000
303000
303000
306000
306000
18c000
0f8000
000000
000000
ENDCHAR
STARTCHAR 2454
ENCODING 9300
SWIDTH 1000 0
DWIDTH 18 0
BBX 18 18 0 -2
BITMAP
000000
000380
0006c0
0336c0
663380
3c3800
0c3800
183c00
183700
303000
303000
303000
306000
306000
18c000
0f8000
000000
000000
ENDCHAR
STARTCHAR 2455
ENCODING 9301
SWIDTH 1000 0
DWIDTH 18 0
BBX 18 18 0 -2
BITMAP
000000
000000
060000
03e000
00c000
018000
030000
030000
018000
00f000
03dc00
0e6600
786300
706300
066000
03c000
000000
000000
ENDCHAR
STARTCHAR 2456
ENCODING 9302
SWIDTH 1000 0
DWIDTH 18 0
BBX 18 18 0 -2
BITMAP
000000
000000
060300
03e180
00cc00
018600
030000
030000
018000
00f000
03dc00
0e6600
786300
706300
066000
03c000
000000
000000
ENDCHAR
STARTCHAR 2457
ENCODING 9303
SWIDTH 1000 0
DWIDTH 18 0
BBX 18 18 0 -2
BITMAP
000000
000000
060700
03ed80
00cd80
018700
030000
030000
018000
00f000
03dc00
0e6600
786300
706300
066000
03c000
000000
000000
ENDCHAR
STARTCHAR 2458
ENCODING 9304
SWIDTH 1000 0
DWIDTH 18 0
BBX 18 18 0 -2
BITMAP
000000
000000
000000
000000
000000
038000
06c000
0c6000
186000
703000
001800
001800
000c00
000700
000000
000000
000000
000000
ENDCHAR
STARTCHAR 2459
ENCODING 9305
SWIDTH 1000 0
DWIDTH 18 0
BBX 18 18 0 -2
BITMAP
000000
000000
000600
000300
001800
038c00
06c000
0c6000
186000
703000
001800
001800
000c00
000700
000000
000000
000000
000000
ENDCHAR
STARTCHAR 245a
ENCODING 9306
SWIDTH 1000 0
DWIDTH 18 0
BBX 18 18 0 -2
BITMAP
000000
000000
000000
000e00
001b00
039b00
06ce00
0c6000
786000
303000
001800
001800
000c00
000700
000000
000000
000000
000000
ENDCHAR
STARTCHAR 245b
ENCODING 9307
SWIDTH 1000 0
DWIDTH 18 0
BBX 18 18 0 -2
BITMAP
000000
000000
000000
318e00
18f800
181800
181b00
1b1e00
31f800
301800
300c00
300c00
3cfc00
3d8e00
398f00
18f800
000000
000000
ENDCHAR
STARTCHAR 245c
ENCODING 9308
SWIDTH 1000 0
DWIDTH 18 0
BBX 18 18 0 -2
BITMAP
000000
000180
0000c0
631f00
31f180
303000
303600
363c00
63f000
603000
601800
601800
79f800
7b1c00
731e00
31f000
000000
000000
ENDCHAR
STARTCHAR 245d
ENCODING 9309
SWIDTH 1000 0
DWIDTH 18 0
BBX 18 18 0 -2
BITMAP
000000
000380
0006c0
3186c0
18ff80
181800
181b00
1b1e00
31f800
301800
300c00
300c00
3cfc00
3d8e00
398f00
18f800
000000
000000
ENDCHAR
STARTCHAR 245e
ENCODING 9310
SWIDTH 1000 0
DWIDTH 18 0
BBX 18 18 0 -2
BITMAP
000000
000000
006000
006000
186e00
0ff800
006000
006600
0c7c00
07f000
006000
003000
07f000
0c3c00
0c3600
07e000
000000
000000
ENDCHAR
STARTCHAR 245f
ENCODING 9311
SWIDTH 1000 0
DWIDTH 18 0
BBX 18 18 0 -2
BITMAP
000000
000000
1bc000
0e6000
00c000
00c000
019800
018c00
07cc00
1dfc00
331c00
660e00
661b00
6c1800
383000
01e000
000000
000000
ENDCHAR
STARTCHAR 2460
ENCODING 9312
SWIDTH 1000 0
DWIDTH 18 0
BBX 18 18 0 -2
BITMAP
000000
000000
180000
0c0000
6d8000
3f1c00
0c0600
0c0300
3c0000
6c1800
6c0c00
380c00
180c00
180c00
0e3800
03e000
000000
000000
ENDCHAR
STARTCHAR 2461
ENCODING 9313
SWIDTH 1000 0
DWIDTH 18 0
BBX 18 18 0 -2
BITMAP
000000
000000
006000
183000
0c6000
0df800
0f6c00
0cc600
1ec300
378300
330300
338600
360600
1c1c00
00f000
000000
000000
000000
ENDCHAR
STARTCHAR 2462
ENCODING 9314
SWIDTH 1000 0
DWIDTH 18 0
BBX 18 18 0 -2
BITMAP
000000
000000
030000
018000
018000
198000
0fe000
030c00
1b0600
336300
1fc300
060300
060600
060600
030c00
01f800
000000
000000
ENDCHAR
STARTCHAR 2463
ENCODING 9315
SWIDTH 1000 0
DWIDTH 18 0
BBX 18 18 0 -2
BITMAP
000000
000000
000000
000000
000000
018000
18c000
0c0000
0df000
0f1800
3c1800
061800
06f000
030000
030000
030000
000000
000000
ENDCHAR
STARTCHAR 2464
ENCODING 9316
SWIDTH 1000 0
DWIDTH 18 0
BBX 18 18 0 -2
BITMAP
000000
000000
01c000
006000
180000
0c7c00
0dc600
6f0300
3c0300
060300
06c600
067c00
030000
030000
030000
030000
000000
000000
ENDCHAR
STARTCHAR 2465
ENCODING 9317
SWIDTH 1000 0
DWIDTH 18 0
BBX 18 18 0 -2
BITMAP
000000
000000
000000
000000
000000
018000
30c000
33e000
36f000
3cd800
3cd800
38d800
36f000
1be000
018000
070000
000000
000000
ENDCHAR
STARTCHAR 2466
ENCODING 9318
SWIDTH 1000 0
DWIDTH 18 0
BBX 18 18 0 -2
BITMAP
000000
000000
006000
303000
183000
18fc00
1bb600
363300
363300
3c3300
3f3300
39f600
187c00
006000
01c000
070000
000000
000000
ENDCHAR
STARTCHAR 2467
ENCODING 9319
SWIDTH 1000 0
DWIDTH 18 0
BBX 18 18 0 -2
BITMAP
000000
000000
000000
000000
000000
030000
018000
018000
01f000
018000
018000
018000
1f8000
31f000
319800
1f0000
000000
000000
ENDCHAR
STARTCHAR 2468
ENCODING 9320
SWIDTH 1000 0
DWIDTH 18 0
BBX 18 18 0 -2
BITMAP
000000
000000
018000
00c000
00c000
00c600
00fc00
00c000
00c000
006000
006000
1fe000
307800
306e00
1cc300
078000
000000
000000
ENDCHAR
STARTCHAR 2469
ENCODING 9321
SWIDTH 1000 0
DWIDTH 18 0
BBX 18 18 0 -2
BITMAP
000000
000000
060000
03e000
00c000
000000
060000
0c0000
0cf800
0f8c00
0e0600
0c0600
000600
000c00
007800
03c000
000000
000000
ENDCHAR
STARTCHAR 246a
ENCODING 9322
SWIDTH 1000 0
DWIDTH 18 0
BBX 18 18 0 -2
BITMAP
000000
000000
0c0000
067000
06d800
0d8c00
0d8c00
0f0c00
0f0c00
0f0c00
0e0c00
061800
001800
003000
00e000
038000
000000
000000
ENDCHAR
STARTCHAR 246b
ENCODING 9323
SWIDTH 1000 0
DWIDTH 18 0
BBX 18 18 0 -2
BITMAP
000000
000000
000000
0cf800
07b000
006000
00c000
018000
03f800
070c00
0c0600
180600
01e600
033600
033c00
01f800
000000
000000
ENDCHAR
STARTCHAR 246c
ENCODING 9324
SWIDTH 1000 0
DWIDTH 18 0
BBX 18 18 0 -2
BITMAP
000000
000000
180000
0c0000
0c3800
0eec00
7d8c00
3f0c00
0e0c00
1c1800
1c1800
3c1800
6c1980
0c1b00
1c0e00
0c0000
000000
000000
ENDCHAR
STARTCHAR 246d
ENCODING 9325
SWIDTH 1000 0
DWIDTH 18 0
BBX 18 18 0 -2
BITMAP
000000
000000
000000
0cf800
07b000
006000
00c000
018000
03f800
070c00
0c0600
180600
000600
000c00
003800
03e000
000000
000000
ENDCHAR
STARTCHAR 246e
ENCODING 9326
SWIDTH 1000 0
DWIDTH 18 0
BBX 18 18 0 -2
BITMAP
000000
000000
000000
000000
000000
0c0000
0c0000
0ee000
3fb000
0e1800
0c1800
1c1800
1c1800
3c3000
0de000
0c0000
000000
000000
ENDCHAR
STARTCHAR 246f
ENCODING 9327
SWIDTH 1000 0
DWIDTH 18 0
BBX 18 18 0 -2
BITMAP
000000
000000
180000
0c0000
0c0000
0e7800
7dce00
3f0300
0e0300
1c0300
1c0300
3c0300
6c0600
0c1c00
0cf000
0c0000
000000
000000
ENDCHAR
STARTCHAR 2470
ENCODING 9328
SWIDTH 1000 0
DWIDTH 18 0
BBX 18 18 0 -2
BITMAP
000000
000000
000000
0de000
076000
00c000
00c000
03fc00
0f8600
198300
330300
330300
36f300
379e00
1d9c00
00f000
000000
000000
ENDCHAR
STARTCHAR 2471
ENCODING 9329
SWIDTH 1000 0
DWIDTH 18 0
BBX 18 18 0 -2
BITMAP
000000
000000
0df000
076000
00c000
018000
03f800
070c00
0c0c00
19cc00
019800
03f000
060000
0f3c00
19e600
30c300
000000
000000
ENDCHAR
STARTCHAR 2472
ENCODING 9330
SWIDTH 1000 0
DWIDTH 18 0
BBX 18 18 0 -2
BITMAP
000000
000000
018000
01b000
31e000
1f8000
060600
0dc600
0f7c00
187000
31e000
036000
066000
060000
060c00
03f800
000000
000000
ENDCHAR
STARTCHAR 2473
ENCODING 9331
SWIDTH 1000 0
DWIDTH 18 0
BBX 18 18 0 -2
BITMAP
000000
000000
018000
00c000
018000
018000
030000
030000
060000
07c000
0f6000
0c6300
186300
186600
306600
303c00
000000
000000
ENDCHAR
STARTCHAR 2521
ENCODING 9505
SWIDTH 1000 0
DWIDTH 18 0
BBX 18 18 0 -2
BITMAP
000000
000000
000000
000000
000000
000000
7ff800
001800
003000
03e000
038000
030000
030000
030000
060000
1c0000
000000
000000
ENDCHAR
STARTCHAR 2522
ENCODING 9506
SWIDTH 1000 0
DWIDTH 18 0
BBX 18 18 0 -2
BITMAP
000000
000000
000000
7fff00
000300
000300
00c600
00cc00
00f800
00e000
00c000
00c000
018000
018000
070000
1c0000
000000
000000
ENDCHAR
STARTCHAR 2523
ENCODING 9507
SWIDTH 1000 0
DWIDTH 18 0
BBX 18 18 0 -2
BITMAP
000000
000000
000000
000000
000000
001800
001800
003000
003000
006000
01c000
07c000
3cc000
00c000
00c000
00c000
000000
000000
ENDCHAR
STARTCHAR 2524
ENCODING 9508
SWIDTH 1000 0
DWIDTH 18 0
BBX 18 18 0 -2
BITMAP
000000
000000
000600
000600
000c00
000c00
001800
003000
00e000
07e000
3c6000
006000
006000
006000
006000
006000
000000
000000
ENDCHAR
STARTCHAR 2525
ENCODING 9509
SWIDTH 1000 0
DWIDTH 18 0
BBX 18 18 0 -2
BITMAP
000000
000000
000000
000000
000000
018000
018000
1ff800
181800
181800
181800
003000
003000
006000
01c000
070000
000000
000000
ENDCHAR
STARTCHAR 2526
ENCODING 9510
SWIDTH 1000 0
DWIDTH 18 0
BBX 18 18 0 -2
BITMAP
000000
000000
00c000
00c000
1ffe00
180600
180600
180600
180600
180600
000c00
000c00
001800
003000
00e000
038000
000000
000000
ENDCHAR
STARTCHAR 2527
ENCODING 9511
SWIDTH 1000 0
DWIDTH 18 0
BBX 18 18 0 -2
BITMAP
000000
000000
000000
000000
000000
000000
000000
1fe000
030000
030000
030000
030000
030000
030000
3ff000
000000
000000
000000
ENDCHAR
STARTCHAR 2528
ENCODING 9512
SWIDTH 1000 0
DWIDTH 18 0
BBX 18 18 0 -2
BITMAP
000000
000000
000000
000000
1ffe00
00c000
00c000
00c000
00c000
00c000
00c000
00c000
00c000
00c000
3fff00
000000
000000
000000
ENDCHAR
STARTCHAR 2529
ENCODING 9513
SWIDTH 1000 0
DWIDTH 18 0
BBX 18 18 0 -2
BITMAP
000000
000000
000000
000000
000000
00c000
00c000
3ff800
00c000
01c000
03c000
06c000
0cc000
18c000
30c000
01c000
000000
000000
ENDCHAR
STARTCHAR 252a
ENCODING 9514
SWIDTH 1000 0
DWIDTH 18 0
BBX 18 18 0 -2
BITMAP
000000
000000
003000
003000
003000
3fff00
003000
007000
00f000
00f000
01b000
033000
0e3000
383000
003000
00f000
000000
000000
ENDCHAR
STARTCHAR 252b
ENCODING 9515
SWIDTH 1000 0
DWIDTH 18 0
BBX 18 18 0 -2
BITMAP
000000
000000
018000
018000
018000
3ffe00
018600
018600
018600
030600
030600
030e00
060c00
060c00
0c0c00
387800
000000
000000
ENDCHAR
STARTCHAR 252c
ENCODING 9516
SWIDTH 1000 0
DWIDTH 18 0
BBX 18 18 0 -2
BITMAP
000000
000180
018cc0
018600
018000
3ffe00
018600
018600
018600
030600
030600
030600
060c00
060c00
0c0c00
387800
000000
000000
ENDCHAR
STARTCHAR 252d
ENCODING 9517
SWIDTH 1000 0
DWIDTH 18 0
BBX 18 18 0 -2
BITMAP
000000
000000
018000
018000
018000
1ffe00
00c000
00c000
00c000
00c000
3fff00
006000
006000
006000
006000
006000
000000
000000
ENDCHAR
STARTCHAR 252e
ENCODING 9518
SWIDTH 1000 0
DWIDTH 18 0
BBX 18 18 0 -2
BITMAP
000000
000300
018d80
018600
018000
1ffe00
00c000
00c000
00c000
00c000
3fff00
006000
006000
006000
006000
006000
000000
000000
ENDCHAR
STARTCHAR 252f
ENCODING 9519
SWIDTH 1000 0
DWIDTH 18 0
BBX 18 18 0 -2
BITMAP
000000
000000
000000
018000
01fe00
030600
030600
060600
1c0c00
000c00
001800
001800
003000
006000
01c000
0f0000
000000
000000
ENDCHAR
STARTCHAR 2530
ENCODING 9520
SWIDTH 1000 0
DWIDTH 18 0
BBX 18 18 0 -2
BITMAP
000000
000d80
0006c0
018000
01fe00
030600
030600
060600
1c0c00
000c00
001800
001800
003000
006000
01c000
0f0000
000000
000000
ENDCHAR
STARTCHAR 2531
ENCODING 9521
SWIDTH 1000 0
DWIDTH 18 0
BBX 18 18 0 -2
BITMAP
000000
000000
060000
060000
060000
07ff00
0c3000
0c3000
183000
303000
003000
006000
006000
00c000
038000
0e0000
000000
000000
ENDCHAR
STARTCHAR 2532
ENCODING 9522
SWIDTH 1000 0
DWIDTH 18 0
BBX 18 18 0 -2
BITMAP
000000
000180
060cc0
060600
060000
07ff00
0c3000
0c3000
183000
303000
003000
006000
006000
00c000
038000
0e0000
000000
000000
ENDCHAR
STARTCHAR 2533
ENCODING 9523
SWIDTH 1000 0
DWIDTH 18 0
BBX 18 18 0 -2
BITMAP
000000
000000
000000
000000
1ffe00
000600
000600
000600
000600
000600
000600
000600
000600
000600
1ffe00
000000
000000
000000
ENDCHAR
STARTCHAR 2534
ENCODING 9524
SWIDTH 1000 0
DWIDTH 18 0
BBX 18 18 0 -2
BITMAP
000000
001b00
000d80
000000
1ffe00
000600
000600
000600
000600
000600
000600
000600
000600
000600
1ffe00
000000
000000
000000
ENDCHAR
STARTCHAR 2535
ENCODING 9525
SWIDTH 1000 0
DWIDTH 18 0
BBX 18 18 0 -2
BITMAP
000000
000000
060c00
060c00
060c00
060c00
3fff00
060c00
060c00
060c00
060c00
001800
001800
003000
00e000
078000
000000
000000
ENDCHAR
STARTCHAR 2536
ENCODING 9526
SWIDTH 1000 0
DWIDTH 18 0
BBX 18 18 0 -2
BITMAP
000000
000180
0c18c0
0c1b00
0c1980
0c1800
7ffe00
0c1800
0c1800
0c1800
0c1800
003000
003000
006000
01c000
0f0000
000000
000000
ENDCHAR
STARTCHAR 2537
ENCODING 9527
SWIDTH 1000 0
DWIDTH 18 0
BBX 18 18 0 -2
BITMAP
000000
000000
1e0000
038000
000000
000300
000300
1e0300
038600
000600
000600
000c00
001800
007000
01c000
1f0000
000000
000000
ENDCHAR
STARTCHAR 2538
ENCODING 9528
SWIDTH 1000 0
DWIDTH 18 0
BBX 18 18 0 -2
BITMAP
000000
000300
000180
1e0c00
038600
000000
000300
1e0300
038300
000600
000600
000c00
001800
007000
01c000
1f0000
000000
000000
ENDCHAR
STARTCHAR 2539
ENCODING 9529
SWIDTH 1000 0
DWIDTH 18 0
BBX 18 18 0 -2
BITMAP
000000
000000
000000
1ffc00
000c00
000c00
001800
001800
003000
003000
006000
00f000
019800
030c00
0e0600
380300
000000
000000
ENDCHAR
STARTCHAR 253a
ENCODING 9530
SWIDTH 1000 0
DWIDTH 18 0
BBX 18 18 0 -2
BITMAP
000000
000d80
0006c0
3ff800
001800
001800
003000
003000
006000
006000
00c000
01e000
033000
061800
1c0c00
700600
000000
000000
ENDCHAR
STARTCHAR 253b
ENCODING 9531
SWIDTH 1000 0
DWIDTH 18 0
BBX 18 18 0 -2
BITMAP
000000
000000
060000
060000
060000
067f00
3fc300
060600
060c00
061800
063000
060000
060000
030000
01fe00
000000
000000
000000
ENDCHAR
STARTCHAR 253c
ENCODING 9532
SWIDTH 1000 0
DWIDTH 18 0
BBX 18 18 0 -2
BITMAP
000000
000300
060d80
060600
060000
067f00
3fc300
060600
060c00
061800
063000
060000
060000
030000
01fe00
000000
000000
000000
ENDCHAR
STARTCHAR 253d
ENCODING 9533
SWIDTH 1000 0
DWIDTH 18 0
BBX 18 18 0 -2
BITMAP
000000
000000
000000
300600
180600
0c0600
0c0600
060600
000c00
000c00
001800
001800
003000
006000
01c000
0f0000
000000
000000
ENDCHAR
STARTCHAR 253e
ENCODING 9534
SWIDTH 1000 0
DWIDTH 18 0
BBX 18 18 0 -2
BITMAP
000000
001b00
000d80
300000
180600
0c0600
0c0600
060600
000c00
000c00
001800
001800
003000
006000
01c000
0f0000
000000
000000
ENDCHAR
STARTCHAR 253f
ENCODING 9535
SWIDTH 1000 0
DWIDTH 18 0
BBX 18 18 0 -2
BITMAP
000000
000000
000000
018000
01fe00
030600
030600
070600
1dcc00
007c00
001800
001800
003000
006000
01c000
0f0000
000000
000000
ENDCHAR
STARTCHAR 2540
ENCODING 9536
SWIDTH 1000 0
DWIDTH 18 0
BBX 18 18 0 -2
BITMAP
000000
000d80
0006c0
018000
01fe00
030600
030600
070600
1dcc00
007c00
001800
001800
003000
006000
01c000
0f0000
000000
000000
ENDCHAR
STARTCHAR 2541
ENCODING 9537
SWIDTH 1000 0
DWIDTH 18 0
BBX 18 18 0 -2
BITMAP
000000
000000
000c00
007800
0fc000
00c000
00c000
00c000
3fff00
00c000
00c000
00c000
018000
018000
030000
1e0000
000000
000000
ENDCHAR
STARTCHAR 2542
ENCODING 9538
SWIDTH 1000 0
DWIDTH 18 0
BBX 18 18 0 -2
BITMAP
000000
000000
000d80
0078c0
0fc600
00c300
00c000
00c000
3fff00
00c000
00c000
00c000
018000
018000
030000
1e0000
000000
000000
ENDCHAR
STARTCHAR 2543
ENCODING 9539
SWIDTH 1000 0
DWIDTH 18 0
BBX 18 18 0 -2
BITMAP
000000
000000
000000
000000
000000
000000
061800
361800
331800
1b1800
181800
003000
003000
006000
01c000
0f0000
000000
000000
ENDCHAR
STARTCHAR 2544
ENCODING 9540
SWIDTH 1000 0
DWIDTH 18 0
BBX 18 18 0 -2
BITMAP
000000
000000
000000
030000
318600
198600
18c600
0cc600
0c0600
000600
000c00
000c00
001800
003000
00e000
078000
000000
000000
ENDCHAR
STARTCHAR 2545
ENCODING 9541
SWIDTH 1000 0
DWIDTH 18 0
BBX 18 18 0 -2
BITMAP
000000
000300
001980
030c00
318000
198600
18c600
0cc600
0c0600
000600
000c00
000c00
001800
003000
00e000
078000
000000
000000
ENDCHAR
STARTCHAR 2546
ENCODING 9542
SWIDTH 1000 0
DWIDTH 18 0
BBX 18 18 0 -2
BITMAP
000000
000000
000000
1ffe00
000000
000000
000000
3fff00
00c000
00c000
00c000
00c000
018000
018000
030000
1e0000
000000
000000
ENDCHAR
STARTCHAR 2547
ENCODING 9543
SWIDTH 1000 0
DWIDTH 18 0
BBX 18 18 0 -2
BITMAP
000000
000d80
0006c0
3ffe00
000000
000000
000000
7ffe00
018000
018000
018000
018000
030000
030000
060000
3c0000
000000
000000
ENDCHAR
STARTCHAR 2548
ENCODING 9544
SWIDTH 1000 0
DWIDTH 18 0
BBX 18 18 0 -2
BITMAP
000000
000000
060000
060000
060000
060000
060000
070000
07c000
067000
061800
060000
060000
060000
060000
060000
000000
000000
ENDCHAR
STARTCHAR 2549
ENCODING 9545
SWIDTH 1000 0
DWIDTH 18 0
BBX 18 18 0 -2
BITMAP
000000
000000
060c00
060600
063000
061800
060000
070000
07c000
067000
061800
060000
060000
060000
060000
060000
000000
000000
ENDCHAR
STARTCHAR 254a
ENCODING 9546
SWIDTH 1000 0
DWIDTH 18 0
BBX 18 18 0 -2
BITMAP
000000
000000
006000
006000
006000
006000
3fff00
006000
006000
006000
00c000
00c000
00c000
018000
070000
1c0000
000000
000000
ENDCHAR
STARTCHAR 254b
ENCODING 9547
SWIDTH 1000 0
DWIDTH 18 0
BBX 18 18 0 -2
BITMAP
000000
000000
000000
000000
0ffc00
000000
000000
000000
000000
000000
000000
000000
000000
3fff00
000000
000000
000000
000000
ENDCHAR
STARTCHAR 254c
ENCODING 9548
SWIDTH 1000 0
DWIDTH 18 0
BBX 18 18 0 -2
BITMAP
000000
000000
000000
1ffc00
000c00
000c00
000c00
001800
0e1800
03b000
00f000
006000
00f800
038c00
0e0600
380000
000000
000000
ENDCHAR
STARTCHAR 254d
ENCODING 9549
SWIDTH 1000 0
DWIDTH 18 0
BBX 18 18 0 -2
BITMAP
000000
000000
038000
00e000
000000
1ffc00
000c00
001800
003000
006000
01f800
07ce00
3cc300
00c000
00c000
00c000
000000
000000
ENDCHAR
STARTCHAR 254e
ENCODING 9550
SWIDTH 1000 0
DWIDTH 18 0
BBX 18 18 0 -2
BITMAP
000000
000000
000000
000c00
000c00
000c00
000c00
001800
001800
003000
003000
006000
00c000
018000
070000
1c0000
000000
000000
ENDCHAR
STARTCHAR 254f
ENCODING 9551
SWIDTH 1000 0
DWIDTH 18 0
BBX 18 18 0 -2
BITMAP
000000
000000
000000
006000
063000
061800
061800
060c00
0c0c00
0c0600
0c0600
180600
180300
300300
600300
000000
000000
000000
ENDCHAR
STARTCHAR 2550
ENCODING 9552
SWIDTH 1000 0
DWIDTH 18 0
BBX 18 18 0 -2
BITMAP
000000
000180
0006c0
006300
063000
061800
061800
060c00
0c0c00
0c0600
0c0600
180600
180300
300300
600300
000000
000000
000000
ENDCHAR
STARTCHAR 2551
ENCODING 9553
SWIDTH 1000 0
DWIDTH 18 0
BBX 18 18 0 -2
BITMAP
000000
000380
0006c0
0066c0
063380
061800
061800
060c00
0c0c00
0c0600
0c0600
180600
180300
300300
600300
000000
000000
000000
ENDCHAR
STARTCHAR 2552
ENCODING 9554
SWIDTH 1000 0
DWIDTH 18 0
BBX 18 18 0 -2
BITMAP
000000
000000
180000
180000
180c00
183800
19e000
1f0000
180000
180000
180000
180000
180000
0c0000
07fe00
000000
000000
000000
ENDCHAR
STARTCHAR 2553
ENCODING 9555
SWIDTH 1000 0
DWIDTH 18 0
BBX 18 18 0 -2
BITMAP
000000
000180
1800c0
180600
180300
180000
18f800
1f8000
180000
180000
180000
180000
180000
0c0000
07fe00
000000
000000
000000
ENDCHAR
STARTCHAR 2554
ENCODING 9556
SWIDTH 1000 0
DWIDTH 18 0
BBX 18 18 0 -2
BITMAP
000000
000380
1806c0
1806c0
180380
183800
19e000
1f0000
180000
180000
180000
180000
180000
0c0000
07fe00
000000
000000
000000
ENDCHAR
STARTCHAR 2555
ENCODING 9557
SWIDTH 1000 0
DWIDTH 18 0
BBX 18 18 0 -2
BITMAP
000000
000000
000000
000000
3ffe00
000600
000600
000600
000c00
000c00
001800
001800
003000
00e000
038000
1e0000
000000
000000
ENDCHAR
STARTCHAR 2556
ENCODING 9558
SWIDTH 1000 0
DWIDTH 18 0
BBX 18 18 0 -2
BITMAP
000000
000d80
0006c0
000000
3ffe00
000600
000600
000600
000c00
000c00
001800
001800
003000
00e000
038000
1e0000
000000
000000
ENDCHAR
STARTCHAR 2557
ENCODING 9559
SWIDTH 1000 0
DWIDTH 18 0
BBX 18 18 0 -2
BITMAP
000000
000380
0006c0
0006c0
3fff80
000600
000600
000600
000c00
000c00
001800
001800
003000
00e000
038000
1e0000
000000
000000
ENDCHAR
STARTCHAR 2558
ENCODING 9560
SWIDTH 1000 0
DWIDTH 18 0
BBX 18 18 0 -2
BITMAP
000000
000000
000000
000000
000000
070000
0d8000
18c000
306000
603000
001800
000c00
000600
000300
000180
000000
000000
000000
ENDCHAR
STARTCHAR 2559
ENCODING 9561
SWIDTH 1000 0
DWIDTH 18 0
BBX 18 18 0 -2
BITMAP
000000
000000
000000
000c00
000600
073000
0d9800
18c000
306000
603000
001800
000c00
000600
000300
000180
000000
000000
000000
ENDCHAR
STARTCHAR 255a
ENCODING 9562
SWIDTH 1000 0
DWIDTH 18 0
BBX 18 18 0 -2
BITMAP
000000
000000
000000
001c00
003600
073600
0d9c00
18c000
306000
603000
001800
000c00
000600
000300
000180
000000
000000
000000
ENDCHAR
STARTCHAR 255b
ENCODING 9563
SWIDTH 1000 0
DWIDTH 18 0
BBX 18 18 0 -2
BITMAP
000000
000000
00c000
00c000
00c000
3fff00
00c000
00c000
00c000
06d800
06d800
0ccc00
18c600
18c600
30c300
00c000
000000
000000
ENDCHAR
STARTCHAR 255c
ENCODING 9564
SWIDTH 1000 0
DWIDTH 18 0
BBX 18 18 0 -2
BITMAP
000000
000300
00d980
00cc00
00c000
3fff00
00c000
00c000
00c000
06d800
06d800
0ccc00
18c600
18c600
30c300
00c000
000000
000000
ENDCHAR
STARTCHAR 255d
ENCODING 9565
SWIDTH 1000 0
DWIDTH 18 0
BBX 18 18 0 -2
BITMAP
000000
000000
00c380
00c6c0
00c6c0
3fff80
00c000
00c000
00c000
06d800
06d800
0ccc00
18c600
18c600
30c300
00c000
000000
000000
ENDCHAR
STARTCHAR 255e
ENCODING 9566
SWIDTH 1000 0
DWIDTH 18 0
BBX 18 18 0 -2
BITMAP
000000
000000
000000
3fff00
000300
000300
000600
000600
000c00
0e1800
03f000
00c000
006000
003000
001800
000000
000000
000000
ENDCHAR
STARTCHAR 255f
ENCODING 9567
SWIDTH 1000 0
DWIDTH 18 0
BBX 18 18 0 -2
BITMAP
000000
000000
0fc000
007800
000c00
000000
000000
0f8000
00f000
001800
000000
000000
1f8000
00f000
001c00
000600
000000
000000
ENDCHAR
STARTCHAR 2560
ENCODING 9568
SWIDTH 1000 0
DWIDTH 18 0
BBX 18 18 0 -2
BITMAP
000000
000000
00c000
00c000
00c000
018000
018000
018000
033000
031800
060c00
060c00
0c0e00
0c7e00
3fc300
000300
000000
000000
ENDCHAR
STARTCHAR 2561
ENCODING 9569
SWIDTH 1000 0
DWIDTH 18 0
BBX 18 18 0 -2
BITMAP
000000
000000
000c00
000c00
000c00
000c00
071800
01d800
007000
003000
007800
00cc00
018600
030000
0e0000
000000
000000
000000
ENDCHAR
STARTCHAR 2562
ENCODING 9570
SWIDTH 1000 0
DWIDTH 18 0
BBX 18 18 0 -2
BITMAP
000000
000000
000000
3ffe00
030000
030000
030000
030000
7fff00
030000
030000
030000
030000
030000
01fe00
000000
000000
000000
ENDCHAR
STARTCHAR 2563
ENCODING 9571
SWIDTH 1000 0
DWIDTH 18 0
BBX 18 18 0 -2
BITMAP
000000
000000
000000
000000
000000
060000
060000
060000
07f800
3f1800
063000
066000
030000
030000
030000
030000
000000
000000
ENDCHAR
STARTCHAR 2564
ENCODING 9572
SWIDTH 1000 0
DWIDTH 18 0
BBX 18 18 0 -2
BITMAP
000000
000000
060000
060000
060000
063f00
07e300
7f0600
030c00
031800
033000
018000
018000
018000
018000
018000
000000
000000
ENDCHAR
STARTCHAR 2565
ENCODING 9573
SWIDTH 1000 0
DWIDTH 18 0
BBX 18 18 0 -2
BITMAP
000000
000000
000000
000000
000000
000000
000000
1fc000
00c000
00c000
00c000
00c000
00c000
00c000
3ff800
000000
000000
000000
ENDCHAR
STARTCHAR 2566
ENCODING 9574
SWIDTH 1000 0
DWIDTH 18 0
BBX 18 18 0 -2
BITMAP
000000
000000
000000
1ff800
001800
001800
001800
001800
001800
001800
001800
001800
001800
001800
3fff00
000000
000000
000000
ENDCHAR
STARTCHAR 2567
ENCODING 9575
SWIDTH 1000 0
DWIDTH 18 0
BBX 18 18 0 -2
BITMAP
000000
000000
000000
000000
000000
000000
1ff000
003000
003000
003000
0ff000
003000
003000
003000
1ff000
000000
000000
000000
ENDCHAR
STARTCHAR 2568
ENCODING 9576
SWIDTH 1000 0
DWIDTH 18 0
BBX 18 18 0 -2
BITMAP
000000
000000
000000
1ffe00
000600
000600
000600
000600
0ffe00
000600
000600
000600
000600
000600
1ffe00
000000
000000
000000
ENDCHAR
STARTCHAR 2569
ENCODING 9577
SWIDTH 1000 0
DWIDTH 18 0
BBX 18 18 0 -2
BITMAP
000000
000000
000000
1ffe00
000000
000000
000000
3fff00
000300
000300
000600
000600
000c00
003800
00e000
078000
000000
000000
ENDCHAR
STARTCHAR 256a
ENCODING 9578
SWIDTH 1000 0
DWIDTH 18 0
BBX 18 18 0 -2
BITMAP
000000
000000
000c00
0c0c00
0c0c00
0c0c00
0c0c00
0c0c00
0c0c00
0c0c00
0c0c00
001800
001800
003000
00e000
078000
000000
000000
ENDCHAR
STARTCHAR 256b
ENCODING 9579
SWIDTH 1000 0
DWIDTH 18 0
BBX 18 18 0 -2
BITMAP
000000
000000
000000
003000
063000
063000
063000
063180
063180
063180
063300
0c3300
0c3600
183c00
301800
600000
000000
000000
ENDCHAR
STARTCHAR 256c
ENCODING 9580
SWIDTH 1000 0
DWIDTH 18 0
BBX 18 18 0 -2
BITMAP
000000
000000
0c0000
0c0000
0c0000
0c0000
0c0000
0c0300
0c0300
0c0600
0c0600
0c0c00
0c1800
0c3000
0ce000
0f8000
000000
000000
ENDCHAR
STARTCHAR 256d
ENCODING 9581
SWIDTH 1000 0
DWIDTH 18 0
BBX 18 18 0 -2
BITMAP
000000
000000
000000
000000
1ffe00
180600
180600
180600
180600
180600
180600
180600
180600
180600
1ffe00
000000
000000
000000
ENDCHAR
STARTCHAR 256e
ENCODING 9582
SWIDTH 1000 0
DWIDTH 18 0
BBX 18 18 0 -2
BITMAP
000000
000000
000000
000000
000000
000000
1ff800
181800
181800
181800
001800
003000
003000
006000
01c000
070000
000000
000000
ENDCHAR
STARTCHAR 256f
ENCODING 9583
SWIDTH 1000 0
DWIDTH 18 0
BBX 18 18 0 -2
BITMAP
000000
000000
000000
1ffe00
180600
180600
180600
180600
180600
000600
000c00
000c00
001800
003000
00e000
078000
000000
000000
ENDCHAR
STARTCHAR 2570
ENCODING 9584
SWIDTH 1000 0
DWIDTH 18 0
BBX 18 18 0 -2
BITMAP
000000
000000
003000
003000
003000
3fff00
063000
063000
063000
063000
063000
3fff00
003000
003000
003000
003000
000000
000000
ENDCHAR
STARTCHAR 2571
ENCODING 9585
SWIDTH 1000 0
DWIDTH 18 0
BBX 18 18 0 -2
BITMAP
000000
000000
000000
000000
1ffe00
000600
000600
00cc00
00f800
00e000
00c000
00c000
00c000
00c000
3fff00
000000
000000
000000
ENDCHAR
STARTCHAR 2572
ENCODING 9586
SWIDTH 1000 0
DWIDTH 18 0
BBX 18 18 0 -2
BITMAP
000000
000000
000000
1ffe00
000600
000600
000600
0ffe00
000600
000600
000c00
000c00
001800
003000
01e000
0f0000
000000
000000
ENDCHAR
STARTCHAR 2573
ENCODING 9587
SWIDTH 1000 0
DWIDTH 18 0
BBX 18 18 0 -2
BITMAP
000000
000000
000000
1c0000
070000
018000
000300
000300
000300
000600
000600
000c00
001800
007000
01c000
0f0000
000000
000000
ENDCHAR
STARTCHAR 2574
ENCODING 9588
SWIDTH 1000 0
DWIDTH 18 0
BBX 18 18 0 -2
BITMAP
000000
000d80
00c6c0
00c000
1ffe00
180600
180600
180600
180600
180600
000c00
000c00
001800
003000
00e000
038000
000000
000000
ENDCHAR
STARTCHAR 2575
ENCODING 9589
SWIDTH 1000 0
DWIDTH 18 0
BBX 18 18 0 -2
BITMAP
000000
000000
000000
000000
000000
030000
030000
3ff000
033000
033000
033000
063000
063000
0c6000
186000
31c000
000000
000000
ENDCHAR
STARTCHAR 2576
ENCODING 9590
SWIDTH 1000 0
DWIDTH 18 0
BBX 18 18 0 -2
BITMAP
000000
000000
000000
000000
000000
0c0000
0c0000
0ff800
18c000
18c000
30c000
00c000
018000
018000
030000
0e0000
000000
000000
ENDCHAR
STARTCHAR 2621
ENCODING 9761
SWIDTH 1000 0
DWIDTH 18 0
BBX 18 18 0 -2
BITMAP
000000
000000
006000
006000
00f000
00f000
019800
019800
030c00
030c00
07fe00
060600
0c0300
0c0300
1e0780
000000
000000
000000
ENDCHAR
STARTCHAR 2622
ENCODING 9762
SWIDTH 1000 0
DWIDTH 18 0
BBX 18 18 0 -2
BITMAP
000000
000000
0ff800
060e00
060300
060300
060300
060e00
07f800
060e00
060300
060300
060300
060e00
0ff800
000000
000000
000000
ENDCHAR
STARTCHAR 2623
ENCODING 9763
SWIDTH 1000 0
DWIDTH 18 0
BBX 18 18 0 -2
BITMAP
000000
000000
0fff00
060300
060300
060000
060000
060000
060000
060000
060000
060000
060000
060000
0f0000
000000
000000
000000
ENDCHAR
STARTCHAR 2624
ENCODING 9764
SWIDTH 1000 0
DWIDTH 18 0
BBX 18 18 0 -2
BITMAP
000000
000000
006000
006000
00f000
00f000
019800
019800
030c00
030c00
060600
060600
0c0300
0c0300
1fff80
000000
000000
000000
ENDCHAR
STARTCHAR 2625
ENCODING 9765
SWIDTH 1000 0
DWIDTH 18 0
BBX 18 18 0 -2
BITMAP
000000
000000
0ffe00
060600
060600
060000
060000
061800
07f800
061800
060000
060000
060600
060600
0ffe00
000000
000000
000000
ENDCHAR
STARTCHAR 2626
ENCODING 9766
SWIDTH 1000 0
DWIDTH 18 0
BBX 18 18 0 -2
BITMAP
000000
000000
0fff00
0c0600
0c0c00
001800
001800
003000
006000
00c000
018000
018000
030300
060300
0fff00
000000
000000
000000
ENDCHAR
STARTCHAR 2627
ENCODING 9767
SWIDTH 1000 0
DWIDTH 18 0
BBX 18 18 0 -2
BITMAP
000000
000000
0f0f00
060600
060600
060600
060600
060600
07fe00
060600
060600
060600
060600
060600
0f0f00
000000
000000
000000
ENDCHAR
STARTCHAR 2628
ENCODING 9768
SWIDTH 1000 0
DWIDTH 18 0
BBX 18 18 0 -2
BITMAP
000000
000000
01f800
070e00
0c0300
0c0300
1b0d80
1b0d80
1bfd80
1b0d80
1b0d80
0c0300
0c0300
070e00
01f800
000000
000000
000000
ENDCHAR
STARTCHAR 2629
ENCODING 9769
SWIDTH 1000 0
DWIDTH 18 0
BBX 18 18 0 -2
BITMAP
000000
000000
00f000
006000
006000
006000
006000
006000
006000
006000
006000
006000
006000
006000
00f000
000000
000000
000000
ENDCHAR
STARTCHAR 262a
ENCODING 9770
SWIDTH 1000 0
DWIDTH 18 0
BBX 18 18 0 -2
BITMAP
000000
000000
0f0f00
060c00
061800
063000
066000
06c000
07e000
073000
063000
061800
061800
060c00
0f0f00
000000
000000
000000
ENDCHAR
STARTCHAR 262b
ENCODING 9771
SWIDTH 1000 0
DWIDTH 18 0
BBX 18 18 0 -2
BITMAP
000000
000000
006000
006000
00f000
00f000
019800
019800
030c00
030c00
060600
060600
0c0300
0c0300
1e0780
000000
000000
000000
ENDCHAR
STARTCHAR 262c
ENCODING 9772
SWIDTH 1000 0
DWIDTH 18 0
BBX 18 18 0 -2
BITMAP
000000
000000
3c03c0
1e0780
1e0780
1b0d80
1b0d80
1b0d80
199980
199980
199980
18f180
18f180
186180
3c63c0
000000
000000
000000
ENDCHAR
STARTCHAR 262d
ENCODING 9773
SWIDTH 1000 0
DWIDTH 18 0
BBX 18 18 0 -2
BITMAP
000000
000000
1e0780
0f0300
0d8300
0d8300
0cc300
0c6300
0c6300
0c3300
0c1b00
0c1b00
0c0f00
0c0700
1e0700
000000
000000
000000
ENDCHAR
STARTCHAR 262e
ENCODING 9774
SWIDTH 1000 0
DWIDTH 18 0
BBX 18 18 0 -2
BITMAP
000000
000000
0fff00
0c0300
0c0300
000000
000000
0c0300
0fff00
0c0300
000000
000000
0c0300
0c0300
0fff00
000000
000000
000000
ENDCHAR
STARTCHAR 262f
ENCODING 9775
SWIDTH 1000 0
DWIDTH 18 0
BBX 18 18 0 -2
BITMAP
000000
000000
01f800
070e00
0c0300
0c0300
180180
180180
180180
180180
180180
180180
0c0300
0c0300
070e00
01f800
000000
000000
ENDCHAR
STARTCHAR 2630
ENCODING 9776
SWIDTH 1000 0
DWIDTH 18 0
BBX 18 18 0 -2
BITMAP
000000
000000
0fff00
060600
060600
060600
060600
060600
060600
060600
060600
060600
060600
060600
0f0f00
000000
000000
000000
ENDCHAR
STARTCHAR 2631
ENCODING 9777
SWIDTH 1000 0
DWIDTH 18 0
BBX 18 18 0 -2
BITMAP
000000
000000
0ff800
060e00
060300
060300
060300
060e00
07f800
060000
060000
060000
060000
060000
0f0000
000000
000000
000000
ENDCHAR
STARTCHAR 2632
ENCODING 9778
SWIDTH 1000 0
DWIDTH 18 0
BBX 18 18 0 -2
BITMAP
000000
000000
0fff00
060300
030300
018000
00c000
006000
003000
006000
00c000
018000
030300
060300
0fff00
000000
000000
000000
ENDCHAR
STARTCHAR 2633
ENCODING 9779
SWIDTH 1000 0
DWIDTH 18 0
BBX 18 18 0 -2
BITMAP
000000
000000
1fff80
186180
186180
006000
006000
006000
006000
006000
006000
006000
006000
006000
00f000
000000
000000
000000
ENDCHAR
STARTCHAR 2634
ENCODING 9780
SWIDTH 1000 0
DWIDTH 18 0
BBX 18 18 0 -2
BITMAP
000000
000000
0f9e00
00f300
006180
006000
006000
006000
006000
006000
006000
006000
006000
006000
00f000
000000
000000
000000
ENDCHAR
STARTCHAR 2635
ENCODING 9781
SWIDTH 1000 0
DWIDTH 18 0
BBX 18 18 0 -2
BITMAP
000000
000000
00f000
006000
07fe00
0c6300
186180
186180
186180
186180
186180
0c6300
07fe00
006000
00f000
000000
000000
000000
ENDCHAR
STARTCHAR 2636
ENCODING 9782
SWIDTH 1000 0
DWIDTH 18 0
BBX 18 18 0 -2
BITMAP
000000
000000
1e0780
060600
030c00
019800
019800
00f000
006000
00f000
019800
019800
030c00
060600
1e0780
000000
000000
000000
ENDCHAR
STARTCHAR 2637
ENCODING 9783
SWIDTH 1000 0
DWIDTH 18 0
BBX 18 18 0 -2
BITMAP
000000
000000
1cf380
3666c0
066600
066600
066600
066600
066600
066600
036c00
01f800
006000
006000
00f000
000000
000000
000000
ENDCHAR
STARTCHAR 2638
ENCODING 9784
SWIDTH 1000 0
DWIDTH 18 0
BBX 18 18 0 -2
BITMAP
000000
000000
01f800
070e00
0c0300
0c0300
180180
180180
180180
180180
0c0300
0c0300
070e00
199980
1f9f80
000000
000000
000000
ENDCHAR
STARTCHAR 2641
ENCODING 9793
SWIDTH 1000 0
DWIDTH 18 0
BBX 18 18 0 -2
BITMAP
000000
000000
000000
000000
000000
000000
007000
01db00
030f00
060e00
060c00
061c00
063c00
066c00
03c700
000000
000000
000000
ENDCHAR
STARTCHAR 2642
ENCODING 9794
SWIDTH 1000 0
DWIDTH 18 0
BBX 18 18 0 -2
BITMAP
000000
000000
007800
00cc00
018c00
018c00
018c00
018c00
03f800
031800
030c00
030c00
030c00
039800
06f000
060000
060000
000000
ENDCHAR
STARTCHAR 2643
ENCODING 9795
SWIDTH 1000 0
DWIDTH 18 0
BBX 18 18 0 -2
BITMAP
000000
000000
000000
000000
000000
000000
03dc00
067000
006000
006000
00c000
00c000
00c000
00c000
018000
018000
018000
000000
ENDCHAR
STARTCHAR 2644
ENCODING 9796
SWIDTH 1000 0
DWIDTH 18 0
BBX 18 18 0 -2
BITMAP
000000
000000
007800
00cc00
006000
003000
00f800
019800
018c00
030c00
030c00
030c00
031800
031800
01f000
000000
000000
000000
ENDCHAR
STARTCHAR 2645
ENCODING 9797
SWIDTH 1000 0
DWIDTH 18 0
BBX 18 18 0 -2
BITMAP
000000
000000
000000
000000
000000
000000
00f800
018c00
018000
00f000
018000
030000
030c00
031800
01f000
000000
000000
000000
ENDCHAR
STARTCHAR 2646
ENCODING 9798
SWIDTH 1000 0
DWIDTH 18 0
BBX 18 18 0 -2
BITMAP
000000
000000
00c000
01bc00
01e000
00c000
018000
018000
030000
030000
030000
030000
030000
01f800
000c00
000c00
007800
000000
ENDCHAR
STARTCHAR 2647
ENCODING 9799
SWIDTH 1000 0
DWIDTH 18 0
BBX 18 18 0 -2
BITMAP
000000
000000
000000
000000
000000
000000
07bc00
00e600
00c600
00c600
00c600
018c00
018c00
030c00
031800
001800
001800
000000
ENDCHAR
STARTCHAR 2648
ENCODING 9800
SWIDTH 1000 0
DWIDTH 18 0
BBX 18 18 0 -2
BITMAP
000000
000000
007800
00cc00
018c00
018c00
030c00
030c00
03f800
061800
061800
063000
063000
066000
03c000
000000
000000
000000
ENDCHAR
STARTCHAR 2649
ENCODING 9801
SWIDTH 1000 0
DWIDTH 18 0
BBX 18 18 0 -2
BITMAP
000000
000000
000000
000000
000000
000000
003000
003000
006000
006000
00c000
00c000
018000
01b000
00e000
000000
000000
000000
ENDCHAR
STARTCHAR 264a
ENCODING 9802
SWIDTH 1000 0
DWIDTH 18 0
BBX 18 18 0 -2
BITMAP
000000
000000
000000
000000
000000
000000
018e00
01b800
01e000
01c000
01e000
036000
036600
066c00
063800
000000
000000
000000
ENDCHAR
STARTCHAR 264b
ENCODING 9803
SWIDTH 1000 0
DWIDTH 18 0
BBX 18 18 0 -2
BITMAP
000000
000000
00f000
001800
001800
001800
003000
003000
006000
007000
00f000
00f000
01b000
033000
061e00
000000
000000
000000
ENDCHAR
STARTCHAR 264c
ENCODING 9804
SWIDTH 1000 0
DWIDTH 18 0
BBX 18 18 0 -2
BITMAP
000000
000000
000000
000000
000000
000000
00c600
00c600
018600
018c00
018c00
031800
031800
033b00
07ee00
060000
0c0000
000000
ENDCHAR
STARTCHAR 264d
ENCODING 9805
SWIDTH 1000 0
DWIDTH 18 0
BBX 18 18 0 -2
BITMAP
000000
000000
000000
000000
000000
000000
060600
030600
030600
030600
030c00
030c00
031800
037000
07c000
000000
000000
000000
ENDCHAR
STARTCHAR 264e
ENCODING 9806
SWIDTH 1000 0
DWIDTH 18 0
BBX 18 18 0 -2
BITMAP
000000
000000
006000
00c000
00fc00
018000
018000
00c000
00f800
018000
030000
030000
030000
01e000
003000
003000
01e000
000000
ENDCHAR
STARTCHAR 264f
ENCODING 9807
SWIDTH 1000 0
DWIDTH 18 0
BBX 18 18 0 -2
BITMAP
000000
000000
000000
000000
000000
000000
00f800
018c00
018c00
030c00
030c00
030c00
031800
031800
01f000
000000
000000
000000
ENDCHAR
STARTCHAR 2650
ENCODING 9808
SWIDTH 1000 0
DWIDTH 18 0
BBX 18 18 0 -2
BITMAP
000000
000000
000000
000000
000000
000000
03fe00
06d800
00d800
00d800
01b000
01b000
033000
033000
061e00
000000
000000
000000
ENDCHAR
STARTCHAR 2651
ENCODING 9809
SWIDTH 1000 0
DWIDTH 18 0
BBX 18 18 0 -2
BITMAP
000000
000000
000000
000000
000000
000000
00f800
018c00
018c00
030c00
030c00
030c00
031800
031800
07f000
060000
060000
000000
ENDCHAR
STARTCHAR 2652
ENCODING 9810
SWIDTH 1000 0
DWIDTH 18 0
BBX 18 18 0 -2
BITMAP
000000
000000
000000
000000
000000
000000
00ff00
018c00
018c00
030c00
030c00
030c00
031800
031800
01f000
000000
000000
000000
ENDCHAR
STARTCHAR 2653
ENCODING 9811
SWIDTH 1000 0
DWIDTH 18 0
BBX 18 18 0 -2
BITMAP
000000
000000
000000
000000
000000
000000
03fe00
066000
00c000
00c000
00c000
018000
018000
01b000
00e000
000000
000000
000000
ENDCHAR
STARTCHAR 2654
ENCODING 9812
SWIDTH 1000 0
DWIDTH 18 0
BBX 18 18 0 -2
BITMAP
000000
000000
000000
000000
000000
000000
030c00
018c00
018c00
018c00
030c00
031800
031800
033000
01e000
000000
000000
000000
ENDCHAR
STARTCHAR 2655
ENCODING 9813
SWIDTH 1000 0
DWIDTH 18 0
BBX 18 18 0 -2
BITMAP
000000
000000
001800
001800
001800
001800
00fc00
01b600
033300
063300
066300
066300
066600
036c00
01f800
00c000
00c000
000000
ENDCHAR
STARTCHAR 2656
ENCODING 9814
SWIDTH 1000 0
DWIDTH 18 0
BBX 18 18 0 -2
BITMAP
000000
000000
000000
000000
000000
01c000
036c00
006c00
007800
007800
007000
006000
006000
00e000
01e000
01e600
033c00
000000
ENDCHAR
STARTCHAR 2657
ENCODING 9815
SWIDTH 1000 0
DWIDTH 18 0
BBX 18 18 0 -2
BITMAP
000000
000000
003000
003000
003000
003000
076c00
0e6700
066600
0c6600
0cc600
0ccc00
0ccc00
06f800
03e000
018000
018000
000000
ENDCHAR
STARTCHAR 2658
ENCODING 9816
SWIDTH 1000 0
DWIDTH 18 0
BBX 18 18 0 -2
BITMAP
000000
000000
000000
000000
000000
000000
018600
033300
063300
066300
0c6300
0cc600
0cc600
0ccc00
07f800
000000
000000
000000
ENDCHAR
STARTCHAR 2721
ENCODING 10017
SWIDTH 1000 0
DWIDTH 18 0
BBX 18 18 0 -2
BITMAP
000000
000000
006000
006000
00f000
00f000
019800
019800
030c00
030c00
07fe00
060600
0c0300
0c0300
1e0780
000000
000000
000000
ENDCHAR
STARTCHAR 2722
ENCODING 10018
SWIDTH 1000 0
DWIDTH 18 0
BBX 18 18 0 -2
BITMAP
000000
000000
0ffc00
060600
060000
060000
060000
060000
07f800
060e00
060300
060300
060300
060e00
0ff800
000000
000000
000000
ENDCHAR
STARTCHAR 2723
ENCODING 10019
SWIDTH 1000 0
DWIDTH 18 0
BBX 18 18 0 -2
BITMAP
000000
000000
0ff800
060e00
060300
060300
060300
060e00
07f800
060e00
060300
060300
060300
060e00
0ff800
000000
000000
000000
ENDCHAR
STARTCHAR 2724
ENCODING 10020
SWIDTH 1000 0
DWIDTH 18 0
BBX 18 18 0 -2
BITMAP
000000
000000
0ffe00
060300
060000
060000
060000
060000
060000
060000
060000
060000
060000
060000
0f0000
000000
000000
000000
ENDCHAR
STARTCHAR 2725
ENCODING 10021
SWIDTH 1000 0
DWIDTH 18 0
BBX 18 18 0 -2
BITMAP
000000
000000
03ff00
018600
018600
018600
018600
030600
030600
030600
030600
030600
060600
060600
1fff00
180300
000000
000000
ENDCHAR
STARTCHAR 2726
ENCODING 10022
SWIDTH 1000 0
DWIDTH 18 0
BBX 18 18 0 -2
BITMAP
000000
000000
0ffe00
060600
060600
060000
060000
061800
07f800
061800
060000
060000
060600
060600
0ffe00
000000
000000
000000
ENDCHAR
STARTCHAR 2727
ENCODING 10023
SWIDTH 1000 0
DWIDTH 18 0
BBX 18 18 0 -2
BITMAP
000000
03b800
000000
0ffe00
060600
060600
060000
061800
07f800
061800
060000
060000
060600
060600
0ffe00
000000
000000
000000
ENDCHAR
STARTCHAR 2728
ENCODING 10024
SWIDTH 1000 0
DWIDTH 18 0
BBX 18 18 0 -2
BITMAP
000000
000000
1cf380
066600
066600
066600
066600
036c00
01f800
036c00
036c00
066600
066600
0c6300
1ef780
000000
000000
000000
ENDCHAR
STARTCHAR 2729
ENCODING 10025
SWIDTH 1000 0
DWIDTH 18 0
BBX 18 18 0 -2
BITMAP
000000
000000
07f800
0c0e00
000300
000300
000300
000e00
01f800
000e00
000300
000300
000300
0c0e00
07f800
000000
000000
000000
ENDCHAR
STARTCHAR 272a
ENCODING 10026
SWIDTH 1000 0
DWIDTH 18 0
BBX 18 18 0 -2
BITMAP
000000
000000
1e0780
0c0300
0c0700
0c0f00
0c1b00
0c3300
0c6300
0cc300
0d8300
0f0300
0e0300
0c0300
1e0780
000000
000000
000000
ENDCHAR
STARTCHAR 272b
ENCODING 10027
SWIDTH 1000 0
DWIDTH 18 0
BBX 18 18 0 -2
BITMAP
000000
019800
1ef780
0c0300
0c0700
0c0f00
0c1b00
0c3300
0c6300
0cc300
0d8300
0f0300
0e0300
0c0300
1e0780
000000
000000
000000
ENDCHAR
STARTCHAR 272c
ENCODING 10028
SWIDTH 1000 0
DWIDTH 18 0
BBX 18 18 0 -2
BITMAP
000000
000000
0f0e00
061b00
063000
063000
066000
066000
07c000
066000
063000
063000
061800
060c00
0f0700
000000
000000
000000
ENDCHAR
STARTCHAR 272d
ENCODING 10029
SWIDTH 1000 0
DWIDTH 18 0
BBX 18 18 0 -2
BITMAP
000000
000000
03ff00
00c600
00c600
00c600
00c600
018600
018600
018600
018600
030600
030600
1b0600
0e0f00
000000
000000
000000
ENDCHAR
STARTCHAR 272e
ENCODING 10030
SWIDTH 1000 0
DWIDTH 18 0
BBX 18 18 0 -2
BITMAP
000000
000000
3c03c0
1e0780
1e0780
1b0d80
1b0d80
1b0d80
199980
199980
199980
18f180
18f180
186180
3c63c0
000000
000000
000000
ENDCHAR
STARTCHAR 272f
ENCODING 10031
SWIDTH 1000 0
DWIDTH 18 0
BBX 18 18 0 -2
BITMAP
000000
000000
0f0f00
060600
060600
060600
060600
060600
07fe00
060600
060600
060600
060600
060600
0f0f00
000000
000000
000000
ENDCHAR
STARTCHAR 2730
ENCODING 10032
SWIDTH 1000 0
DWIDTH 18 0
BBX 18 18 0 -2
BITMAP
000000
000000
01f800
070e00
0c0300
0c0300
180180
180180
180180
180180
180180
0c0300
0c0300
070e00
01f800
000000
000000
000000
ENDCHAR
STARTCHAR 2731
ENCODING 10033
SWIDTH 1000 0
DWIDTH 18 0
BBX 18 18 0 -2
BITMAP
000000
000000
0fff00
060600
060600
060600
060600
060600
060600
060600
060600
060600
060600
060600
0f0f00
000000
000000
000000
ENDCHAR
STARTCHAR 2732
ENCODING 10034
SWIDTH 1000 0
DWIDTH 18 0
BBX 18 18 0 -2
BITMAP
000000
000000
0ff800
060e00
060300
060300
060300
060e00
07f800
060000
060000
060000
060000
060000
0f0000
000000
000000
000000
ENDCHAR
STARTCHAR 2733
ENCODING 10035
SWIDTH 1000 0
DWIDTH 18 0
BBX 18 18 0 -2
BITMAP
000000
000000
00fc00
038600
060300
060300
0c0000
0c0000
0c0000
0c0000
0c0000
060300
060300
038600
00fc00
000000
000000
000000
ENDCHAR
STARTCHAR 2734
ENCODING 10036
SWIDTH 1000 0
DWIDTH 18 0
BBX 18 18 0 -2
BITMAP
000000
000000
1fff80
186180
186180
006000
006000
006000
006000
006000
006000
006000
006000
006000
00f000
000000
000000
000000
ENDCHAR
STARTCHAR 2735
ENCODING 10037
SWIDTH 1000 0
DWIDTH 18 0
BBX 18 18 0 -2
BITMAP
000000
000000
1e0780
0c0300
0c0300
060600
060600
030c00
030c00
019800
019800
00f000
066000
06c000
038000
000000
000000
000000
ENDCHAR
STARTCHAR 2736
ENCODING 10038
SWIDTH 1000 0
DWIDTH 18 0
BBX 18 18 0 -2
BITMAP
000000
000000
00f000
006000
07fe00
0c6300
186180
186180
186180
186180
186180
0c6300
07fe00
006000
00f000
000000
000000
000000
ENDCHAR
STARTCHAR 2737
ENCODING 10039
SWIDTH 1000 0
DWIDTH 18 0
BBX 18 18 0 -2
BITMAP
000000
000000
1e0780
060600
030c00
019800
019800
00f000
006000
00f000
019800
019800
030c00
060600
1e0780
000000
000000
000000
ENDCHAR
STARTCHAR 2738
ENCODING 10040
SWIDTH 1000 0
DWIDTH 18 0
BBX 18 18 0 -2
BITMAP
000000
000000
0f0f00
060600
060600
060600
060600
060600
060600
060600
060600
060600
060600
060600
0fff00
000180
000000
000000
ENDCHAR
STARTCHAR 2739
ENCODING 10041
SWIDTH 1000 0
DWIDTH 18 0
BBX 18 18 0 -2
BITMAP
000000
000000
1e0f00
0c0600
0c0600
0c0600
0c0600
0c0600
0c0600
070e00
01fe00
000600
000600
000600
000f00
000000
000000
000000
ENDCHAR
STARTCHAR 273a
ENCODING 10042
SWIDTH 1000 0
DWIDTH 18 0
BBX 18 18 0 -2
BITMAP
000000
000000
1ef780
0c6300
0c6300
0c6300
0c6300
0c6300
0c6300
0c6300
0c6300
0c6300
0c6300
0c6300
1fff80
000000
000000
000000
ENDCHAR
STARTCHAR 273b
ENCODING 10043
SWIDTH 1000 0
DWIDTH 18 0
BBX 18 18 0 -2
BITMAP
000000
000000
1ef780
0c6300
0c6300
0c6300
0c6300
0c6300
0c6300
0c6300
0c6300
0c6300
0c6300
0c6300
1fff80
0001c0
000000
000000
ENDCHAR
STARTCHAR 273c
ENCODING 10044
SWIDTH 1000 0
DWIDTH 18 0
BBX 18 18 0 -2
BITMAP
000000
000000
0fe000
0cc000
0cc000
00c000
00c000
00fc00
00c700
00c180
00c180
00c180
00c180
00c700
01fc00
000000
000000
000000
ENDCHAR
STARTCHAR 273d
ENCODING 10045
SWIDTH 1000 0
DWIDTH 18 0
BBX 18 18 0 -2
BITMAP
000000
000000
1e0780
0c0300
0c0300
0c0300
0c0300
0fc300
0c7300
0c1b00
0c1b00
0c1b00
0c1b00
0c7300
1fc780
000000
000000
000000
ENDCHAR
STARTCHAR 273e
ENCODING 10046
SWIDTH 1000 0
DWIDTH 18 0
BBX 18 18 0 -2
BITMAP
000000
000000
0f0000
060000
060000
060000
060000
07f800
060e00
060300
060300
060300
060300
060e00
0ff800
000000
000000
000000
ENDCHAR
STARTCHAR 273f
ENCODING 10047
SWIDTH 1000 0
DWIDTH 18 0
BBX 18 18 0 -2
BITMAP
000000
000000
03f000
061c00
0c0600
000600
000300
00fb00
038f00
000300
000300
000600
0c0600
061c00
03f000
000000
000000
000000
ENDCHAR
STARTCHAR 2740
ENCODING 10048
SWIDTH 1000 0
DWIDTH 18 0
BBX 18 18 0 -2
BITMAP
000000
000000
1e7c00
0cc600
0cc600
0d8300
0d8300
0d8300
0f8300
0d8300
0d8300
0d8300
0cc600
0cc600
1e7c00
000000
000000
000000
ENDCHAR
STARTCHAR 2741
ENCODING 10049
SWIDTH 1000 0
DWIDTH 18 0
BBX 18 18 0 -2
BITMAP
000000
000000
01ff00
070600
0c0600
0c0600
0c0600
070600
01fe00
00c600
00c600
018600
018600
030600
0e0f00
000000
000000
000000
ENDCHAR
STARTCHAR 2751
ENCODING 10065
SWIDTH 1000 0
DWIDTH 18 0
BBX 18 18 0 -2
BITMAP
000000
000000
000000
000000
000000
000000
01f000
031800
060c00
00fc00
038c00
060c00
060c00
061c00
03fe00
000000
000000
000000
ENDCHAR
STARTCHAR 2752
ENCODING 10066
SWIDTH 1000 0
DWIDTH 18 0
BBX 18 18 0 -2
BITMAP
000000
000000
000600
00fc00
018000
030000
03f800
038c00
030600
030600
030600
030600
030600
018c00
00f800
000000
000000
000000
ENDCHAR
STARTCHAR 2753
ENCODING 10067
SWIDTH 1000 0
DWIDTH 18 0
BBX 18 18 0 -2
BITMAP
000000
000000
000000
000000
000000
000000
07f800
030c00
030600
030600
03fc00
030600
030600
030c00
07f800
000000
000000
000000
ENDCHAR
STARTCHAR 2754
ENCODING 10068
SWIDTH 1000 0
DWIDTH 18 0
BBX 18 18 0 -2
BITMAP
000000
000000
000000
000000
000000
000000
07fe00
030600
030600
030000
030000
030000
030000
030000
078000
000000
000000
000000
ENDCHAR
STARTCHAR 2755
ENCODING 10069
SWIDTH 1000 0
DWIDTH 18 0
BBX 18 18 0 -2
BITMAP
000000
000000
000000
000000
000000
000000
07fe00
018c00
018c00
030c00
030c00
030c00
060c00
060c00
07fc00
0c0600
000000
000000
ENDCHAR
STARTCHAR 2756
ENCODING 10070
SWIDTH 1000 0
DWIDTH 18 0
BBX 18 18 0 -2
BITMAP
000000
000000
000000
000000
000000
000000
01f800
030c00
060600
060600
07fc00
060000
060000
030c00
01f800
000000
000000
000000
ENDCHAR
STARTCHAR 2757
ENCODING 10071
SWIDTH 1000 0
DWIDTH 18 0
BBX 18 18 0 -2
BITMAP
000000
000000
000000
000000
019800
000000
01f800
030c00
060600
060600
07fe00
060000
060000
030c00
01f800
000000
000000
000000
ENDCHAR
STARTCHAR 2758
ENCODING 10072
SWIDTH 1000 0
DWIDTH 18 0
BBX 18 18 0 -2
BITMAP
000000
000000
000000
000000
000000
000000
0ef700
1b6d80
036c00
01f800
00f000
01f800
036c00
066600
1ef780
000000
000000
000000
ENDCHAR
STARTCHAR 2759
ENCODING 10073
SWIDTH 1000 0
DWIDTH 18 0
BBX 18 18 0 -2
BITMAP
000000
000000
000000
000000
000000
000000
03f800
060c00
000600
000c00
01f800
000c00
000600
060c00
03f800
000000
000000
000000
ENDCHAR
STARTCHAR 275a
ENCODING 10074
SWIDTH 1000 0
DWIDTH 18 0
BBX 18 18 0 -2
BITMAP
000000
000000
000000
000000
000000
000000
079e00
030c00
031c00
033c00
036c00
03cc00
038c00
030c00
079e00
000000
000000
000000
ENDCHAR
STARTCHAR 275b
ENCODING 10075
SWIDTH 1000 0
DWIDTH 18 0
BBX 18 18 0 -2
BITMAP
000000
000000
000000
019800
00f000
000000
079e00
030c00
031c00
033c00
036c00
03cc00
038c00
030c00
079e00
000000
000000
000000
ENDCHAR
STARTCHAR 275c
ENCODING 10076
SWIDTH 1000 0
DWIDTH 18 0
BBX 18 18 0 -2
BITMAP
000000
000000
000000
000000
000000
000000
079c00
033600
033000
036000
03c000
036000
033000
031800
078e00
000000
000000
000000
ENDCHAR
STARTCHAR 275d
ENCODING 10077
SWIDTH 1000 0
DWIDTH 18 0
BBX 18 18 0 -2
BITMAP
000000
000000
000000
000000
000000
000000
03fe00
018c00
018c00
018c00
018c00
018c00
030c00
1b0c00
0e1e00
000000
000000
000000
ENDCHAR
STARTCHAR 275e
ENCODING 10078
SWIDTH 1000 0
DWIDTH 18 0
BBX 18 18 0 -2
BITMAP
000000
000000
000000
000000
000000
000000
0f0f00
079e00
079e00
079e00
06f600
06f600
06f600
066600
0f6f00
000000
000000
000000
ENDCHAR
STARTCHAR 275f
ENCODING 10079
SWIDTH 1000 0
DWIDTH 18 0
BBX 18 18 0 -2
BITMAP
000000
000000
000000
000000
000000
000000
079e00
030c00
030c00
030c00
03fc00
030c00
030c00
030c00
079e00
000000
000000
000000
ENDCHAR
STARTCHAR 2760
ENCODING 10080
SWIDTH 1000 0
DWIDTH 18 0
BBX 18 18 0 -2
BITMAP
000000
000000
000000
000000
000000
000000
01f800
030c00
060600
060600
060600
060600
060600
030c00
01f800
000000
000000
000000
ENDCHAR
STARTCHAR 2761
ENCODING 10081
SWIDTH 1000 0
DWIDTH 18 0
BBX 18 18 0 -2
BITMAP
000000
000000
000000
000000
000000
000000
07fe00
030c00
030c00
030c00
030c00
030c00
030c00
030c00
079e00
000000
000000
000000
ENDCHAR
STARTCHAR 2762
ENCODING 10082
SWIDTH 1000 0
DWIDTH 18 0
BBX 18 18 0 -2
BITMAP
000000
000000
000000
000000
000000
000000
07f800
038c00
030600
030600
030600
030600
038c00
03f800
030000
030000
078000
000000
ENDCHAR
STARTCHAR 2763
ENCODING 10083
SWIDTH 1000 0
DWIDTH 18 0
BBX 18 18 0 -2
BITMAP
000000
000000
000000
000000
000000
000000
01f800
030c00
060600
060000
060000
060000
060600
030c00
01f800
000000
000000
000000
ENDCHAR
STARTCHAR 2764
ENCODING 10084
SWIDTH 1000 0
DWIDTH 18 0
BBX 18 18 0 -2
BITMAP
000000
000000
000000
000000
000000
000000
0fff00
0c6300
006000
006000
006000
006000
006000
006000
00f000
000000
000000
000000
ENDCHAR
STARTCHAR 2765
ENCODING 10085
SWIDTH 1000 0
DWIDTH 18 0
BBX 18 18 0 -2
BITMAP
000000
000000
000000
000000
000000
000000
0f0f00
060600
030c00
030c00
019800
019800
00f000
00f000
006000
06c000
038000
000000
ENDCHAR
STARTCHAR 2766
ENCODING 10086
SWIDTH 1000 0
DWIDTH 18 0
BBX 18 18 0 -2
BITMAP
000000
000000
000000
000000
000000
000000
00f000
006000
03fc00
066600
066600
066600
03fc00
006000
00f000
000000
000000
000000
ENDCHAR
STARTCHAR 2767
ENCODING 10087
SWIDTH 1000 0
DWIDTH 18 0
BBX 18 18 0 -2
BITMAP
000000
000000
000000
000000
000000
000000
0f0f00
030c00
019800
00f000
006000
00f000
019800
030c00
0f0f00
000000
000000
000000
ENDCHAR
STARTCHAR 2768
ENCODING 10088
SWIDTH 1000 0
DWIDTH 18 0
BBX 18 18 0 -2
BITMAP
000000
000000
000000
000000
000000
000000
079e00
030c00
030c00
030c00
030c00
030c00
030c00
030c00
07fc00
000600
000000
000000
ENDCHAR
STARTCHAR 2769
ENCODING 10089
SWIDTH 1000 0
DWIDTH 18 0
BBX 18 18 0 -2
BITMAP
000000
000000
000000
000000
000000
000000
0f1e00
060c00
060c00
060c00
060c00
031c00
01fc00
000c00
001e00
000000
000000
000000
ENDCHAR
STARTCHAR 276a
ENCODING 10090
SWIDTH 1000 0
DWIDTH 18 0
BBX 18 18 0 -2
BITMAP
000000
000000
000000
000000
000000
000000
1ef780
0c6300
0c6300
0c6300
0c6300
0c6300
0c6300
0c6300
1fff80
000000
000000
000000
ENDCHAR
STARTCHAR 276b
ENCODING 10091
SWIDTH 1000 0
DWIDTH 18 0
BBX 18 18 0 -2
BITMAP
000000
000000
000000
000000
000000
000000
1ef780
0c6300
0c6300
0c6300
0c6300
0c6300
0c6300
0c6300
1fff00
000180
000000
000000
ENDCHAR
STARTCHAR 276c
ENCODING 10092
SWIDTH 1000 0
DWIDTH 18 0
BBX 18 18 0 -2
BITMAP
000000
000000
000000
000000
000000
000000
0fe000
0d8000
018000
01f800
018c00
018600
018600
018c00
03f800
000000
000000
000000
ENDCHAR
STARTCHAR 276d
ENCODING 10093
SWIDTH 1000 0
DWIDTH 18 0
BBX 18 18 0 -2
BITMAP
000000
000000
000000
000000
000000
000000
0f0f00
060600
060600
07e600
063600
061e00
061e00
063600
0fef00
000000
000000
000000
ENDCHAR
STARTCHAR 276e
ENCODING 10094
SWIDTH 1000 0
DWIDTH 18 0
BBX 18 18 0 -2
BITMAP
000000
000000
000000
000000
000000
000000
078000
030000
030000
03f800
030c00
030600
030600
030c00
07f800
000000
000000
000000
ENDCHAR
STARTCHAR 276f
ENCODING 10095
SWIDTH 1000 0
DWIDTH 18 0
BBX 18 18 0 -2
BITMAP
000000
000000
000000
000000
000000
000000
01f800
030c00
000600
007600
01de00
000600
000600
030c00
01f800
000000
000000
000000
ENDCHAR
STARTCHAR 2770
ENCODING 10096
SWIDTH 1000 0
DWIDTH 18 0
BBX 18 18 0 -2
BITMAP
000000
000000
000000
000000
000000
000000
0f3c00
066600
06c300
06c300
07c300
06c300
06c300
066600
0f3c00
000000
000000
000000
ENDCHAR
STARTCHAR 2771
ENCODING 10097
SWIDTH 1000 0
DWIDTH 18 0
BBX 18 18 0 -2
BITMAP
000000
000000
000000
000000
000000
000000
01fe00
030c00
060c00
060c00
030c00
01fc00
00cc00
018c00
071e00
000000
000000
000000
ENDCHAR
STARTCHAR 2821
ENCODING 10273
SWIDTH 1000 0
DWIDTH 18 0
BBX 18 18 0 -2
BITMAP
000000
000000
000000
000000
000000
000000
000000
000000
ffffc0
000000
000000
000000
000000
000000
000000
000000
000000
000000
ENDCHAR
STARTCHAR 2822
ENCODING 10274
SWIDTH 1000 0
DWIDTH 18 0
BBX 18 18 0 -2
BITMAP
00c000
00c000
00c000
00c000
00c000
00c000
00c000
00c000
00c000
00c000
00c000
00c000
00c000
00c000
00c000
00c000
00c000
00c000
ENDCHAR
STARTCHAR 2823
ENCODING 10275
SWIDTH 1000 0
DWIDTH 18 0
BBX 18 18 0 -2
BITMAP
000000
000000
000000
000000
000000
000000
000000
000000
00ffc0
00c000
00c000
00c000
00c000
00c000
00c000
00c000
00c000
00c000
ENDCHAR
STARTCHAR 2824
ENCODING 10276
SWIDTH 1000 0
DWIDTH 18 0
BBX 18 18 0 -2
BITMAP
000000
000000
000000
000000
000000
000000
000000
000000
ffc000
00c000
00c000
00c000
00c000
00c000
00c000
00c000
00c000
00c000
ENDCHAR
STARTCHAR 2825
ENCODING 10277
SWIDTH 1000 0
DWIDTH 18 0
BBX 18 18 0 -2
BITMAP
00c000
00c000
00c000
00c000
00c000
00c000
00c000
00c000
ffc000
000000
000000
000000
000000
000000
000000
000000
000000
000000
ENDCHAR
STARTCHAR 2826
ENCODING 10278
SWIDTH 1000 0
DWIDTH 18 0
BBX 18 18 0 -2
BITMAP
00c000
00c000
00c000
00c000
00c000
00c000
00c000
00c000
00ffc0
000000
000000
000000
000000
000000
000000
000000
000000
000000
ENDCHAR
STARTCHAR 2827
ENCODING 10279
SWIDTH 1000 0
DWIDTH 18 0
BBX 18 18 0 -2
BITMAP
00c000
00c000
00c000
00c000
00c000
00c000
00c000
00c000
00ffc0
00c000
00c000
00c000
00c000
00c000
00c000
00c000
00c000
00c000
ENDCHAR
STARTCHAR 2828
ENCODING 10280
SWIDTH 1000 0
DWIDTH 18 0
BBX 18 18 0 -2
BITMAP
000000
000000
000000
000000
000000
000000
000000
000000
ffffc0
00c000
00c000
00c000
00c000
00c000
00c000
00c000
00c000
00c000
ENDCHAR
STARTCHAR 2829
ENCODING 10281
SWIDTH 1000 0
DWIDTH 18 0
BBX 18 18 0 -2
BITMAP
00c000
00c000
00c000
00c000
00c000
00c000
00c000
00c000
ffc000
00c000
00c000
00c000
00c000
00c000
00c000
00c000
00c000
00c000
ENDCHAR
STARTCHAR 282a
ENCODING 10282
SWIDTH 1000 0
DWIDTH 18 0
BBX 18 18 0 -2
BITMAP
00c000
00c000
00c000
00c000
00c000
00c000
00c000
00c000
ffffc0
000000
000000
000000
000000
000000
000000
000000
000000
000000
ENDCHAR
STARTCHAR 282b
ENCODING 10283
SWIDTH 1000 0
DWIDTH 18 0
BBX 18 18 0 -2
BITMAP
00c000
00c000
00c000
00c000
00c000
00c000
00c000
00c000
ffffc0
00c000
00c000
00c000
00c000
00c000
00c000
00c000
00c000
00c000
ENDCHAR
STARTCHAR 282c
ENCODING 10284
SWIDTH 1000 0
DWIDTH 18 0
BBX 18 18 0 -2
BITMAP
000000
000000
000000
000000
000000
000000
000000
000000
ffffc0
ffffc0
000000
000000
000000
000000
000000
000000
000000
000000
ENDCHAR
STARTCHAR 282d
ENCODING 10285
SWIDTH 1000 0
DWIDTH 18 0
BBX 18 18 0 -2
BITMAP
00e000
00e000
00e000
00e000
00e000
00e000
00e000
00e000
00e000
00e000
00e000
00e000
00e000
00e000
00e000
00e000
00e000
00e000
ENDCHAR
STARTCHAR 282e
ENCODING 10286
SWIDTH 1000 0
DWIDTH 18 0
BBX 18 18 0 -2
BITMAP
000000
000000
000000
000000
000000
000000
000000
000000
00ffc0
00ffc0
00e000
00e000
00e000
00e000
00e000
00e000
00e000
00e000
ENDCHAR
STARTCHAR 282f
ENCODING 10287
SWIDTH 1000 0
DWIDTH 18 0
BBX 18 18 0 -2
BITMAP
000000
000000
000000
000000
000000
000000
000000
000000
ffe000
ffe000
00e000
00e000
00e000
00e000
00e000
00e000
00e000
00e000
ENDCHAR
STARTCHAR 2830
ENCODING 10288
SWIDTH 1000 0
DWIDTH 18 0
BBX 18 18 0 -2
BITMAP
00e000
00e000
00e000
00e000
00e000
00e000
00e000
00e000
ffe000
ffe000
000000
000000
000000
000000
000000
000000
000000
000000
ENDCHAR
STARTCHAR 2831
ENCODING 10289
SWIDTH 1000 0
DWIDTH 18 0
BBX 18 18 0 -2
BITMAP
00e000
00e000
00e000
00e000
00e000
00e000
00e000
00e000
00ffc0
00ffc0
000000
000000
000000
000000
000000
000000
000000
000000
ENDCHAR
STARTCHAR 2832
ENCODING 10290
SWIDTH 1000 0
DWIDTH 18 0
BBX 18 18 0 -2
BITMAP
00e000
00e000
00e000
00e000
00e000
00e000
00e000
00e000
00ffc0
00ffc0
00e000
00e000
00e000
00e000
00e000
00e000
00e000
00e000
ENDCHAR
STARTCHAR 2833
ENCODING 10291
SWIDTH 1000 0
DWIDTH 18 0
BBX 18 18 0 -2
BITMAP
000000
000000
000000
000000
000000
000000
000000
000000
ffffc0
ffffc0
00e000
00e000
00e000
00e000
00e000
00e000
00e000
00e000
ENDCHAR
STARTCHAR 2834
ENCODING 10292
SWIDTH 1000 0
DWIDTH 18 0
BBX 18 18 0 -2
BITMAP
00e000
00e000
00e000
00e000
00e000
00e000
00e000
00e000
ffe000
ffe000
00e000
00e000
00e000
00e000
00e000
00e000
00e000
00e000
ENDCHAR
STARTCHAR 2835
ENCODING 10293
SWIDTH 1000 0
DWIDTH 18 0
BBX 18 18 0 -2
BITMAP
00e000
00e000
00e000
00e000
00e000
00e000
00e000
00e000
ffffc0
ffffc0
000000
000000
000000
000000
000000
000000
000000
000000
ENDCHAR
STARTCHAR 2836
ENCODING 10294
SWIDTH 1000 0
DWIDTH 18 0
BBX 18 18 0 -2
BITMAP
00e000
00e000
00e000
00e000
00e000
00e000
00e000
00e000
ffffc0
ffffc0
00e000
00e000
00e000
00e000
00e000
00e000
00e000
00e000
ENDCHAR
STARTCHAR 2837
ENCODING 10295
SWIDTH 1000 0
DWIDTH 18 0
BBX 18 18 0 -2
BITMAP
00e000
00e000
00e000
00e000
00e000
00e000
00e000
00e000
00ffc0
00e000
00e000
00e000
00e000
00e000
00e000
00e000
00e000
00e000
ENDCHAR
STARTCHAR 2838
ENCODING 10296
SWIDTH 1000 0
DWIDTH 18 0
BBX 18 18 0 -2
BITMAP
000000
000000
000000
000000
000000
000000
000000
000000
ffffc0
ffffc0
00c000
00c000
00c000
00c000
00c000
00c000
00c000
00c000
ENDCHAR
STARTCHAR 2839
ENCODING 10297
SWIDTH 1000 0
DWIDTH 18 0
BBX 18 18 0 -2
BITMAP
00e000
00e000
00e000
00e000
00e000
00e000
00e000
00e000
ffe000
00e000
00e000
00e000
00e000
00e000
00e000
00e000
00e000
00e000
ENDCHAR
STARTCHAR 283a
ENCODING 10298
SWIDTH 1000 0
DWIDTH 18 0
BBX 18 18 0 -2
BITMAP
00c000
00c000
00c000
00c000
00c000
00c000
00c000
00c000
ffffc0
ffffc0
000000
000000
000000
000000
000000
000000
000000
000000
ENDCHAR
STARTCHAR 283b
ENCODING 10299
SWIDTH 1000 0
DWIDTH 18 0
BBX 18 18 0 -2
BITMAP
00c000
00c000
00c000
00c000
00c000
00c000
00c000
00c000
ffffc0
ffffc0
00c000
00c000
00c000
00c000
00c000
00c000
00c000
00c000
ENDCHAR
STARTCHAR 283c
ENCODING 10300
SWIDTH 1000 0
DWIDTH 18 0
BBX 18 18 0 -2
BITMAP
00c000
00c000
00c000
00c000
00c000
00c000
00c000
00c000
00ffc0
00ffc0
00c000
00c000
00c000
00c000
00c000
00c000
00c000
00c000
ENDCHAR
STARTCHAR 283d
ENCODING 10301
SWIDTH 1000 0
DWIDTH 18 0
BBX 18 18 0 -2
BITMAP
000000
000000
000000
000000
000000
000000
000000
000000
ffffc0
00e000
00e000
00e000
00e000
00e000
00e000
00e000
00e000
00e000
ENDCHAR
STARTCHAR 283e
ENCODING 10302
SWIDTH 1000 0
DWIDTH 18 0
BBX 18 18 0 -2
BITMAP
00c000
00c000
00c000
00c000
00c000
00c000
00c000
00c000
ffc000
ffc000
00c000
00c000
00c000
00c000
00c000
00c000
00c000
00c000
ENDCHAR
STARTCHAR 283f
ENCODING 10303
SWIDTH 1000 0
DWIDTH 18 0
BBX 18 18 0 -2
BITMAP
00e000
00e000
00e000
00e000
00e000
00e000
00e000
00e000
ffffc0
000000
000000
000000
000000
000000
000000
000000
000000
000000
ENDCHAR
STARTCHAR 2840
ENCODING 10304
SWIDTH 1000 0
DWIDTH 18 0
BBX 18 18 0 -2
BITMAP
00e000
00e000
00e000
00e000
00e000
00e000
00e000
00e000
ffffc0
00e000
00e000
00e000
00e000
00e000
00e000
00e000
00e000
00e000
ENDCHAR
STARTCHAR 3021
ENCODING 12321
SWIDTH 1000 0
DWIDTH 18 0
BBX 18 18 0 -2
BITMAP
000000
000000
3fff80
033000
033000
033000
1fff00
1b3300
1b3300
1b3300
1b3300
1fff00
033000
033000
033000
7fffc0
000000
000000
ENDCHAR
STARTCHAR 3022
ENCODING 12322
SWIDTH 1000 0
DWIDTH 18 0
BBX 18 18 0 -2
BITMAP
000000
000000
07ffc0
7c6c00
6c6c00
6c6c00
6fff80
6f6d80
6f6d80
6f6d80
6fff80
6c6c00
7c6c00
006c00
006c00
07ffc0
000000
000000
ENDCHAR
STARTCHAR 3023
ENCODING 12323
SWIDTH 1000 0
DWIDTH 18 0
BBX 18 18 0 -2
BITMAP
000000
180c00
180c00
187f80
180c00
7f0c00
1b0c00
1bffc0
3b0000
330c00
370c00
7e7f80
0e0c00
0f0c00
1f0c00
380c00
70ffc0
000000
ENDCHAR
STARTCHAR 3024
ENCODING 12324
SWIDTH 1000 0
DWIDTH 18 0
BBX 18 18 0 -2
BITMAP
000000
000000
3fffc0
330300
370300
3efb00
3cdb00
36db00
33db00
33db00
33db00
33fb00
330300
3f0300
300300
300300
300f00
000000
ENDCHAR
STARTCHAR 3025
ENCODING 12325
SWIDTH 1000 0
DWIDTH 18 0
BBX 18 18 0 -2
BITMAP
000000
00c000
00c000
7fffc0
000000
0ffe00
0c0600
0c0600
0c0600
0ffe00
03b180
073b80
1e1f00
7e1c00
060e00
07e700
3e03c0
000000
ENDCHAR
STARTCHAR 3026
ENCODING 12326
SWIDTH 1000 0
DWIDTH 18 0
BBX 18 18 0 -2
BITMAP
000000
000f00
3ffc00
198300
0cc600
7fffc0
60c0c0
6f67c0
1f0f80
3bfd80
060000
07fe00
1f1c00
7bb800
01f000
0fbe00
7c07c0
000000
ENDCHAR
STARTCHAR 3027
ENCODING 12327
SWIDTH 1000 0
DWIDTH 18 0
BBX 18 18 0 -2
BITMAP
000000
186000
186300
18e300
7edf80
1bf9c0
18c000
18c000
19ff80
1f9800
781800
1bffc0
183c00
187e00
18e700
19c380
3b81c0
000000
ENDCHAR
STARTCHAR 3028
ENCODING 12328
SWIDTH 1000 0
DWIDTH 18 0
BBX 18 18 0 -2
BITMAP
000000
180c00
181e00
181e00
183f00
7f7380
1be1c0
1b0000
3b3f00
370000
360000
7e7f80
0e6180
0f6180
1f6180
386180
707f80
000000
ENDCHAR
STARTCHAR 3029
ENCODING 12329
SWIDTH 1000 0
DWIDTH 18 0
BBX 18 18 0 -2
BITMAP
000000
006000
387f00
1cc300
0fe600
003c00
00ff00
03c3c0
7c1800
0cff00
0c1800
0cff00
0c1800
0dff80
1c1800
3e0000
73ffc0
000000
ENDCHAR
STARTCHAR 302a
ENCODING 12330
SWIDTH 1000 0
DWIDTH 18 0
BBX 18 18 0 -2
BITMAP
000000
031800
031800
7fffc0
031800
000000
3fb300
031ec0
360d80
1fff00
78c3c0
00c000
3fff80
01b000
03b800
0f1e00
3c0780
000000
ENDCHAR
STARTCHAR 302b
ENCODING 12331
SWIDTH 1000 0
DWIDTH 18 0
BBX 18 18 0 -2
BITMAP
000000
031800
031800
7fffc0
031800
000000
7fffc0
033000
033000
3fff80
333180
373180
3e3f80
300180
300180
3fff80
000000
000000
ENDCHAR
STARTCHAR 302c
ENCODING 12332
SWIDTH 1000 0
DWIDTH 18 0
BBX 18 18 0 -2
BITMAP
000000
066000
1efc00
799800
1bff00
19b300
7fff00
19b300
1dff00
3e3000
3bff80
3b3180
7bff80
1b3180
1bff80
1830c0
181fc0
000000
ENDCHAR
STARTCHAR 302d
ENCODING 12333
SWIDTH 1000 0
DWIDTH 18 0
BBX 18 18 0 -2
BITMAP
000000
000000
3fff80
033000
033000
1fff00
1b3300
1b3300
1fff00
033000
033000
7fffc0
006000
1b7380
1b37c0
3b8ec0
71fc00
000000
ENDCHAR
STARTCHAR 302e
ENCODING 12334
SWIDTH 1000 0
DWIDTH 18 0
BBX 18 18 0 -2
BITMAP
000000
180000
19ff80
198180
198180
7fff80
198000
19ff80
199800
19b300
1fff80
798d80
198c00
1bff80
1b0c00
1f0c00
38ffc0
000000
ENDCHAR
STARTCHAR 302f
ENCODING 12335
SWIDTH 1000 0
DWIDTH 18 0
BBX 18 18 0 -2
BITMAP
000000
000000
39ff80
1d8180
0d8180
01ff80
718000
39ff80
199800
01b300
0dff80
0d8d80
1d8c00
1bff80
3b0c00
370c00
70ffc0
000000
ENDCHAR
STARTCHAR 3030
ENCODING 12336
SWIDTH 1000 0
DWIDTH 18 0
BBX 18 18 0 -2
BITMAP
000000
180000
187f00
186300
186300
7f6300
1b6300
1b7f00
1b6300
1b6300
1b6300
1b6300
1b7f00
1b0000
3b00c0
3381c0
71ff80
000000
ENDCHAR
STARTCHAR 3031
ENCODING 12337
SWIDTH 1000 0
DWIDTH 18 0
BBX 18 18 0 -2
BITMAP
000000
031800
7fffc0
031800
018000
1ffe00
030600
7fffc0
000000
0ffe00
0c0600
0ffe00
003000
1fff00
063000
7fffc0
003000
000000
ENDCHAR
STARTCHAR 3032
ENCODING 12338
SWIDTH 1000 0
DWIDTH 18 0
BBX 18 18 0 -2
BITMAP
000000
031800
031800
7fffc0
031800
000000
3fff80
000000
0fff00
0c0300
0c0300
0fff00
0c0000
1c0000
180000
380000
700000
000000
ENDCHAR
STARTCHAR 3033
ENCODING 12339
SWIDTH 1000 0
DWIDTH 18 0
BBX 18 18 0 -2
BITMAP
000000
181800
1f3b00
3b3380
367f80
7f8c00
3dffc0
3d9e00
3fb300
3dedc0
3d9800
3ff300
000e00
3ff8c0
3fc380
7f0e00
607800
000000
ENDCHAR
STARTCHAR 3034
ENCODING 12340
SWIDTH 1000 0
DWIDTH 18 0
BBX 18 18 0 -2
BITMAP
000000
0c1800
0c1800
0dff80
7f0000
0cc300
0ce700
1e6600
1fffc0
1f1800
3c1800
3c1800
6dff80
0c1800
0c1800
0c1800
0c1800
000000
ENDCHAR
STARTCHAR 3035
ENCODING 12341
SWIDTH 1000 0
DWIDTH 18 0
BBX 18 18 0 -2
BITMAP
000000
000000
1fff80
180000
183000
183000
183000
183000
1fff80
183000
183000
183000
383000
303000
703000
0fffc0
000000
000000
ENDCHAR
STARTCHAR 3036
ENCODING 12342
SWIDTH 1000 0
DWIDTH 18 0
BBX 18 18 0 -2
BITMAP
000000
0c0c00
0c1e00
7f9e00
0c3f00
3f7380
33e1c0
333b00
3f1f00
330300
337300
3f3b00
0c03c0
7f9f00
0c7b00
0c0300
0c0300
000000
ENDCHAR
STARTCHAR 3037
ENCODING 12343
SWIDTH 1000 0
DWIDTH 18 0
BBX 18 18 0 -2
BITMAP
000000
180000
1bfe00
18c600
18ce00
7ecc00
18cc00
19ff00
19e300
19f300
1fb700
79be00
199e00
1b8c00
1b1e00
1b3f00
3ff3c0
000000
ENDCHAR
STARTCHAR 3038
ENCODING 12344
SWIDTH 1000 0
DWIDTH 18 0
BBX 18 18 0 -2
BITMAP
000000
00c000
00c000
3fff80
300180
3c0180
0c0000
0fff00
1cf300
19f300
3fb300
77b300
033700
073000
0e30c0
1c39c0
781f80
000000
ENDCHAR
STARTCHAR 3039
ENCODING 12345
SWIDTH 1000 0
DWIDTH 18 0
BBX 18 18 0 -2
BITMAP
000000
180000
187f00
186300
186300
7f6300
1b7f00
1b6300
3b6300
376300
366300
7e7f00
0e6300
0f6300
1f6300
386300
71ffc0
000000
ENDCHAR
STARTCHAR 303a
ENCODING 12346
SWIDTH 1000 0
DWIDTH 18 0
BBX 18 18 0 -2
BITMAP
000000
0c0c00
0c0c00
0c0c00
7f8c00
6dffc0
6db000
6db000
6db000
7fb000
0c3000
0c3000
0db000
0db000
0ff800
7cdf80
000000
000000
ENDCHAR
STARTCHAR 303b
ENCODING 12347
SWIDTH 1000 0
DWIDTH 18 0
BBX 18 18 0 -2
BITMAP
000000
0c1800
1e1800
1f3b00
3bb380
3c7180
7f6fc0
33fcc0
3f0000
330000
3f7f80
306180
336180
336180
3fe180
3de180
707f80
000000
ENDCHAR
STARTCHAR 303c
ENCODING 12348
SWIDTH 1000 0
DWIDTH 18 0
BBX 18 18 0 -2
BITMAP
000000
0c3000
1c3000
387fc0
7360c0
3fe0c0
0e3ec0
1c36c0
3b36c0
7fbec0
0db6c0
0c36c0
3f3ec0
3f80c0
7d81c0
6c0180
0c0780
000000
ENDCHAR
STARTCHAR 303d
ENCODING 12349
SWIDTH 1000 0
DWIDTH 18 0
BBX 18 18 0 -2
BITMAP
000000
0c1800
1c1800
38ff80
731800
3fffc0
0e3600
1c7600
3be7c0
7fb000
0dbf00
0c7300
3fe700
3fbe00
7d9c00
6c7f00
0de3c0
000000
ENDCHAR
STARTCHAR 303e
ENCODING 12350
SWIDTH 1000 0
DWIDTH 18 0
BBX 18 18 0 -2
BITMAP
000000
180c00
1f8c00
398c00
330c00
7fcfc0
36cc00
36cc00
3fcc00
36cc00
36ff80
3ff180
003180
3ff180
3ff180
7f3180
603f80
000000
ENDCHAR
STARTCHAR 303f
ENCODING 12351
SWIDTH 1000 0
DWIDTH 18 0
BBX 18 18 0 -2
BITMAP
000000
003600
003700
003300
7fffc0
003000
003000
3fb180
31bb80
319b00
319f00
3f9e00
000c00
03dec0
1f3fc0
78f3c0
03c180
000000
ENDCHAR
STARTCHAR 3040
ENCODING 12352
SWIDTH 1000 0
DWIDTH 18 0
BBX 18 18 0 -2
BITMAP
000000
000000
7fffc0
033000
3fff80
333180
333180
3fff80
0cc600
0ece00
06cc00
7fffc0
03d800
07dc00
1ecf00
78c3c0
00c000
000000
ENDCHAR
STARTCHAR 3041
ENCODING 12353
SWIDTH 1000 0
DWIDTH 18 0
BBX 18 18 0 -2
BITMAP
000000
0c0c00
0c1e00
0c1e00
7f3f00
037380
07e1c0
0e0000
0dbf00
1f8000
3f0000
7fff80
0de180
0c6180
0c6180
0c6180
0c7f80
000000
ENDCHAR
STARTCHAR 3042
ENCODING 12354
SWIDTH 1000 0
DWIDTH 18 0
BBX 18 18 0 -2
BITMAP
000000
00c000
00c000
3fff80
300180
318180
038000
030000
7fffc0
060600
0e0e00
0c1c00
1fb800
01f000
03bc00
0f0f00
3c0380
000000
ENDCHAR
STARTCHAR 3043
ENCODING 12355
SWIDTH 1000 0
DWIDTH 18 0
BBX 18 18 0 -2
BITMAP
000000
006000
006000
3fffc0
30c000
3fff80
319800
336c00
37ff00
3e67c0
366600
37fe00
366600
766600
67fec0
6061c0
003f80
000000
ENDCHAR
STARTCHAR 3044
ENCODING 12356
SWIDTH 1000 0
DWIDTH 18 0
BBX 18 18 0 -2
BITMAP
000000
183000
183000
1bff80
1b0180
7f6180
186000
186000
1fffc0
1ec300
79c700
198600
1bfe00
183c00
187e00
18e700
3bc380
000000
ENDCHAR
STARTCHAR 3045
ENCODING 12357
SWIDTH 1000 0
DWIDTH 18 0
BBX 18 18 0 -2
BITMAP
000000
001800
001800
7fff80
66c300
66e700
666600
67ffc0
7e0000
660000
66ff00
66c300
66c300
7eff00
00c300
00c300
00ff00
000000
ENDCHAR
STARTCHAR 3046
ENCODING 12358
SWIDTH 1000 0
DWIDTH 18 0
BBX 18 18 0 -2
BITMAP
000000
00c000
3fff80
300180
018000
7fffc0
060c00
0f9c00
01f800
079e00
3e0700
00c000
7fffc0
03d800
0fde00
7cc7c0
00c000
000000
ENDCHAR
STARTCHAR 3047
ENCODING 12359
SWIDTH 1000 0
DWIDTH 18 0
BBX 18 18 0 -2
BITMAP
000000
000000
3fbf80
31b180
3fbf80
31b180
3fbf80
30c180
37fd80
331980
3fff80
300180
33f980
331980
33f980
331980
33ff80
000000
ENDCHAR
STARTCHAR 3048
ENCODING 12360
SWIDTH 1000 0
DWIDTH 18 0
BBX 18 18 0 -2
BITMAP
000000
330c00
330c00
7fff80
336180
337980
3f1800
0c1800
7fffc0
6d9b00
6dbb00
7fb700
0c7e00
7f9e00
0c1f00
0c3b80
0c7180
000000
ENDCHAR
STARTCHAR 3049
ENCODING 12361
SWIDTH 1000 0
DWIDTH 18 0
BBX 18 18 0 -2
BITMAP
000000
00c000
00c000
00c000
7fffc0
03f000
07f800
0edc00
1ccf00
78c3c0
000000
1fff00
180300
180300
180300
180300
1fff00
000000
ENDCHAR
STARTCHAR 304a
ENCODING 12362
SWIDTH 1000 0
DWIDTH 18 0
BBX 18 18 0 -2
BITMAP
000000
000000
180300
180300
180300
1b8300
19c300
18e300
186300
180700
180600
180600
180f00
1f9f80
1e3980
7871c0
01e0c0
000000
ENDCHAR
STARTCHAR 304b
ENCODING 12363
SWIDTH 1000 0
DWIDTH 18 0
BBX 18 18 0 -2
BITMAP
000000
060000
07ff80
0e1980
0c1980
1c1980
1bffc0
381980
781980
181980
19ff80
181800
181800
183800
183000
187000
18e000
000000
ENDCHAR
STARTCHAR 304c
ENCODING 12364
SWIDTH 1000 0
DWIDTH 18 0
BBX 18 18 0 -2
BITMAP
000000
061800
061800
0e1800
0dff80
1c0000
180000
38c300
78c300
18e700
186600
186600
186e00
180c00
180c00
1bffc0
180000
000000
ENDCHAR
STARTCHAR 304d
ENCODING 12365
SWIDTH 1000 0
DWIDTH 18 0
BBX 18 18 0 -2
BITMAP
000000
061800
061800
0e1800
0fffc0
1c3000
183000
387980
78fb80
19df00
1bde00
1fcc00
18ce00
18c600
18ff00
18f380
1bc1c0
000000
ENDCHAR
STARTCHAR 304e
ENCODING 12366
SWIDTH 1000 0
DWIDTH 18 0
BBX 18 18 0 -2
BITMAP
000000
063000
07ff00
0e6300
0c6300
1fffc0
180000
39ff00
798300
19ff00
180c00
1bff80
18cc00
18cc00
1fffc0
180c00
180c00
000000
ENDCHAR
STARTCHAR 304f
ENCODING 12367
SWIDTH 1000 0
DWIDTH 18 0
BBX 18 18 0 -2
BITMAP
000000
000000
3fff80
300180
331980
331980
3fff80
331980
331980
331980
3fff80
331980
371980
3e1980
300180
3fff80
000000
000000
ENDCHAR
STARTCHAR 3050
ENCODING 12368
SWIDTH 1000 0
DWIDTH 18 0
BBX 18 18 0 -2
BITMAP
000000
00c000
00c000
7fffc0
00c000
3fff00
00c300
1fff00
18c000
18c000
1fff80
01e180
03f180
033780
073800
1e1e00
7807c0
000000
ENDCHAR
STARTCHAR 3051
ENCODING 12369
SWIDTH 1000 0
DWIDTH 18 0
BBX 18 18 0 -2
BITMAP
000000
001e00
1ff800
00c000
7fffc0
03d800
07dc00
1ecf00
78c3c0
00c000
018000
7fffc0
031800
063800
0ff000
01fe00
3f0780
000000
ENDCHAR
STARTCHAR 3052
ENCODING 12370
SWIDTH 1000 0
DWIDTH 18 0
BBX 18 18 0 -2
BITMAP
000000
003600
003700
003300
3fffc0
303000
3ff000
303300
333b00
3fff00
36de00
36de00
3f8c00
31dec0
73ffc0
6e73c0
60e180
000000
ENDCHAR
STARTCHAR 3053
ENCODING 12371
SWIDTH 1000 0
DWIDTH 18 0
BBX 18 18 0 -2
BITMAP
000000
000300
3fc300
30c300
30c300
3fc300
303fc0
300300
3fc300
301b00
3fdf00
330f00
3fc300
7fc300
6fc300
7bc300
070f00
000000
ENDCHAR
STARTCHAR 3054
ENCODING 12372
SWIDTH 1000 0
DWIDTH 18 0
BBX 18 18 0 -2
BITMAP
000000
0c6000
0c6600
0cee00
0ecc00
3fffc0
3dcc00
7fcc00
6cff80
0ccc00
0ccc00
0ccc00
0cff80
0ccc00
0ccc00
0ccc00
0cffc0
000000
ENDCHAR
STARTCHAR 3055
ENCODING 12373
SWIDTH 1000 0
DWIDTH 18 0
BBX 18 18 0 -2
BITMAP
000000
00c000
00c000
3fff80
060c00
031800
7fffc0
000000
0ffe00
0c0600
0ffe00
0c0600
0ffe00
00c000
1b6380
3b0dc0
71fcc0
000000
ENDCHAR
STARTCHAR 3056
ENCODING 12374
SWIDTH 1000 0
DWIDTH 18 0
BBX 18 18 0 -2
BITMAP
000000
000300
3fc300
30c300
3fc300
303fc0
3fc300
301b00
3fcf00
330f00
7fc300
6fc300
1f0f00
00c000
1b6380
3b0dc0
71fcc0
000000
ENDCHAR
STARTCHAR 3057
ENCODING 12375
SWIDTH 1000 0
DWIDTH 18 0
BBX 18 18 0 -2
BITMAP
000000
000000
0ffe00
0c0600
0c0600
0ffe00
0c0600
0c0600
0ffe00
060000
0fff80
1d9980
7bb980
073180
1e7380
01e300
000f00
000000
ENDCHAR
STARTCHAR 3058
ENCODING 12376
SWIDTH 1000 0
DWIDTH 18 0
BBX 18 18 0 -2
BITMAP
000000
0c1800
0c1800
0dff80
7f3c00
0c7e00
0ce700
1e0000
1fffc0
1f0300
3cfb00
3cdb00
6cdb00
0cfb00
0c0300
0c0300
0c0f00
000000
ENDCHAR
STARTCHAR 3059
ENCODING 12377
SWIDTH 1000 0
DWIDTH 18 0
BBX 18 18 0 -2
BITMAP
000000
198000
1d8000
0d8000
3ffe00
030600
030c00
07ff80
060180
0e0300
1fffc0
3800c0
700cc0
0f66c0
0db7c0
19b180
000780
000000
ENDCHAR
STARTCHAR 305a
ENCODING 12378
SWIDTH 1000 0
DWIDTH 18 0
BBX 18 18 0 -2
BITMAP
000000
000000
1fff00
18c300
18c300
1fff00
18c300
18c300
1fff00
000000
7fffc0
0c6300
0c7700
0c3e00
0fdc00
0f0f00
3c03c0
000000
ENDCHAR
STARTCHAR 305b
ENCODING 12379
SWIDTH 1000 0
DWIDTH 18 0
BBX 18 18 0 -2
BITMAP
000000
000000
1fff00
18c300
18c300
1fff00
18c300
18c300
1fff00
031800
3fff80
031800
031800
7fffc0
060c00
1e0f00
7803c0
000000
ENDCHAR
STARTCHAR 305c
ENCODING 12380
SWIDTH 1000 0
DWIDTH 18 0
BBX 18 18 0 -2
BITMAP
000000
039800
0f1f80
7c3980
0c7380
0cff00
7f8e00
0c1c00
0c7e00
1e07c0
1f0ec0
3d9dc0
3c7f80
6c0380
0c0700
0c1e00
0cf800
000000
ENDCHAR
STARTCHAR 305d
ENCODING 12381
SWIDTH 1000 0
DWIDTH 18 0
BBX 18 18 0 -2
BITMAP
000000
0c3000
1c3300
387700
736600
3fffc0
0fe600
1c6600
3b7f80
7fe600
0de600
0c6600
3f7f80
3fe600
7de600
6c6600
0c7fc0
000000
ENDCHAR
STARTCHAR 305e
ENCODING 12382
SWIDTH 1000 0
DWIDTH 18 0
BBX 18 18 0 -2
BITMAP
000000
0c1800
1c7f00
383300
733300
3fffc0
0e0000
1c7f80
3b6180
7fff80
0d8600
0c7f80
3f3600
3f3600
7fffc0
6c0600
0c0600
000000
ENDCHAR
STARTCHAR 305f
ENCODING 12383
SWIDTH 1000 0
DWIDTH 18 0
BBX 18 18 0 -2
BITMAP
000000
3fff80
30c180
30c180
3fff80
30c180
30c180
3fff80
000000
1fff00
180300
1fff00
180300
1fff00
180300
180300
180f00
000000
ENDCHAR
STARTCHAR 3060
ENCODING 12384
SWIDTH 1000 0
DWIDTH 18 0
BBX 18 18 0 -2
BITMAP
000000
031800
7fffc0
031800
003e00
1ff000
00c000
7fffc0
03f000
1ede00
78c7c0
030000
7fffc0
060c00
1fd800
00fe00
3f8780
000000
ENDCHAR
STARTCHAR 3061
ENCODING 12385
SWIDTH 1000 0
DWIDTH 18 0
BBX 18 18 0 -2
BITMAP
000000
00c000
00c000
00c000
7fffc0
01e000
03e180
077380
0e3700
1e3e00
7e1800
061c00
060c00
060e00
07e700
0f8380
3c01c0
000000
ENDCHAR
STARTCHAR 3062
ENCODING 12386
SWIDTH 1000 0
DWIDTH 18 0
BBX 18 18 0 -2
BITMAP
000000
000000
3f7f80
006d80
7fff80
006d80
3f6d80
007f80
000000
3f7f80
006180
007f80
3f6180
337f80
336180
336180
3f6380
000000
ENDCHAR
STARTCHAR 3063
ENCODING 12387
SWIDTH 1000 0
DWIDTH 18 0
BBX 18 18 0 -2
BITMAP
000000
003000
39ff00
1c6300
0c6300
03ffc0
000000
00ff00
7cc300
0cff00
0c0c00
0dff80
0ccc00
0fffc0
1c0c00
3e0c00
73ffc0
000000
ENDCHAR
STARTCHAR 3064
ENCODING 12388
SWIDTH 1000 0
DWIDTH 18 0
BBX 18 18 0 -2
BITMAP
000000
001800
38ff00
1cdb00
0cff00
001800
03ffc0
000000
7cff00
0cc300
0cff00
0cc300
0cff00
0cc300
1cff00
3f8180
73ffc0
000000
ENDCHAR
STARTCHAR 3065
ENCODING 12389
SWIDTH 1000 0
DWIDTH 18 0
BBX 18 18 0 -2
BITMAP
000000
000000
3fff80
330000
330000
37fe00
3e6000
306000
3fff00
30f000
31f800
319800
339c00
370e00
300000
3fff80
000000
000000
ENDCHAR
STARTCHAR 3066
ENCODING 12390
SWIDTH 1000 0
DWIDTH 18 0
BBX 18 18 0 -2
BITMAP
000000
031800
031800
031800
031800
3fff80
031800
031800
031800
031800
7fffc0
031800
031800
071800
061800
0e1800
1c1800
000000
ENDCHAR
STARTCHAR 3067
ENCODING 12391
SWIDTH 1000 0
DWIDTH 18 0
BBX 18 18 0 -2
BITMAP
000000
00c000
00c000
00c000
7fffc0
00c000
01d800
1fb800
0e7600
07ee00
01dc00
03b800
0f7000
3cfc00
03ce00
0f0700
3c0380
000000
ENDCHAR
STARTCHAR 3068
ENCODING 12392
SWIDTH 1000 0
DWIDTH 18 0
BBX 18 18 0 -2
BITMAP
000000
181e00
181b00
181b00
1bffc0
7e1800
181800
1bf980
1b7d80
1b6f80
1b6f00
1bef00
1e0600
39eec0
779fc0
0073c0
01c180
000000
ENDCHAR
STARTCHAR 3069
ENCODING 12393
SWIDTH 1000 0
DWIDTH 18 0
BBX 18 18 0 -2
BITMAP
000000
00c000
00c000
7fffc0
030000
060600
0fff00
3c0380
000000
0ffe00
0c0600
0ffe00
0c0600
0ffe00
0c0600
0c0600
0c1e00
000000
ENDCHAR
STARTCHAR 306a
ENCODING 12394
SWIDTH 1000 0
DWIDTH 18 0
BBX 18 18 0 -2
BITMAP
000000
060000
061f80
7ff980
0c1b80
0c1b00
1fdf00
18de00
38db00
7fd980
18d980
18d980
1fd980
18d980
18df80
18d800
1bd800
000000
ENDCHAR
STARTCHAR 306b
ENCODING 12395
SWIDTH 1000 0
DWIDTH 18 0
BBX 18 18 0 -2
BITMAP
000000
00d980
7f9b00
1bffc0
18d980
199bc0
19ffc0
3ffb00
3c1980
7dffc0
3d9800
3dcd80
3def00
3de600
038fc0
031bc0
077180
000000
ENDCHAR
STARTCHAR 306c
ENCODING 12396
SWIDTH 1000 0
DWIDTH 18 0
BBX 18 18 0 -2
BITMAP
000000
000000
000000
000000
000000
000000
000000
000000
3fff80
000000
000000
000000
000000
000000
000000
000000
000000
000000
ENDCHAR
STARTCHAR 306d
ENCODING 12397
SWIDTH 1000 0
DWIDTH 18 0
BBX 18 18 0 -2
BITMAP
000000
00c000
00c000
7fffc0
00c000
00c000
1fff00
000000
7fffc0
6000c0
6c1cc0
0cf800
0fc000
0c0180
0c0380
0e0300
07ff00
000000
ENDCHAR
STARTCHAR 306e
ENCODING 12398
SWIDTH 1000 0
DWIDTH 18 0
BBX 18 18 0 -2
BITMAP
000000
018300
39c700
1cc600
0fff80
00c600
71c700
398300
1b8380
0701c0
000000
0fff80
1f6d80
1b6d80
3b6d80
336d80
77ffc0
000000
ENDCHAR
STARTCHAR 306f
ENCODING 12399
SWIDTH 1000 0
DWIDTH 18 0
BBX 18 18 0 -2
BITMAP
000000
006000
387f00
1ce600
0dcc00
03ff80
019980
019980
7d9980
0dff80
0c6c00
0cec00
0cccc0
0dccc0
1f87c0
3e0000
73ffc0
000000
ENDCHAR
STARTCHAR 3070
ENCODING 12400
SWIDTH 1000 0
DWIDTH 18 0
BBX 18 18 0 -2
BITMAP
000000
038380
0f1f00
7cf800
0c0000
0cd980
7fff80
0c6f00
0c0000
1edf80
1fd980
3cd980
3cdf80
6cd980
0cd980
0cd980
0cdf80
000000
ENDCHAR
STARTCHAR 3071
ENCODING 12401
SWIDTH 1000 0
DWIDTH 18 0
BBX 18 18 0 -2
BITMAP
000000
031800
031800
7fffc0
031800
03d800
38c000
1cff80
0dd980
019b80
03bf00
0c3c00
1c7e00
186600
38e700
71c380
0381c0
000000
ENDCHAR
STARTCHAR 3072
ENCODING 12402
SWIDTH 1000 0
DWIDTH 18 0
BBX 18 18 0 -2
BITMAP
000000
031800
031800
7fffc0
031800
031800
000000
1fff00
00c000
00c000
7fffc0
00c000
00c000
00c000
00c000
00c000
03c000
000000
ENDCHAR
STARTCHAR 3073
ENCODING 12403
SWIDTH 1000 0
DWIDTH 18 0
BBX 18 18 0 -2
BITMAP
000000
18ffc0
1f18c0
3b18c0
36ffc0
7fc600
3fc600
3fffc0
3f18c0
3fdec0
3f7bc0
3f18c0
00f9c0
3ffbc0
3fdec0
7f39c0
607380
000000
ENDCHAR
STARTCHAR 3074
ENCODING 12404
SWIDTH 1000 0
DWIDTH 18 0
BBX 18 18 0 -2
BITMAP
000000
030000
030000
070c00
060e00
0e0700
0cff80
3fd980
031800
031800
031800
031800
071800
0618c0
0e18c0
1c1dc0
780f80
000000
ENDCHAR
STARTCHAR 3075
ENCODING 12405
SWIDTH 1000 0
DWIDTH 18 0
BBX 18 18 0 -2
BITMAP
000000
01c000
078000
3e7f80
306180
306180
306180
306180
3fe180
306180
306180
306180
306180
306180
3fef80
006000
006000
000000
ENDCHAR
STARTCHAR 3076
ENCODING 12406
SWIDTH 1000 0
DWIDTH 18 0
BBX 18 18 0 -2
BITMAP
000000
000000
01ff80
7d8180
6d9980
6d9980
6dff80
6d9980
6d9980
6dbd80
6dbd80
7dbd80
01e780
018180
018180
01ff80
000000
000000
ENDCHAR
STARTCHAR 3077
ENCODING 12407
SWIDTH 1000 0
DWIDTH 18 0
BBX 18 18 0 -2
BITMAP
000000
000000
0ffe00
0c0600
0c0600
0ffe00
000000
1fff00
180300
1fff00
180300
1fff00
180300
1fff00
000000
0e0e00
3c0780
000000
ENDCHAR
STARTCHAR 3078
ENCODING 12408
SWIDTH 1000 0
DWIDTH 18 0
BBX 18 18 0 -2
BITMAP
000000
000000
3fff80
300180
30c180
30c180
3fff80
30c180
31e180
31f180
33b980
371d80
3e0f80
300180
300180
3fff80
000000
000000
ENDCHAR
STARTCHAR 3079
ENCODING 12409
SWIDTH 1000 0
DWIDTH 18 0
BBX 18 18 0 -2
BITMAP
000000
180000
19ff80
198180
199980
7f9980
1fff80
1f9980
3f9980
37bd80
3fbd80
3dbd80
7de780
1f8180
1f8180
39ff80
700000
000000
ENDCHAR
STARTCHAR 307a
ENCODING 12410
SWIDTH 1000 0
DWIDTH 18 0
BBX 18 18 0 -2
BITMAP
000000
000300
7fc300
00c300
00c300
00c300
3fc300
300300
300300
300300
3fc300
00c300
00c300
01c300
018300
038300
1f0300
000000
ENDCHAR
STARTCHAR 307b
ENCODING 12411
SWIDTH 1000 0
DWIDTH 18 0
BBX 18 18 0 -2
BITMAP
000000
0c3000
1e3000
1f3000
3bbfc0
3c30c0
7f7dc0
336d80
3f0c00
330c00
3f1e00
301e00
331e00
333f00
3fb300
3df380
70e1c0
000000
ENDCHAR
STARTCHAR 307c
ENCODING 12412
SWIDTH 1000 0
DWIDTH 18 0
BBX 18 18 0 -2
BITMAP
000000
380780
1dfe00
0c0180
01b380
71fb00
38d800
180f00
00fc00
001800
0c1800
0fffc0
1c1800
181800
381800
31ff80
700000
000000
ENDCHAR
STARTCHAR 307d
ENCODING 12413
SWIDTH 1000 0
DWIDTH 18 0
BBX 18 18 0 -2
BITMAP
000000
18c300
198300
1f3300
1be300
18c300
199b00
1fff00
180f00
1bfb00
1b1b00
1bfb00
1b1b00
1bfb00
3b1bc0
331bc0
7339c0
000000
ENDCHAR
STARTCHAR 307e
ENCODING 12414
SWIDTH 1000 0
DWIDTH 18 0
BBX 18 18 0 -2
BITMAP
000000
031800
7fffc0
031800
000000
3e1c00
363600
367f00
3dc1c0
3c7f00
360600
36ff80
360000
3fffc0
306300
30df80
31f9c0
000000
ENDCHAR
STARTCHAR 3121
ENCODING 12577
SWIDTH 1000 0
DWIDTH 18 0
BBX 18 18 0 -2
BITMAP
000000
001800
3e1800
37ff80
378180
378180
3cff00
3c0000
360000
37ffc0
366c00
366c00
366c00
3eec00
30ccc0
31cdc0
338780
000000
ENDCHAR
STARTCHAR 3122
ENCODING 12578
SWIDTH 1000 0
DWIDTH 18 0
BBX 18 18 0 -2
BITMAP
000000
001800
3e3c00
367e00
36e700
37ff80
3f81c0
3cff00
360600
360c00
36ff00
360000
37ffc0
3e6000
306300
30df80
31f9c0
000000
ENDCHAR
STARTCHAR 3123
ENCODING 12579
SWIDTH 1000 0
DWIDTH 18 0
BBX 18 18 0 -2
BITMAP
000000
000380
3e1f00
37f980
36db80
366f00
3cff80
3c0180
36ff80
360180
36ff80
361800
360c00
3efd80
30f1c0
31f3c0
319f00
000000
ENDCHAR
STARTCHAR 3124
ENCODING 12580
SWIDTH 1000 0
DWIDTH 18 0
BBX 18 18 0 -2
BITMAP
000000
0c0000
0c7f80
7fe180
336180
3f7f80
1e0000
7fff80
006180
3f7f80
336180
337f80
3f6180
337f80
333300
3f7380
00e1c0
000000
ENDCHAR
STARTCHAR 3125
ENCODING 12581
SWIDTH 1000 0
DWIDTH 18 0
BBX 18 18 0 -2
BITMAP
000000
000600
3f0600
330600
330600
33ffc0
330600
330600
33e600
337600
333600
330600
3f0600
000600
000600
000600
001e00
000000
ENDCHAR
STARTCHAR 3126
ENCODING 12582
SWIDTH 1000 0
DWIDTH 18 0
BBX 18 18 0 -2
BITMAP
000000
018000
018000
018000
7fffc0
030000
030000
070000
060000
0fff00
1e0300
3e0300
760300
060300
060300
07ff00
000000
000000
ENDCHAR
STARTCHAR 3127
ENCODING 12583
SWIDTH 1000 0
DWIDTH 18 0
BBX 18 18 0 -2
BITMAP
000000
00c000
00c000
3fff80
300180
300180
3fff80
00c000
00c000
00c000
7fffc0
00c000
00c000
00c000
00c000
00c000
03c000
000000
ENDCHAR
STARTCHAR 3128
ENCODING 12584
SWIDTH 1000 0
DWIDTH 18 0
BBX 18 18 0 -2
BITMAP
000000
006000
00c000
0ffe00
0c0600
0c0600
0c0600
0ffe00
0c0000
0fffc0
0c0000
0fff80
001980
1edd80
3fef80
336300
000f00
000000
ENDCHAR
STARTCHAR 3129
ENCODING 12585
SWIDTH 1000 0
DWIDTH 18 0
BBX 18 18 0 -2
BITMAP
000000
000000
7fff80
018180
018180
39b980
1d9d80
0d8d80
018180
078780
0f8f80
1d9d80
39b980
71f180
018180
018180
078780
000000
ENDCHAR
STARTCHAR 312a
ENCODING 12586
SWIDTH 1000 0
DWIDTH 18 0
BBX 18 18 0 -2
BITMAP
000000
000000
39ff80
1c1800
0c1800
001800
001800
03ffc0
7c1800
0c1800
0c1800
0c1800
0c1800
0c1800
1c7800
3e0000
73ffc0
000000
ENDCHAR
STARTCHAR 312b
ENCODING 12587
SWIDTH 1000 0
DWIDTH 18 0
BBX 18 18 0 -2
BITMAP
000000
000000
7fffc0
00c000
00c000
3fff80
30c180
3ef980
37dd80
33cd80
30c180
3ef980
37dd80
33cd80
30c180
30c180
300780
000000
ENDCHAR
STARTCHAR 312c
ENCODING 12588
SWIDTH 1000 0
DWIDTH 18 0
BBX 18 18 0 -2
BITMAP
000000
01c000
078000
3e3f80
31b180
31b180
31b180
31b180
31b180
31b180
31b180
31b180
3fb180
733780
073000
0e3000
3c3000
000000
ENDCHAR
STARTCHAR 312d
ENCODING 12589
SWIDTH 1000 0
DWIDTH 18 0
BBX 18 18 0 -2
BITMAP
000000
330c00
3f1800
1e7f80
7fe180
0dff80
3fe180
3c7f80
3c6000
3fffc0
0de000
0dffc0
1f80c0
3cffc0
6cffc0
0d81c0
0c0780
000000
ENDCHAR
STARTCHAR 312e
ENCODING 12590
SWIDTH 1000 0
DWIDTH 18 0
BBX 18 18 0 -2
BITMAP
000000
00c000
00c000
3fff80
333180
3e3f80
000000
0c7f00
3f6300
0c7f00
0c6300
7fff00
0c6300
1e7f00
1f36c0
3876c0
71e3c0
000000
ENDCHAR
STARTCHAR 312f
ENCODING 12591
SWIDTH 1000 0
DWIDTH 18 0
BBX 18 18 0 -2
BITMAP
000000
000000
3ffc00
030c00
030c00
030c00
030c00
030c00
7fffc0
060c00
060c00
060c00
060c00
060c00
060c00
7fffc0
000000
000000
ENDCHAR
STARTCHAR 3130
ENCODING 12592
SWIDTH 1000 0
DWIDTH 18 0
BBX 18 18 0 -2
BITMAP
000000
001b00
003f00
7fb600
0c7fc0
0ce600
1de600
186600
1f7f80
3b6600
7b6600
1b6600
1b7f80
1b6600
1b6600
1f6600
007fc0
000000
ENDCHAR
STARTCHAR 3131
ENCODING 12593
SWIDTH 1000 0
DWIDTH 18 0
BBX 18 18 0 -2
BITMAP
000000
01c000
078000
1e3f00
180300
180300
180300
180300
180300
1fbf00
180300
180300
180300
180300
180300
1fff00
000000
000000
ENDCHAR
STARTCHAR 3132
ENCODING 12594
SWIDTH 1000 0
DWIDTH 18 0
BBX 18 18 0 -2
BITMAP
000000
000000
39ff00
1d8300
0d8300
01bf00
71b300
39b300
1bff80
030180
0f7d80
0f6d80
1f6d80
1b6d80
3b7d80
330180
730780
000000
ENDCHAR
STARTCHAR 3133
ENCODING 12595
SWIDTH 1000 0
DWIDTH 18 0
BBX 18 18 0 -2
BITMAP
000000
003000
003f80
7c3000
6fffc0
6f30c0
6f3f80
6ff000
6f3180
6f1f80
6f0000
7f3600
07f6c0
06f780
0ef780
1c3600
01ffc0
000000
ENDCHAR
STARTCHAR 3134
ENCODING 12596
SWIDTH 1000 0
DWIDTH 18 0
BBX 18 18 0 -2
BITMAP
000000
000000
00ff80
7ec180
66c180
66ff80
66c180
66c180
66c180
66ff80
66c180
66c180
7ec180
00ff80
006300
00e380
01c1c0
000000
ENDCHAR
STARTCHAR 3135
ENCODING 12597
SWIDTH 1000 0
DWIDTH 18 0
BBX 18 18 0 -2
BITMAP
000000
19b300
7eefc0
19b300
3ce780
7fbfc0
1fff00
1b3300
1fff00
000000
3f8300
31ffc0
3f8300
31b300
3f9b00
330300
7f8f00
000000
ENDCHAR
STARTCHAR 3136
ENCODING 12598
SWIDTH 1000 0
DWIDTH 18 0
BBX 18 18 0 -2
BITMAP
000000
031800
031800
7fffc0
031800
000300
3fc300
30c300
3fffc0
300300
3fdb00
300f00
3fcf00
330300
7fc300
7b6300
070f00
000000
ENDCHAR
STARTCHAR 3137
ENCODING 12599
SWIDTH 1000 0
DWIDTH 18 0
BBX 18 18 0 -2
BITMAP
000000
183f00
1f3300
3b3f00
363300
7fbf00
3d8000
3dff80
3fff80
3dff80
3d8000
3fff00
003300
3fff00
3fde00
7f3f00
60f3c0
000000
ENDCHAR
STARTCHAR 3138
ENCODING 12600
SWIDTH 1000 0
DWIDTH 18 0
BBX 18 18 0 -2
BITMAP
000000
0c1980
0c1980
0cff80
0c1b00
7f1f00
1b1e00
1bffc0
1b1c00
3b3800
37f380
37ff00
7e3c00
0e3000
1f30c0
3b39c0
701f80
000000
ENDCHAR
STARTCHAR 3139
ENCODING 12601
SWIDTH 1000 0
DWIDTH 18 0
BBX 18 18 0 -2
BITMAP
000000
000000
3fffc0
300000
3fff80
3cde00
3cde00
3fde00
3cde00
3cffc0
3fc600
3c0e00
3d8e00
7d9e00
6fdec0
7cfec0
0073c0
000000
ENDCHAR
STARTCHAR 313a
ENCODING 12602
SWIDTH 1000 0
DWIDTH 18 0
BBX 18 18 0 -2
BITMAP
000000
001b00
381980
1fffc0
0c1800
001800
71ff80
399980
199980
01ff80
0d9980
0d9980
1dff80
199980
399980
319980
719b80
000000
ENDCHAR
STARTCHAR 313b
ENCODING 12603
SWIDTH 1000 0
DWIDTH 18 0
BBX 18 18 0 -2
BITMAP
000000
000700
003e00
1ff600
180600
18c600
18c600
18c600
18c600
18c600
18c700
18c300
18db00
18db00
38ff80
37cd80
7001c0
000000
ENDCHAR
STARTCHAR 313c
ENCODING 12604
SWIDTH 1000 0
DWIDTH 18 0
BBX 18 18 0 -2
BITMAP
000000
000000
3fbf80
31b180
3fbf80
31b180
3fbf80
300180
37fd80
30c180
30c180
33f980
30c180
30c180
3fff80
300180
300780
000000
ENDCHAR
STARTCHAR 313d
ENCODING 12605
SWIDTH 1000 0
DWIDTH 18 0
BBX 18 18 0 -2
BITMAP
000000
00c300
006600
03ffc0
7c3c00
6dff80
6dbd80
6def80
6d8180
6dff80
6d8180
6dff80
7c0300
03ffc0
00c300
006300
000f00
000000
ENDCHAR
STARTCHAR 313e
ENCODING 12606
SWIDTH 1000 0
DWIDTH 18 0
BBX 18 18 0 -2
BITMAP
000000
000000
000000
1fff00
000000
000000
000000
7fffc0
030000
030000
030c00
070e00
060600
067f00
0fe300
3c0380
000000
000000
ENDCHAR
STARTCHAR 313f
ENCODING 12607
SWIDTH 1000 0
DWIDTH 18 0
BBX 18 18 0 -2
BITMAP
000000
000000
3bffc0
1f00c0
0f18c0
01ff80
001800
01ff80
7d9980
0dff80
0d9980
0dff80
0c1800
0fffc0
1c1800
3e0000
73ffc0
000000
ENDCHAR
STARTCHAR 3140
ENCODING 12608
SWIDTH 1000 0
DWIDTH 18 0
BBX 18 18 0 -2
BITMAP
000000
000000
1fff00
00c000
3fff80
30c180
3fdf80
30c180
0fde00
000000
1fff00
000000
7fffc0
060600
0e0600
0c7f00
1fe380
000000
ENDCHAR
STARTCHAR 3141
ENCODING 12609
SWIDTH 1000 0
DWIDTH 18 0
BBX 18 18 0 -2
BITMAP
000000
031800
031800
7fffc0
031800
031800
060700
0e1e00
0df800
1c1800
3c1800
7fffc0
0c1800
0c1800
0c1800
0dff80
0c0000
000000
ENDCHAR
STARTCHAR 3142
ENCODING 12610
SWIDTH 1000 0
DWIDTH 18 0
BBX 18 18 0 -2
BITMAP
000000
060000
0fffc0
0fb300
1df300
3e3300
7fbf00
19b300
1fb300
19b300
1fbf00
183300
19b300
19b3c0
1fff00
1ec300
380300
000000
ENDCHAR
STARTCHAR 3143
ENCODING 12611
SWIDTH 1000 0
DWIDTH 18 0
BBX 18 18 0 -2
BITMAP
000000
060000
07ff80
061980
7ff980
607980
0f1f80
30cf00
6f6f00
198f00
3fc600
70e600
3fcf00
30cf00
3fdf80
30d980
3ff9c0
000000
ENDCHAR
STARTCHAR 3144
ENCODING 12612
SWIDTH 1000 0
DWIDTH 18 0
BBX 18 18 0 -2
BITMAP
000000
198300
1dc700
0cc600
7fffc0
6000c0
6ffec0
0c0600
0c0600
0ffe00
00c000
018000
1fff00
180300
180300
180300
1fff00
000000
ENDCHAR
STARTCHAR 3145
ENCODING 12613
SWIDTH 1000 0
DWIDTH 18 0
BBX 18 18 0 -2
BITMAP
000000
3fbf80
31b180
3fbf80
31b180
3fbf80
31b180
3fbf80
1b1b00
31b180
018000
7fffc0
030c00
063800
0ff000
00fe00
3f8780
000000
ENDCHAR
STARTCHAR 3146
ENCODING 12614
SWIDTH 1000 0
DWIDTH 18 0
BBX 18 18 0 -2
BITMAP
000000
000180
3fc380
30c700
3fce00
30dc00
3fc180
060380
7fe700
000e00
3fdc00
30c0c0
3fc1c0
060380
36c700
666e00
0e1c00
000000
ENDCHAR
STARTCHAR 3147
ENCODING 12615
SWIDTH 1000 0
DWIDTH 18 0
BBX 18 18 0 -2
BITMAP
000000
001800
001800
7e1800
67ff80
679980
679980
679980
7f9980
679980
67ffc0
663c00
667e00
7e6600
00e700
01c380
0381c0
000000
ENDCHAR
STARTCHAR 3148
ENCODING 12616
SWIDTH 1000 0
DWIDTH 18 0
BBX 18 18 0 -2
BITMAP
000000
00c000
00c000
3fff80
30c180
30c180
3fff80
30c180
30c180
30c180
3fff80
00c600
00ee00
007cc0
00f8c0
07dec0
7e07c0
000000
ENDCHAR
STARTCHAR 3149
ENCODING 12617
SWIDTH 1000 0
DWIDTH 18 0
BBX 18 18 0 -2
BITMAP
000000
038300
39c700
1cce00
0c0c00
3fff80
300180
30c180
00c000
7fffc0
03f000
07f800
06dc00
0ece00
1cc700
78c3c0
00c000
000000
ENDCHAR
STARTCHAR 314a
ENCODING 12618
SWIDTH 1000 0
DWIDTH 18 0
BBX 18 18 0 -2
BITMAP
000000
03c000
00f000
003000
000000
0fe000
006380
006700
3f7e00
037c00
077800
067c00
0e6e00
1c6700
386380
7061c0
03e000
000000
ENDCHAR
STARTCHAR 314b
ENCODING 12619
SWIDTH 1000 0
DWIDTH 18 0
BBX 18 18 0 -2
BITMAP
000000
01e000
387800
1c1800
0c0000
03f000
703180
383b80
1fff00
00fe00
00fc00
19fe00
19b600
3bb700
373380
7e31c0
60f000
000000
ENDCHAR
STARTCHAR 314c
ENCODING 12620
SWIDTH 1000 0
DWIDTH 18 0
BBX 18 18 0 -2
BITMAP
000000
003000
383000
1fff80
0f3180
033180
73ff80
3b3180
1b3180
03ff80
0c3000
0c3b00
1c1f00
181e00
383cc0
30ffc0
77c3c0
000000
ENDCHAR
STARTCHAR 314d
ENCODING 12621
SWIDTH 1000 0
DWIDTH 18 0
BBX 18 18 0 -2
BITMAP
000000
006600
7e6600
1bffc0
186600
186600
181800
7fff80
199980
199980
199980
1bffc0
183c00
1e7e00
78e700
01c380
0381c0
000000
ENDCHAR
STARTCHAR 314e
ENCODING 12622
SWIDTH 1000 0
DWIDTH 18 0
BBX 18 18 0 -2
BITMAP
000000
000000
7ffc00
0c0c00
0c0c00
0fff80
0c3180
1f6180
19c180
3f7780
700000
1fff00
1b3300
1b3300
1b3300
7fffc0
000000
000000
ENDCHAR
STARTCHAR 314f
ENCODING 12623
SWIDTH 1000 0
DWIDTH 18 0
BBX 18 18 0 -2
BITMAP
000000
300000
33ffc0
3f0c00
303f80
30f180
1ff180
003f80
07b180
3e3180
063f80
7ff180
1e3180
1fbf80
3fdb00
763b80
0671c0
000000
ENDCHAR
STARTCHAR 3150
ENCODING 12624
SWIDTH 1000 0
DWIDTH 18 0
BBX 18 18 0 -2
BITMAP
000000
300000
33ffc0
3f0c00
303f80
30f180
1ff180
003f80
3ff180
003180
7fff80
063180
1fb180
3fff80
36db00
763b80
0e71c0
000000
ENDCHAR
STARTCHAR 3151
ENCODING 12625
SWIDTH 1000 0
DWIDTH 18 0
BBX 18 18 0 -2
BITMAP
000000
060c00
060c00
7fffc0
060c00
06cc00
00c000
1fff00
18c300
18c300
18c300
7fffc0
01b000
03b800
071c00
1e0f00
7803c0
000000
ENDCHAR
STARTCHAR 3152
ENCODING 12626
SWIDTH 1000 0
DWIDTH 18 0
BBX 18 18 0 -2
BITMAP
000000
0cc000
1fffc0
399800
719800
07fc00
0c0000
1fffc0
3b1980
7bf980
183180
1ffd80
19b180
19b180
1fff80
183180
183380
000000
ENDCHAR
STARTCHAR 3153
ENCODING 12627
SWIDTH 1000 0
DWIDTH 18 0
BBX 18 18 0 -2
BITMAP
000000
007000
3e3c00
000c00
7f0000
00f800
3e1800
001980
01ff80
3e7f00
007e00
007e00
3eff00
36db00
37db80
3799c0
3e7800
000000
ENDCHAR
STARTCHAR 3154
ENCODING 12628
SWIDTH 1000 0
DWIDTH 18 0
BBX 18 18 0 -2
BITMAP
000000
0c6180
1e7380
1f3300
3bff80
31e180
7f6180
0c6180
0c6180
7fff80
0c3600
6f3600
7f3600
3c7600
0fe6c0
7ce6c0
01c3c0
000000
ENDCHAR
STARTCHAR 3155
ENCODING 12629
SWIDTH 1000 0
DWIDTH 18 0
BBX 18 18 0 -2
BITMAP
000000
001800
381800
1fffc0
0c6c00
006c00
70ef80
38cd80
19dd80
03df80
0cfb80
0ccf00
1ccf00
18c600
38cf00
30df80
70f9c0
000000
ENDCHAR
STARTCHAR 3156
ENCODING 12630
SWIDTH 1000 0
DWIDTH 18 0
BBX 18 18 0 -2
BITMAP
000000
006000
006000
1fffc0
780000
39fc00
198c00
1b8c00
1f0fc0
180000
3fff00
798700
19ce00
38fc00
307800
71fe00
0f87c0
000000
ENDCHAR
STARTCHAR 3157
ENCODING 12631
SWIDTH 1000 0
DWIDTH 18 0
BBX 18 18 0 -2
BITMAP
000000
0c0600
0e0e00
071c00
031800
7fffc0
031800
071c00
0e0e00
1c0700
7803c0
0ffe00
0db600
0db600
0db600
0db600
7fffc0
000000
ENDCHAR
STARTCHAR 3158
ENCODING 12632
SWIDTH 1000 0
DWIDTH 18 0
BBX 18 18 0 -2
BITMAP
000000
000000
3fff80
361980
361980
3fd980
361980
361980
3fdf80
361e00
361e00
3fff00
007b00
7ffb00
7ffb80
60f980
01f1c0
000000
ENDCHAR
STARTCHAR 3159
ENCODING 12633
SWIDTH 1000 0
DWIDTH 18 0
BBX 18 18 0 -2
BITMAP
000000
0cc180
0ce380
0c6300
0cff80
3ec180
3fc180
3fc180
7cc180
6cff80
0c3600
0c3600
0c3600
0c7600
0c66c0
0ce6c0
0dc3c0
000000
ENDCHAR
STARTCHAR 315a
ENCODING 12634
SWIDTH 1000 0
DWIDTH 18 0
BBX 18 18 0 -2
BITMAP
000000
000000
3eff80
00c180
7fff80
00c180
3eff80
006000
007fc0
3ee0c0
01cec0
00fcc0
3ec0c0
36c6c0
367fc0
360180
3e0780
000000
ENDCHAR
STARTCHAR 315b
ENCODING 12635
SWIDTH 1000 0
DWIDTH 18 0
BBX 18 18 0 -2
BITMAP
000000
0c0f00
0c0d80
3f0c00
0cffc0
0ccc00
7fcd80
0ccd80
0ccf80
3ccf00
3fcf00
3cf600
3dcfc0
3c1fc0
3c3980
7f0000
63ffc0
000000
ENDCHAR
STARTCHAR 315c
ENCODING 12636
SWIDTH 1000 0
DWIDTH 18 0
BBX 18 18 0 -2
BITMAP
000000
000000
3fbf80
31b180
3fbf80
31b180
3fbf80
331980
31b180
37fd80
360d80
360d80
37fd80
31b180
33b780
3f1f80
300380
000000
ENDCHAR
STARTCHAR 315d
ENCODING 12637
SWIDTH 1000 0
DWIDTH 18 0
BBX 18 18 0 -2
BITMAP
000000
0c0000
0dffc0
0c1800
7fff80
0cc180
0cff80
1ec180
1fff80
1fc180
3cff80
3c3000
6c7f80
0de380
0c7700
0c3e00
0df7c0
000000
ENDCHAR
STARTCHAR 315e
ENCODING 12638
SWIDTH 1000 0
DWIDTH 18 0
BBX 18 18 0 -2
BITMAP
000000
000000
3fffc0
300000
3fc780
3cc6c0
3fc600
3cffc0
3fc600
300600
3fcf00
3ccf00
3fcf00
7ccf00
6fdf80
6cd980
0df9c0
000000
ENDCHAR
STARTCHAR 315f
ENCODING 12639
SWIDTH 1000 0
DWIDTH 18 0
BBX 18 18 0 -2
BITMAP
000000
000000
3fff80
30c180
30c180
30c180
30c180
30c180
30c180
3fff80
300180
300180
300180
300180
300180
300780
000000
000000
ENDCHAR
STARTCHAR 3160
ENCODING 12640
SWIDTH 1000 0
DWIDTH 18 0
BBX 18 18 0 -2
BITMAP
000000
000000
3fff80
30c180
37fd80
30c180
3fff80
300180
37fd80
360d80
37fd80
31f780
33dd80
3ecf80
30c180
3fff80
000000
000000
ENDCHAR
STARTCHAR 3161
ENCODING 12641
SWIDTH 1000 0
DWIDTH 18 0
BBX 18 18 0 -2
BITMAP
000000
180000
1bffc0
1b0000
1b7f00
1b6300
7f7f00
1b6300
1b7f00
1b1800
1bff80
1b3600
1f7e00
7b1c00
03f780
030000
03ffc0
000000
ENDCHAR
STARTCHAR 3162
ENCODING 12642
SWIDTH 1000 0
DWIDTH 18 0
BBX 18 18 0 -2
BITMAP
000000
018000
018000
7fffc0
031800
06cc00
0cc600
1fff00
78c3c0
18c300
1fff00
18c300
18c300
1fff00
00c0c0
00e1c0
007f80
000000
ENDCHAR
STARTCHAR 3163
ENCODING 12643
SWIDTH 1000 0
DWIDTH 18 0
BBX 18 18 0 -2
BITMAP
000000
00c000
00c000
3fff80
300180
37fd80
060c00
07fc00
060c00
07fc00
018000
7fffc0
030c00
061c00
0ff800
01de00
1f0700
000000
ENDCHAR
STARTCHAR 3164
ENCODING 12644
SWIDTH 1000 0
DWIDTH 18 0
BBX 18 18 0 -2
BITMAP
000000
000380
7f0f00
06fc00
0c0c00
180c00
3e6c00
066f80
066c00
366c00
3e6c00
1e6c00
1e6c00
0dffc0
1e0000
3f8000
71ffc0
000000
ENDCHAR
STARTCHAR 3165
ENCODING 12645
SWIDTH 1000 0
DWIDTH 18 0
BBX 18 18 0 -2
BITMAP
000000
0c0000
0fff80
1cf180
19f180
3db780
7fb000
0730c0
0e39c0
1c1f80
780000
00e000
1b7300
1b3380
3b07c0
338ec0
71fc00
000000
ENDCHAR
STARTCHAR 3166
ENCODING 12646
SWIDTH 1000 0
DWIDTH 18 0
BBX 18 18 0 -2
BITMAP
000000
186000
186000
1fffc0
18c600
7ef600
19b300
1bff80
1fb3c0
19b300
1fff00
79b300
19b300
19ff00
1830c0
1839c0
381f80
000000
ENDCHAR
STARTCHAR 3167
ENCODING 12647
SWIDTH 1000 0
DWIDTH 18 0
BBX 18 18 0 -2
BITMAP
000000
180780
1bfe00
19b180
7ffb80
18db00
19ff80
186000
1bffc0
1e6000
787f00
18e300
19c700
1bfe00
183c00
18ff00
3bc3c0
000000
ENDCHAR
STARTCHAR 3168
ENCODING 12648
SWIDTH 1000 0
DWIDTH 18 0
BBX 18 18 0 -2
BITMAP
000000
38c600
1cc600
0cc600
01c700
018300
738380
3f01c0
180000
01ff00
0d8300
0d8300
1d8300
198300
398300
318300
71ff00
000000
ENDCHAR
STARTCHAR 3169
ENCODING 12649
SWIDTH 1000 0
DWIDTH 18 0
BBX 18 18 0 -2
BITMAP
000000
001800
381800
1fffc0
0f00c0
03ffc0
701800
39ff80
199980
019980
0dff80
0d9980
1d9980
19ff80
38c300
31c380
7381c0
000000
ENDCHAR
STARTCHAR 316a
ENCODING 12650
SWIDTH 1000 0
DWIDTH 18 0
BBX 18 18 0 -2
BITMAP
000000
00c000
0cc300
0cc700
1dee00
19f000
03b800
0f1e00
3cc780
00c300
0cc700
1dee00
39f000
03b800
071c00
1e0f00
7803c0
000000
ENDCHAR
STARTCHAR 316b
ENCODING 12651
SWIDTH 1000 0
DWIDTH 18 0
BBX 18 18 0 -2
BITMAP
000000
0c1800
0c1800
0c3f80
0db180
3ff380
3fe700
3c0600
7cdfc0
6cd8c0
0cd8c0
1ed8c0
1edfc0
1fd8c0
3bd8c0
30d8c0
70dfc0
000000
ENDCHAR
STARTCHAR 316c
ENCODING 12652
SWIDTH 1000 0
DWIDTH 18 0
BBX 18 18 0 -2
BITMAP
000000
0c0000
0dffc0
0c3c00
0f3c00
3fff80
3ffd80
3cfd80
7cfd80
6cff80
0c1800
1e1800
1eff80
1f1800
3b1800
31ffc0
700000
000000
ENDCHAR
STARTCHAR 316d
ENCODING 12653
SWIDTH 1000 0
DWIDTH 18 0
BBX 18 18 0 -2
BITMAP
000000
031800
031800
7fffc0
031800
03f800
0c06c0
7df780
0db700
0db600
0db6c0
3df6c0
7c07c0
000000
1b3300
3bbb80
7199c0
000000
ENDCHAR
STARTCHAR 316e
ENCODING 12654
SWIDTH 1000 0
DWIDTH 18 0
BBX 18 18 0 -2
BITMAP
000000
061800
661800
3dff80
181800
1bffc0
3c0000
6dff80
0d8180
1d8180
3dff80
6c6cc0
0cefc0
0fc780
0cc700
1cfb80
7bc1c0
000000
ENDCHAR
STARTCHAR 316f
ENCODING 12655
SWIDTH 1000 0
DWIDTH 18 0
BBX 18 18 0 -2
BITMAP
000000
0c0000
1cff00
380300
73ff00
3f0300
0fffc0
1c3000
3b7980
7fdf00
0f3e00
0c6c00
3fde00
3f3f00
7f6d80
6cccc0
0c3800
000000
ENDCHAR
STARTCHAR 3170
ENCODING 12656
SWIDTH 1000 0
DWIDTH 18 0
BBX 18 18 0 -2
BITMAP
000000
0f1800
3fdf80
3fd980
3ffb80
3ff300
3fffc0
0036c0
7ff6c0
0036c0
3fffc0
30f000
3ff000
19b000
1fb0c0
0f30c0
7fffc0
000000
ENDCHAR
STARTCHAR 3171
ENCODING 12657
SWIDTH 1000 0
DWIDTH 18 0
BBX 18 18 0 -2
BITMAP
000000
031800
031800
7fffc0
031800
031800
0c0000
0fff80
1cf180
19f180
3fb180
77b180
033780
073000
0e30c0
1c39c0
781f80
000000
ENDCHAR
STARTCHAR 3172
ENCODING 12658
SWIDTH 1000 0
DWIDTH 18 0
BBX 18 18 0 -2
BITMAP
000000
031800
7fffc0
031800
3fff80
30c180
37fd80
30c180
3fff80
300180
37fd80
360d80
37fd80
31cf80
3ff980
30cf80
3fff80
000000
ENDCHAR
STARTCHAR 3173
ENCODING 12659
SWIDTH 1000 0
DWIDTH 18 0
BBX 18 18 0 -2
BITMAP
000000
001800
381800
1dff80
0c1800
03ffc0
000000
01ff80
7d8180
0dff80
0c39c0
0c7b80
0cfe00
0fdf80
1c19c0
3e1800
73ffc0
000000
ENDCHAR
STARTCHAR 3174
ENCODING 12660
SWIDTH 1000 0
DWIDTH 18 0
BBX 18 18 0 -2
BITMAP
000000
0c1b00
1e1b00
1f1b00
3bbb80
31b180
7f71c0
0c60c0
0c0000
7fbf80
0c3180
6f3180
7f3180
3c3180
0fb180
3c3180
703f80
000000
ENDCHAR
STARTCHAR 3175
ENCODING 12661
SWIDTH 1000 0
DWIDTH 18 0
BBX 18 18 0 -2
BITMAP
000000
0c3f00
1ff300
79b0c0
0f3fc0
0ec000
7ffe00
0c0600
0ffe00
0c0600
0ffe00
0c0000
0fffc0
0c0000
3fff80
76d980
636f80
000000
ENDCHAR
STARTCHAR 3176
ENCODING 12662
SWIDTH 1000 0
DWIDTH 18 0
BBX 18 18 0 -2
BITMAP
000000
018000
198000
1bff80
1f0000
19ff00
7f8300
198300
19ff00
180000
1bff80
1b6d80
1f6d80
7b6d80
036d80
036d80
07ffc0
000000
ENDCHAR
STARTCHAR 3177
ENCODING 12663
SWIDTH 1000 0
DWIDTH 18 0
BBX 18 18 0 -2
BITMAP
000000
0c0c00
0c0c00
0c1e00
7fde00
0c3f00
0c3300
0ff380
0dfdc0
0d8e00
0d8700
1d8300
19b800
1b9c00
3b0e00
330700
770300
000000
ENDCHAR
STARTCHAR 3178
ENCODING 12664
SWIDTH 1000 0
DWIDTH 18 0
BBX 18 18 0 -2
BITMAP
000000
380000
1fff80
0c6000
006000
006000
77ffc0
38c000
18c000
00c000
0dff80
0c0180
1c0180
180180
380380
300300
701f00
000000
ENDCHAR
STARTCHAR 3179
ENCODING 12665
SWIDTH 1000 0
DWIDTH 18 0
BBX 18 18 0 -2
BITMAP
000000
0c0000
0cff80
3cd980
3cd980
3fff80
7cd980
6cd980
0cff80
3f1800
0dffc0
0c18c0
0c38c0
0f30c0
3c71c0
70e180
03c780
000000
ENDCHAR
STARTCHAR 317a
ENCODING 12666
SWIDTH 1000 0
DWIDTH 18 0
BBX 18 18 0 -2
BITMAP
000000
000000
3f1f80
331980
331980
331980
331980
331980
331980
33f980
300180
300180
300180
300180
300180
3fff80
000000
000000
ENDCHAR
STARTCHAR 317b
ENCODING 12667
SWIDTH 1000 0
DWIDTH 18 0
BBX 18 18 0 -2
BITMAP
000000
00c000
00c000
00c000
1fff00
18c300
18c300
18c300
18c300
18c300
7fffc0
01e000
03f000
033800
071c00
1e0f00
7803c0
000000
ENDCHAR
STARTCHAR 317c
ENCODING 12668
SWIDTH 1000 0
DWIDTH 18 0
BBX 18 18 0 -2
BITMAP
000000
00c000
018000
1fff00
180300
1edb00
1bf300
1fff00
19e300
1bf300
1edf00
18c300
198300
7fffc0
03b800
0f1e00
3c0780
000000
ENDCHAR
STARTCHAR 317d
ENCODING 12669
SWIDTH 1000 0
DWIDTH 18 0
BBX 18 18 0 -2
BITMAP
000000
067000
0e3800
1c1800
39ff80
761800
0e1800
1c1800
381800
79ff80
181800
181800
181800
181800
181800
1bffc0
180000
000000
ENDCHAR
STARTCHAR 317e
ENCODING 12670
SWIDTH 1000 0
DWIDTH 18 0
BBX 18 18 0 -2
BITMAP
000000
006000
006000
1fffc0
180000
187000
183800
18dc00
18cc00
1bc000
1bc300
1bc380
1fc1c0
3ec0c0
36c300
70e700
007e00
000000
ENDCHAR
STARTCHAR 3221
ENCODING 12833
SWIDTH 1000 0
DWIDTH 18 0
BBX 18 18 0 -2
BITMAP
000000
180000
19ff80
199980
199980
7f9980
19ff80
199980
199980
199980
1f9980
79ff80
181800
181800
181800
181800
381800
000000
ENDCHAR
STARTCHAR 3222
ENCODING 12834
SWIDTH 1000 0
DWIDTH 18 0
BBX 18 18 0 -2
BITMAP
000000
000000
7fff80
661800
661800
661800
661800
7e1800
67ff80
661800
661800
661800
661800
7e1800
001800
03ffc0
000000
000000
ENDCHAR
STARTCHAR 3223
ENCODING 12835
SWIDTH 1000 0
DWIDTH 18 0
BBX 18 18 0 -2
BITMAP
000000
0c6600
0dff80
0c6600
7f6600
0fffc0
0c1800
1fff80
1f9980
1d9980
3dff80
3d9980
6d9980
0dff80
0cc300
0dc380
0f81c0
000000
ENDCHAR
STARTCHAR 3224
ENCODING 12836
SWIDTH 1000 0
DWIDTH 18 0
BBX 18 18 0 -2
BITMAP
000000
003000
3fb000
303000
303fc0
3f70c0
3f6dc0
36ed80
360c00
360c00
361e00
3f1e00
3f1e00
303f00
303300
3ff380
00e1c0
000000
ENDCHAR
STARTCHAR 3225
ENCODING 12837
SWIDTH 1000 0
DWIDTH 18 0
BBX 18 18 0 -2
BITMAP
000000
000000
3fbf00
303300
303300
3f7300
3fe3c0
360000
367f80
363180
3f3b80
3f1f00
301e00
300c00
3f9e00
003f00
00f3c0
000000
ENDCHAR
STARTCHAR 3226
ENCODING 12838
SWIDTH 1000 0
DWIDTH 18 0
BBX 18 18 0 -2
BITMAP
000000
000000
3fff80
00c000
00c000
00c000
00c000
00c000
1fff00
00c000
00c000
00c000
00c000
00c000
00c000
7fffc0
000000
000000
ENDCHAR
STARTCHAR 3227
ENCODING 12839
SWIDTH 1000 0
DWIDTH 18 0
BBX 18 18 0 -2
BITMAP
000000
031800
071c00
1f8f00
7b83c0
030c00
07fe00
1e0700
000000
7fff80
199980
0d8d80
078780
1f9f80
79f980
018180
078780
000000
ENDCHAR
STARTCHAR 3228
ENCODING 12840
SWIDTH 1000 0
DWIDTH 18 0
BBX 18 18 0 -2
BITMAP
000000
181800
183000
19ff80
7f8180
07ff80
0f9980
0dff80
1dbd80
3fff80
7d9980
1fb180
1bffc0
183c00
187e00
18e700
1bc3c0
000000
ENDCHAR
STARTCHAR 3229
ENCODING 12841
SWIDTH 1000 0
DWIDTH 18 0
BBX 18 18 0 -2
BITMAP
000000
198300
0cc600
7fffc0
60c0c0
6ffec0
0c0600
0ffe00
0c0600
0ffe00
0c0000
0fffc0
0c0000
0fff80
36d980
736d80
600380
000000
ENDCHAR
STARTCHAR 322a
ENCODING 12842
SWIDTH 1000 0
DWIDTH 18 0
BBX 18 18 0 -2
BITMAP
000000
001800
7f3000
60ff00
60c300
7eff00
7ec300
6cff00
6cc000
6cffc0
7ec000
7eff80
600180
61ff80
7fff80
030380
000700
000000
ENDCHAR
STARTCHAR 322b
ENCODING 12843
SWIDTH 1000 0
DWIDTH 18 0
BBX 18 18 0 -2
BITMAP
000000
031800
031800
3fff80
031800
031800
7fffc0
00c000
0ffe00
0cc600
0cc600
0ffe00
0cc600
0cc600
0ffe00
060c00
3c0780
000000
ENDCHAR
STARTCHAR 322c
ENCODING 12844
SWIDTH 1000 0
DWIDTH 18 0
BBX 18 18 0 -2
BITMAP
000000
000000
3fff80
360d80
331980
331980
3fff80
30c180
30c180
36cd80
36cd80
36cd80
36cd80
37fd80
300180
300180
300780
000000
ENDCHAR
STARTCHAR 322d
ENCODING 12845
SWIDTH 1000 0
DWIDTH 18 0
BBX 18 18 0 -2
BITMAP
000000
001800
381800
1c1800
0c1800
03ffc0
7318c0
3b18c0
1b18c0
0318c0
0f18c0
0fffc0
1c1800
181800
381800
301800
701800
000000
ENDCHAR
STARTCHAR 322e
ENCODING 12846
SWIDTH 1000 0
DWIDTH 18 0
BBX 18 18 0 -2
BITMAP
000000
031800
031800
7fffc0
031800
000000
661800
3c18c0
18d9c0
3cdb80
6ddb00
1dbc00
3c3c00
6c7e00
0ce700
1dc380
3b81c0
000000
ENDCHAR
STARTCHAR 322f
ENCODING 12847
SWIDTH 1000 0
DWIDTH 18 0
BBX 18 18 0 -2
BITMAP
000000
0c3000
0c3000
1fff80
18c600
186c00
3fffc0
380000
79ff00
198300
19ff00
198300
19ff00
183000
1bd980
1bc6c0
1e7e00
000000
ENDCHAR
STARTCHAR 3230
ENCODING 12848
SWIDTH 1000 0
DWIDTH 18 0
BBX 18 18 0 -2
BITMAP
000000
000000
1fff80
180180
180180
1fff80
180000
1fff80
198000
198300
1b3f80
1ff180
183000
3bff00
303000
703000
0fffc0
000000
ENDCHAR
STARTCHAR 3231
ENCODING 12849
SWIDTH 1000 0
DWIDTH 18 0
BBX 18 18 0 -2
BITMAP
000000
183000
183000
1bff80
18c600
7c6c00
7fffc0
7e0000
79ff00
198300
19ff00
198300
19ff00
183000
1bd980
1bc6c0
1e7e00
000000
ENDCHAR
STARTCHAR 3232
ENCODING 12850
SWIDTH 1000 0
DWIDTH 18 0
BBX 18 18 0 -2
BITMAP
000000
001800
3e1800
37ff80
36c300
366600
3fffc0
360000
36ff00
36c300
3eff00
36c300
36ff00
361800
36fd80
76f3c0
6f9f00
000000
ENDCHAR
STARTCHAR 3233
ENCODING 12851
SWIDTH 1000 0
DWIDTH 18 0
BBX 18 18 0 -2
BITMAP
000000
0c0000
0dff80
0c0300
7f7600
0c1c00
0dff80
1f9980
1f9980
3dff80
3d9980
6d9980
0dff80
0d9980
0d9980
0d9980
0d9b80
000000
ENDCHAR
STARTCHAR 3234
ENCODING 12852
SWIDTH 1000 0
DWIDTH 18 0
BBX 18 18 0 -2
BITMAP
000000
0c1800
3c1800
3c1800
3c1800
3f1800
7cff80
6c1800
0c1800
0c1800
0f1800
7c1800
0c1800
0c1800
0c1800
0dffc0
0c0000
000000
ENDCHAR
STARTCHAR 3235
ENCODING 12853
SWIDTH 1000 0
DWIDTH 18 0
BBX 18 18 0 -2
BITMAP
000000
000000
3ffe00
001c00
003800
007000
00e000
01c000
038000
070000
0e0000
1c0180
380180
300380
380300
1fff00
000000
000000
ENDCHAR
STARTCHAR 3236
ENCODING 12854
SWIDTH 1000 0
DWIDTH 18 0
BBX 18 18 0 -2
BITMAP
000000
0c6000
0c6000
1fffc0
18cc00
18fc00
39b600
3bff00
7f3380
1f33c0
1bff00
1b3300
1b3300
1bff00
1830c0
1839c0
181f80
000000
ENDCHAR
STARTCHAR 3237
ENCODING 12855
SWIDTH 1000 0
DWIDTH 18 0
BBX 18 18 0 -2
BITMAP
000000
180000
183f80
3ff180
363180
663180
063180
7ff180
063180
363180
37f180
363180
363180
37f780
3e3000
703000
003000
000000
ENDCHAR
STARTCHAR 3238
ENCODING 12856
SWIDTH 1000 0
DWIDTH 18 0
BBX 18 18 0 -2
BITMAP
000000
000000
1fff00
18c300
18c300
1fff00
19b300
1b1b00
1e0f00
180300
1fff00
006000
1b7380
1b31c0
3b06c0
338e00
71fc00
000000
ENDCHAR
STARTCHAR 3239
ENCODING 12857
SWIDTH 1000 0
DWIDTH 18 0
BBX 18 18 0 -2
BITMAP
000000
000000
39ff00
1d8300
0d8300
01ff00
718300
398300
19ff00
000000
0fff80
0f6d80
1f6d80
1b6d80
3b6d80
336d80
77ffc0
000000
ENDCHAR
STARTCHAR 323a
ENCODING 12858
SWIDTH 1000 0
DWIDTH 18 0
BBX 18 18 0 -2
BITMAP
000000
070380
1e1f00
7bf980
19b380
18db00
7fff80
180180
1dff80
1e0180
3fff80
380000
781800
79fd80
19edc0
1be3c0
1b3f00
000000
ENDCHAR
STARTCHAR 323b
ENCODING 12859
SWIDTH 1000 0
DWIDTH 18 0
BBX 18 18 0 -2
BITMAP
000000
00c000
00c000
3fff80
060c00
071c00
031800
7fffc0
000000
0ffe00
0c0600
0c0600
0ffe00
0c0600
0c0600
0c0600
0ffe00
000000
ENDCHAR
STARTCHAR 323c
ENCODING 12860
SWIDTH 1000 0
DWIDTH 18 0
BBX 18 18 0 -2
BITMAP
000000
000000
7fffc0
00c000
00c000
00c000
00f000
00f800
00dc00
00ce00
00c600
00c000
00c000
00c000
00c000
00c000
00c000
000000
ENDCHAR
STARTCHAR 323d
ENCODING 12861
SWIDTH 1000 0
DWIDTH 18 0
BBX 18 18 0 -2
BITMAP
000000
033000
033000
073000
063180
0e3380
0c3f00
1c3c00
3c3000
7c3000
0c3000
0c3000
0c30c0
0c30c0
0c31c0
0c3980
0c1f80
000000
ENDCHAR
STARTCHAR 323e
ENCODING 12862
SWIDTH 1000 0
DWIDTH 18 0
BBX 18 18 0 -2
BITMAP
000000
060000
07ff80
0f8000
0d8000
1d8000
19ff00
39e300
79e700
19f600
19be00
19bc00
1b9800
1b3c00
1f7e00
18e700
19c3c0
000000
ENDCHAR
STARTCHAR 323f
ENCODING 12863
SWIDTH 1000 0
DWIDTH 18 0
BBX 18 18 0 -2
BITMAP
000000
060000
060000
0fffc0
0c0300
1c0300
19f300
39b300
79b300
19b300
19b300
19b300
19f300
180300
180300
180300
180f00
000000
ENDCHAR
STARTCHAR 3240
ENCODING 12864
SWIDTH 1000 0
DWIDTH 18 0
BBX 18 18 0 -2
BITMAP
000000
0d8000
0d8000
0d8f80
1d8d80
1ffd80
39bd80
39bd80
79bd80
19bd80
19bd80
19bd80
1bbd80
1b3d80
1b7d80
1f6f80
1ee000
000000
ENDCHAR
STARTCHAR 3241
ENCODING 12865
SWIDTH 1000 0
DWIDTH 18 0
BBX 18 18 0 -2
BITMAP
000000
060000
060000
0fffc0
0c6c00
1c6c00
186c00
3bff80
7b6d80
1b6d80
1b6d80
1b6d80
1b6d80
1b6d80
1b6d80
1bff80
180000
000000
ENDCHAR
STARTCHAR 3242
ENCODING 12866
SWIDTH 1000 0
DWIDTH 18 0
BBX 18 18 0 -2
BITMAP
000000
061800
061800
0fff80
0c1800
1c1800
181800
3bffc0
780000
181800
181800
19ff80
181800
181800
181800
1bffc0
180000
000000
ENDCHAR
STARTCHAR 3243
ENCODING 12867
SWIDTH 1000 0
DWIDTH 18 0
BBX 18 18 0 -2
BITMAP
000000
0c0000
0c0000
0c1f80
0c1980
7fd980
0cd980
0cd980
0cd980
0cd980
0cd980
1cd980
18d980
19d980
399980
319f80
738000
000000
ENDCHAR
STARTCHAR 3244
ENCODING 12868
SWIDTH 1000 0
DWIDTH 18 0
BBX 18 18 0 -2
BITMAP
000000
000000
7fffc0
000600
000600
0fe600
0c6600
0c6600
0c6600
0c6600
0c6600
0fe600
000600
000600
000600
000600
001e00
000000
ENDCHAR
STARTCHAR 3245
ENCODING 12869
SWIDTH 1000 0
DWIDTH 18 0
BBX 18 18 0 -2
BITMAP
000000
00c000
00c000
7fffc0
00c000
3fff80
000000
0ffe00
0c0600
0ffe00
031800
7fffc0
0c0000
3fbf80
0db180
19b180
77bf80
000000
ENDCHAR
STARTCHAR 3246
ENCODING 12870
SWIDTH 1000 0
DWIDTH 18 0
BBX 18 18 0 -2
BITMAP
000000
000000
7fffc0
00c000
0ffe00
0c0600
0ffe00
0c0600
0ffe00
0c0600
0ffe00
030000
07fe00
0e0c00
3b1800
01f000
7f1fc0
000000
ENDCHAR
STARTCHAR 3247
ENCODING 12871
SWIDTH 1000 0
DWIDTH 18 0
BBX 18 18 0 -2
BITMAP
000000
181800
181800
19ff80
7f8180
1e0000
1eff00
1e3000
3e7980
37db80
3c3f00
7c6c00
0dde00
1e3f00
1e6f80
31cdc0
603800
000000
ENDCHAR
STARTCHAR 3248
ENCODING 12872
SWIDTH 1000 0
DWIDTH 18 0
BBX 18 18 0 -2
BITMAP
000000
00c000
00c000
3fff80
300180
300180
0ffe00
018000
07c380
3ce700
03ee00
0f7000
3cf800
03fc00
0f6f00
7ce3c0
03c000
000000
ENDCHAR
STARTCHAR 3249
ENCODING 12873
SWIDTH 1000 0
DWIDTH 18 0
BBX 18 18 0 -2
BITMAP
000000
00c000
7fffc0
6000c0
7fffc0
00c000
0ffe00
0c0600
0ffe00
0c0600
0ffe00
0c0600
7fffc0
180300
7fffc0
030600
1e1e00
000000
ENDCHAR
STARTCHAR 324a
ENCODING 12874
SWIDTH 1000 0
DWIDTH 18 0
BBX 18 18 0 -2
BITMAP
000000
038300
0f7300
7c3b00
0c1b00
0c0300
7f8300
0c7300
0c3b00
1e1b00
1f0300
3d83c0
3c1f00
6cfb00
0c0300
0c0300
0c0300
000000
ENDCHAR
STARTCHAR 324b
ENCODING 12875
SWIDTH 1000 0
DWIDTH 18 0
BBX 18 18 0 -2
BITMAP
000000
000000
03ff80
7f6180
6f6180
6f6180
6fff80
6f0000
7f3f80
6ff980
6f1f80
6f0f00
6f0f00
7fe600
030f00
031f80
0339c0
000000
ENDCHAR
STARTCHAR 324c
ENCODING 12876
SWIDTH 1000 0
DWIDTH 18 0
BBX 18 18 0 -2
BITMAP
000000
000000
1fff00
18c300
18c300
1fff00
18c300
18c300
1fff00
00c000
7fffc0
03d800
07dc00
0ece00
1cc700
78c3c0
00c000
000000
ENDCHAR
STARTCHAR 324d
ENCODING 12877
SWIDTH 1000 0
DWIDTH 18 0
BBX 18 18 0 -2
BITMAP
000000
0c0000
0c1f80
7fd980
0cd980
0cd980
1cd980
18d980
3bdf80
700000
00c000
7fffc0
03d800
07dc00
1ecf00
78c3c0
00c000
000000
ENDCHAR
STARTCHAR 324e
ENCODING 12878
SWIDTH 1000 0
DWIDTH 18 0
BBX 18 18 0 -2
BITMAP
000000
003000
7ff000
033000
3f3fc0
3f70c0
3f6dc0
03ed80
070c00
000c00
7fde00
031e00
3f1e00
3f3f00
3f3300
037380
07e1c0
000000
ENDCHAR
STARTCHAR 324f
ENCODING 12879
SWIDTH 1000 0
DWIDTH 18 0
BBX 18 18 0 -2
BITMAP
000000
380000
1fffc0
0c0300
000300
01f300
71b300
39b300
19b300
01b300
0db300
0df300
1c0300
180300
380300
300300
700f00
000000
ENDCHAR
STARTCHAR 3250
ENCODING 12880
SWIDTH 1000 0
DWIDTH 18 0
BBX 18 18 0 -2
BITMAP
000000
00c000
00c000
00c180
0cc380
0cc300
0cc700
1cce00
18cc00
39e000
01e000
03f000
033800
071c00
0e0e00
1c0700
7803c0
000000
ENDCHAR
STARTCHAR 3251
ENCODING 12881
SWIDTH 1000 0
DWIDTH 18 0
BBX 18 18 0 -2
BITMAP
000000
000000
7fffc0
180300
180300
18fb00
18db00
7edb00
18db00
18db00
18db00
18fb00
180300
1e0300
780300
000300
000f00
000000
ENDCHAR
STARTCHAR 3252
ENCODING 12882
SWIDTH 1000 0
DWIDTH 18 0
BBX 18 18 0 -2
BITMAP
000000
0c0000
0c7f00
0c6300
7f7f00
037b00
077b00
067b00
0eff80
1cc180
3fff80
7ff780
0cf780
0cf780
0cff80
0cc180
0cc380
000000
ENDCHAR
STARTCHAR 3253
ENCODING 12883
SWIDTH 1000 0
DWIDTH 18 0
BBX 18 18 0 -2
BITMAP
000000
000e00
00fc00
1fc000
00c000
00c000
00c000
7fffc0
03d800
07dc00
06cc00
0ece00
1cc700
38c380
70c1c0
00c000
00c000
000000
ENDCHAR
STARTCHAR 3254
ENCODING 12884
SWIDTH 1000 0
DWIDTH 18 0
BBX 18 18 0 -2
BITMAP
000000
031800
0f1800
7dff80
0d8180
0c0000
7fff00
0c3000
0c7980
1edb80
1f3f00
3c6c00
3dde00
6c3f00
0c6f80
0dcdc0
0c3800
000000
ENDCHAR
STARTCHAR 3255
ENCODING 12885
SWIDTH 1000 0
DWIDTH 18 0
BBX 18 18 0 -2
BITMAP
000000
181800
181800
3fffc0
366c00
630600
3fff80
30c180
3fff80
30c180
30c180
37fd80
360d80
360d80
37fd80
300180
3fff80
000000
ENDCHAR
STARTCHAR 3256
ENCODING 12886
SWIDTH 1000 0
DWIDTH 18 0
BBX 18 18 0 -2
BITMAP
000000
031800
031800
7fffc0
031800
031800
063000
063000
0c3380
1c3f00
3c3c00
6c3000
0c3000
0c3000
0c30c0
0c39c0
0c1f80
000000
ENDCHAR
STARTCHAR 3257
ENCODING 12887
SWIDTH 1000 0
DWIDTH 18 0
BBX 18 18 0 -2
BITMAP
000000
031800
031800
7fffc0
031800
031800
000000
7fffc0
000600
0fe600
0c6600
0c6600
0c6600
0fe600
000600
000600
001e00
000000
ENDCHAR
STARTCHAR 3258
ENCODING 12888
SWIDTH 1000 0
DWIDTH 18 0
BBX 18 18 0 -2
BITMAP
000000
031800
031800
7fffc0
031800
031800
0c0000
0c1f80
7fd980
0cd980
0cd980
1cd980
18d980
19d980
399980
319f80
778000
000000
ENDCHAR
STARTCHAR 3259
ENCODING 12889
SWIDTH 1000 0
DWIDTH 18 0
BBX 18 18 0 -2
BITMAP
000000
031800
031800
7fffc0
031800
031800
0c0000
0fffc0
180600
19f600
39b600
79b600
19b600
19f600
180600
180600
181e00
000000
ENDCHAR
STARTCHAR 325a
ENCODING 12890
SWIDTH 1000 0
DWIDTH 18 0
BBX 18 18 0 -2
BITMAP
000000
031800
031800
7fffc0
031800
3fff80
0cc600
0cc600
7fffc0
0cc600
0cc600
3fff80
00c000
00c000
3fff80
00c000
00c000
000000
ENDCHAR
STARTCHAR 325b
ENCODING 12891
SWIDTH 1000 0
DWIDTH 18 0
BBX 18 18 0 -2
BITMAP
000000
031800
031800
7fffc0
031800
1fff00
18c300
1fff00
18c300
1fff00
00c000
7fffc0
03d800
07dc00
1ecf00
78c3c0
00c000
000000
ENDCHAR
STARTCHAR 325c
ENCODING 12892
SWIDTH 1000 0
DWIDTH 18 0
BBX 18 18 0 -2
BITMAP
000000
000000
19ff80
19b180
19b180
7fb180
7fff80
7f8000
7f9f80
7ffd80
7f8f80
198f00
1fff00
1f8600
3f8f00
779f80
01b9c0
000000
ENDCHAR
STARTCHAR 325d
ENCODING 12893
SWIDTH 1000 0
DWIDTH 18 0
BBX 18 18 0 -2
BITMAP
000000
000000
3eff80
00d980
7fd980
00ff80
3ed980
00d980
00ff80
3e1800
01ffc0
007e00
3e7f00
36fb00
36db80
37d9c0
3e1800
000000
ENDCHAR
STARTCHAR 325e
ENCODING 12894
SWIDTH 1000 0
DWIDTH 18 0
BBX 18 18 0 -2
BITMAP
000000
006600
006600
7fffc0
6c6600
6dff80
6cdb00
6cdb00
6fffc0
6cdb00
6cdb00
6dff80
7c1800
001800
03ffc0
001800
001800
000000
ENDCHAR
STARTCHAR 325f
ENCODING 12895
SWIDTH 1000 0
DWIDTH 18 0
BBX 18 18 0 -2
BITMAP
000000
033000
073380
1e3f00
7e3000
063180
061f80
000000
0ffe00
0c0600
0ffe00
0c0600
0ffe00
0c0600
0ffe00
060c00
3c0780
000000
ENDCHAR
STARTCHAR 3260
ENCODING 12896
SWIDTH 1000 0
DWIDTH 18 0
BBX 18 18 0 -2
BITMAP
000000
018000
718000
398f80
1ffd80
01bd80
01bd80
01bd80
79bd80
19bd80
1bbd80
1b3d80
1b7d80
1f6f80
38e000
3c0000
77ffc0
000000
ENDCHAR
STARTCHAR 3261
ENCODING 12897
SWIDTH 1000 0
DWIDTH 18 0
BBX 18 18 0 -2
BITMAP
000000
01ff00
398300
1dbf00
0db300
01b300
01b300
03ff80
7b0180
1bff80
1bc780
1bc780
1bff80
1b0180
3b0380
3c0000
77ffc0
000000
ENDCHAR
STARTCHAR 3262
ENCODING 12898
SWIDTH 1000 0
DWIDTH 18 0
BBX 18 18 0 -2
BITMAP
000000
3fff80
00c000
7fffc0
60c0c0
7fdfc0
00c000
1fdf00
000000
3fff80
318180
3fff80
300000
3f7f80
303300
3f1e00
30f3c0
000000
ENDCHAR
STARTCHAR 3263
ENCODING 12899
SWIDTH 1000 0
DWIDTH 18 0
BBX 18 18 0 -2
BITMAP
000000
0c0c00
0c0c00
0c0c00
7fffc0
6db300
6db300
6db300
6dbf00
6d9e00
7f9e00
0c0c00
0f1e00
0f1e00
0fbf00
3df380
70e1c0
000000
ENDCHAR
STARTCHAR 3264
ENCODING 12900
SWIDTH 1000 0
DWIDTH 18 0
BBX 18 18 0 -2
BITMAP
000000
0c7f00
0cef80
1fcd80
18cc00
18cc00
3fffc0
38cc00
78cd80
18cd80
18ff80
1fcf00
18cf00
18c6c0
18cfc0
18dfc0
1bf980
000000
ENDCHAR
STARTCHAR 3265
ENCODING 12901
SWIDTH 1000 0
DWIDTH 18 0
BBX 18 18 0 -2
BITMAP
000000
187f00
18ef80
1bcd80
18cc00
7ecc00
7fffc0
7ecc00
7ecd80
7ecd80
7eff80
7fcf00
7ecf00
7ec6c0
00cfc0
00dfc0
03f980
000000
ENDCHAR
STARTCHAR 3266
ENCODING 12902
SWIDTH 1000 0
DWIDTH 18 0
BBX 18 18 0 -2
BITMAP
000000
01f000
07b700
3e3380
063180
063000
7fffc0
063000
063180
063b80
07df00
7e1e00
060c00
061ec0
063fc0
0673c0
1fe180
000000
ENDCHAR
STARTCHAR 3267
ENCODING 12903
SWIDTH 1000 0
DWIDTH 18 0
BBX 18 18 0 -2
BITMAP
000000
000000
3fff80
060c00
060c00
060c00
060c00
060c00
7fffc0
006c00
00ec00
01cc00
038c00
070c00
1e0c00
780c00
003c00
000000
ENDCHAR
STARTCHAR 3268
ENCODING 12904
SWIDTH 1000 0
DWIDTH 18 0
BBX 18 18 0 -2
BITMAP
000000
000000
7fffc0
00c000
00c000
37fd80
36cd80
36cd80
36cd80
37fd80
36cd80
36cd80
36cd80
37fd80
300180
3fff80
000000
000000
ENDCHAR
STARTCHAR 3269
ENCODING 12905
SWIDTH 1000 0
DWIDTH 18 0
BBX 18 18 0 -2
BITMAP
000000
000c00
3fcc00
360c00
360c00
360c00
3fcc00
30cc00
30de00
30de00
3fde00
361e00
363f00
363300
363300
3ff380
0061c0
000000
ENDCHAR
STARTCHAR 326a
ENCODING 12906
SWIDTH 1000 0
DWIDTH 18 0
BBX 18 18 0 -2
BITMAP
000000
031800
031800
7fffc0
031800
000000
3fff80
060c00
060c00
060c00
7fffc0
007c00
00ec00
03cc00
0f0c00
7c0c00
003c00
000000
ENDCHAR
STARTCHAR 326b
ENCODING 12907
SWIDTH 1000 0
DWIDTH 18 0
BBX 18 18 0 -2
BITMAP
000000
183f00
186f80
19ed80
7e6c00
7e6c00
7fffc0
7e6c00
7e6d80
7e6d80
187f00
19ef00
1e6e00
1e66c0
3e67c0
766fc0
01f980
000000
ENDCHAR
STARTCHAR 326c
ENCODING 12908
SWIDTH 1000 0
DWIDTH 18 0
BBX 18 18 0 -2
BITMAP
000000
0c0000
0c3f80
7ff180
0cf180
1cf180
3bff80
700000
0ffe00
0c0600
0ffe00
0c0600
0ffe00
0c0600
0ffe00
060c00
3c0780
000000
ENDCHAR
STARTCHAR 326d
ENCODING 12909
SWIDTH 1000 0
DWIDTH 18 0
BBX 18 18 0 -2
BITMAP
000000
001980
3f9b80
1b1b00
1b3fc0
1b7600
1bf600
1b3600
7fff80
0f3600
0f3600
0f3600
1f3f80
1b3600
3b3600
733600
0f3fc0
000000
ENDCHAR
STARTCHAR 326e
ENCODING 12910
SWIDTH 1000 0
DWIDTH 18 0
BBX 18 18 0 -2
BITMAP
000000
0c1f80
1e36c0
1ff6c0
3b3600
7c3600
3fffc0
333600
3f36c0
3336c0
3f3f80
30f780
363700
3633c0
3f33c0
3f37c0
70fcc0
000000
ENDCHAR
STARTCHAR 326f
ENCODING 12911
SWIDTH 1000 0
DWIDTH 18 0
BBX 18 18 0 -2
BITMAP
000000
0c0000
7fffc0
0cf0c0
1cf0c0
3bffc0
700000
0fff00
0c6000
0ffe00
0c6000
0ffe00
0c6000
0fff80
36d980
736d80
600380
000000
ENDCHAR
STARTCHAR 3270
ENCODING 12912
SWIDTH 1000 0
DWIDTH 18 0
BBX 18 18 0 -2
BITMAP
000000
00c000
01e000
03f000
073800
0e1c00
1e0f00
7e0fc0
060c00
060c00
060c00
060c00
060c00
0e0c00
0c0c00
1c0c00
380c00
000000
ENDCHAR
STARTCHAR 3271
ENCODING 12913
SWIDTH 1000 0
DWIDTH 18 0
BBX 18 18 0 -2
BITMAP
000000
00c000
01e000
03f000
073c00
1e0f00
7803c0
0ffe00
000000
000000
7fffc0
030000
030c00
070c00
067e00
0fe700
3c0380
000000
ENDCHAR
STARTCHAR 3272
ENCODING 12914
SWIDTH 1000 0
DWIDTH 18 0
BBX 18 18 0 -2
BITMAP
000000
180000
1fff80
399980
331980
7ff980
36f780
36c000
3fde00
36de00
36ff80
3ff600
30c600
30ffc0
30c600
70c600
63c600
000000
ENDCHAR
STARTCHAR 3273
ENCODING 12915
SWIDTH 1000 0
DWIDTH 18 0
BBX 18 18 0 -2
BITMAP
000000
000000
3fff80
300180
300180
300180
33f980
331980
331980
331980
331980
33f980
300180
300180
300180
3fff80
000000
000000
ENDCHAR
STARTCHAR 3274
ENCODING 12916
SWIDTH 1000 0
DWIDTH 18 0
BBX 18 18 0 -2
BITMAP
000000
181800
183000
19ff80
199980
7f9980
19ff80
199980
199980
19ff80
186c00
1e6f00
386fc0
70efc0
00cc00
01ccc0
0787c0
000000
ENDCHAR
STARTCHAR 3275
ENCODING 12917
SWIDTH 1000 0
DWIDTH 18 0
BBX 18 18 0 -2
BITMAP
000000
181800
181800
1bffc0
181800
7fff80
19ed80
19ed80
19ff80
181800
1bffc0
1e6c00
38eec0
71c780
07c700
00fb80
03c1c0
000000
ENDCHAR
STARTCHAR 3276
ENCODING 12918
SWIDTH 1000 0
DWIDTH 18 0
BBX 18 18 0 -2
BITMAP
000000
000000
7fff80
06c180
0cc180
18ff80
3ef780
06f780
06f780
36f780
3eff80
1ec180
1ec180
0cff80
1e0000
3f8000
71ffc0
000000
ENDCHAR
STARTCHAR 3277
ENCODING 12919
SWIDTH 1000 0
DWIDTH 18 0
BBX 18 18 0 -2
BITMAP
000000
0c3000
0c3000
0c3000
0dff00
3e3300
3f3300
3f3300
7c3300
6fffc0
0c7800
0c7800
0c7c00
0cec00
0cce00
0dc700
0f83c0
000000
ENDCHAR
STARTCHAR 3278
ENCODING 12920
SWIDTH 1000 0
DWIDTH 18 0
BBX 18 18 0 -2
BITMAP
000000
0c0000
0fff00
0cc300
0ce700
3e7e00
3f3c00
3f7e00
7ce700
6fdbc0
0c1800
0dff80
0c1800
0c1800
0c1800
0fffc0
0c0000
000000
ENDCHAR
STARTCHAR 3279
ENCODING 12921
SWIDTH 1000 0
DWIDTH 18 0
BBX 18 18 0 -2
BITMAP
000000
0cc000
0cc000
0dff80
0d8000
3f0000
3eff00
3fdb00
7cdb00
6cdb00
0fffc0
0db300
0db300
0db300
0dffc0
0c0600
0c1e00
000000
ENDCHAR
STARTCHAR 327a
ENCODING 12922
SWIDTH 1000 0
DWIDTH 18 0
BBX 18 18 0 -2
BITMAP
000000
180000
1bffc0
1b0000
1b1800
7b1980
7f7b80
7f7b00
7bff00
1bde00
1b1800
1b3c00
1b3c00
1b7e00
1e6700
18e380
19c1c0
000000
ENDCHAR
STARTCHAR 327b
ENCODING 12923
SWIDTH 1000 0
DWIDTH 18 0
BBX 18 18 0 -2
BITMAP
000000
181800
181800
1bffc0
181800
7dff80
7fed80
7fed80
79ff80
181800
1bffc0
186c00
18eec0
19c780
1fc700
18fb80
1bc1c0
000000
ENDCHAR
STARTCHAR 327c
ENCODING 12924
SWIDTH 1000 0
DWIDTH 18 0
BBX 18 18 0 -2
BITMAP
000000
003700
003380
003180
7fffc0
003000
0db000
0db980
0d9b80
3fff00
0d9e00
0d8c00
1d9e00
19bec0
39f7c0
70e3c0
03c180
000000
ENDCHAR
STARTCHAR 327d
ENCODING 12925
SWIDTH 1000 0
DWIDTH 18 0
BBX 18 18 0 -2
BITMAP
000000
180000
18ff00
18c300
18c300
7ec300
18ff00
180000
180000
1fff80
783180
183180
187180
186180
18e380
19c300
3b8f00
000000
ENDCHAR
STARTCHAR 327e
ENCODING 12926
SWIDTH 1000 0
DWIDTH 18 0
BBX 18 18 0 -2
BITMAP
000000
003000
003000
7fb000
01bfc0
01b300
01f300
3ffb00
30ff00
301e00
301e00
300c00
319e00
399e00
1fbf00
007380
00e1c0
000000
ENDCHAR
STARTCHAR 3321
ENCODING 13089
SWIDTH 1000 0
DWIDTH 18 0
BBX 18 18 0 -2
BITMAP
000000
060300
0c3b00
3fdf00
36cf00
36c300
3ffb00
36df00
36cf00
3fc3c0
1b3f00
1bc300
1bf300
1bf300
3b03c0
3381c0
71ff80
000000
ENDCHAR
STARTCHAR 3322
ENCODING 13090
SWIDTH 1000 0
DWIDTH 18 0
BBX 18 18 0 -2
BITMAP
000000
00c000
00c000
3fff80
378000
370000
36ff00
36db00
3edb00
36db00
37ffc0
37b300
37b300
3fb300
01ffc0
000600
001e00
000000
ENDCHAR
STARTCHAR 3323
ENCODING 13091
SWIDTH 1000 0
DWIDTH 18 0
BBX 18 18 0 -2
BITMAP
000000
0c0f00
0c0d80
0c0c00
7fffc0
0c0c00
0cfc00
1efd80
1ffd80
1dff80
3cff00
3cff00
6cf600
0cffc0
0d9fc0
0c3bc0
0cf180
000000
ENDCHAR
STARTCHAR 3324
ENCODING 13092
SWIDTH 1000 0
DWIDTH 18 0
BBX 18 18 0 -2
BITMAP
000000
00c000
38c000
1dff80
0d8000
038000
70ff00
38db00
18db00
00db00
0fffc0
0db300
1db300
19b300
39ffc0
300600
701e00
000000
ENDCHAR
STARTCHAR 3325
ENCODING 13093
SWIDTH 1000 0
DWIDTH 18 0
BBX 18 18 0 -2
BITMAP
000000
000000
1fff80
180000
186000
186180
1b6380
1b6700
1f6600
1e6000
18f000
38f000
31f800
319c00
738e00
070700
1e03c0
000000
ENDCHAR
STARTCHAR 3326
ENCODING 13094
SWIDTH 1000 0
DWIDTH 18 0
BBX 18 18 0 -2
BITMAP
000000
000000
1fff00
18c300
18c300
1fff00
18c300
18c300
1fff00
031800
071c00
1e0f00
7e0fc0
060c00
060c00
0e0c00
1c0c00
000000
ENDCHAR
STARTCHAR 3327
ENCODING 13095
SWIDTH 1000 0
DWIDTH 18 0
BBX 18 18 0 -2
BITMAP
000000
183000
183380
1fbf00
183000
1830c0
1831c0
1fbf80
786000
00c000
0ffe00
0c0600
0c0600
0ffe00
0c0600
0c0600
0ffe00
000000
ENDCHAR
STARTCHAR 3328
ENCODING 13096
SWIDTH 1000 0
DWIDTH 18 0
BBX 18 18 0 -2
BITMAP
000000
0c1800
1c3c00
383e00
737700
3fe380
0fc1c0
1c7f00
3b0000
7f0000
0fff80
0c3000
3f3000
3f7300
7f6300
6c7f80
0cf980
000000
ENDCHAR
STARTCHAR 3329
ENCODING 13097
SWIDTH 1000 0
DWIDTH 18 0
BBX 18 18 0 -2
BITMAP
000000
060c00
060c00
7fffc0
060c00
06cc00
01e000
03f000
073c00
1e0f00
7e0fc0
060c00
060c00
0e0c00
0c0c00
1c0c00
380c00
000000
ENDCHAR
STARTCHAR 332a
ENCODING 13098
SWIDTH 1000 0
DWIDTH 18 0
BBX 18 18 0 -2
BITMAP
000000
1f3f80
330d80
7fdd80
36fb80
3fde00
36df80
3ff600
30ffc0
73c600
60c600
3fff80
30c180
3fff80
00c300
03ff80
7f01c0
000000
ENDCHAR
STARTCHAR 332b
ENCODING 13099
SWIDTH 1000 0
DWIDTH 18 0
BBX 18 18 0 -2
BITMAP
000000
000000
3fbf80
31b180
3fbf80
31b180
3fbf80
300180
37fd80
31b180
31b180
3fff80
31b180
31b180
33b180
373180
300780
000000
ENDCHAR
STARTCHAR 332c
ENCODING 13100
SWIDTH 1000 0
DWIDTH 18 0
BBX 18 18 0 -2
BITMAP
000000
00cc00
3fcdc0
33ff80
37cc00
36cc00
3eccc0
3cf7c0
37cc00
331800
33ff80
33c180
33c180
3eff80
30c180
30c180
30ff80
000000
ENDCHAR
STARTCHAR 332d
ENCODING 13101
SWIDTH 1000 0
DWIDTH 18 0
BBX 18 18 0 -2
BITMAP
000000
000000
0ffe00
0c0600
0c0600
0ffe00
0c0600
0c0600
0c0600
0ffe00
0c0600
0c0600
0c0600
0ffe00
060c00
0e0e00
3c0780
000000
ENDCHAR
STARTCHAR 332e
ENCODING 13102
SWIDTH 1000 0
DWIDTH 18 0
BBX 18 18 0 -2
BITMAP
000000
060000
36df00
36db00
3fdb00
001b00
7ffb00
001b00
3fdb00
30db00
30db00
3fdb00
199b00
199b00
0ffbc0
1f3bc0
7871c0
000000
ENDCHAR
STARTCHAR 332f
ENCODING 13103
SWIDTH 1000 0
DWIDTH 18 0
BBX 18 18 0 -2
BITMAP
000000
060c00
060c00
060c00
7fec00
0c3fc0
1c0cc0
398cc0
1f8cc0
070cc0
0eccc0
1dccc0
739cc0
0719c0
0f9980
1cf980
707780
000000
ENDCHAR
STARTCHAR 3330
ENCODING 13104
SWIDTH 1000 0
DWIDTH 18 0
BBX 18 18 0 -2
BITMAP
000000
0c1800
0c1800
0fd800
0cd800
1cd800
18dc00
38de00
7ddf00
079b80
0399c0
031800
071800
0e1800
1c1800
381800
701800
000000
ENDCHAR
STARTCHAR 3331
ENCODING 13105
SWIDTH 1000 0
DWIDTH 18 0
BBX 18 18 0 -2
BITMAP
000000
001800
001800
7e1800
67ffc0
663000
667600
66ee00
67cd80
66ff80
663b00
667700
7eee00
03dc00
003f00
00f380
07c1c0
000000
ENDCHAR
STARTCHAR 3332
ENCODING 13106
SWIDTH 1000 0
DWIDTH 18 0
BBX 18 18 0 -2
BITMAP
000000
00c000
00c000
3fff80
300180
30c180
1fff00
00c000
1fff00
00c000
7fffc0
000000
0ffe00
0c0600
0c0600
0c0600
0ffe00
000000
ENDCHAR
STARTCHAR 3333
ENCODING 13107
SWIDTH 1000 0
DWIDTH 18 0
BBX 18 18 0 -2
BITMAP
000000
186180
186180
1fff80
000000
3fffc0
300000
306000
37ff00
306000
3fff80
300000
306000
77ff00
606000
7fffc0
000000
000000
ENDCHAR
STARTCHAR 3334
ENCODING 13108
SWIDTH 1000 0
DWIDTH 18 0
BBX 18 18 0 -2
BITMAP
000000
180000
1bff80
1b6f00
1b6f00
7bef00
7f6f00
7f6f00
7bffc0
1b0300
1b0300
1b6700
1b6700
1b7f00
1bffc0
1f1bc0
1831c0
000000
ENDCHAR
STARTCHAR 3335
ENCODING 13109
SWIDTH 1000 0
DWIDTH 18 0
BBX 18 18 0 -2
BITMAP
000000
180000
1bff80
1b6f00
1b6f00
7fef00
1b6f00
1b6f00
3fffc0
3f0300
3b0300
7b6700
1b6700
1b7f00
1bffc0
1f1bc0
1831c0
000000
ENDCHAR
STARTCHAR 3336
ENCODING 13110
SWIDTH 1000 0
DWIDTH 18 0
BBX 18 18 0 -2
BITMAP
000000
000000
3bffc0
1f0000
0f0c00
037f80
730c00
3b0c00
1bffc0
030000
030c00
1b7f80
1f0c00
3e0c00
3e0c00
70ffc0
000000
000000
ENDCHAR
STARTCHAR 3337
ENCODING 13111
SWIDTH 1000 0
DWIDTH 18 0
BBX 18 18 0 -2
BITMAP
000000
007f00
7fe300
0c6300
0c7f00
1c6300
186300
1f7f00
3b0000
3bffc0
7b0300
1bffc0
1b6300
1b3300
1f3300
000300
000f00
000000
ENDCHAR
STARTCHAR 3338
ENCODING 13112
SWIDTH 1000 0
DWIDTH 18 0
BBX 18 18 0 -2
BITMAP
000000
060c00
060c00
7fffc0
060c00
00c000
1fff00
00c000
7fffc0
060600
0c0300
3fff80
000000
1fff00
1b3300
1b3300
7fffc0
000000
ENDCHAR
STARTCHAR 3339
ENCODING 13113
SWIDTH 1000 0
DWIDTH 18 0
BBX 18 18 0 -2
BITMAP
000000
0cc000
1ccf80
1ff800
38c000
70c000
07f800
0c0fc0
1cc300
38c300
7ffb00
18c300
18c300
18c300
18fb00
1fc300
180f00
000000
ENDCHAR
STARTCHAR 333a
ENCODING 13114
SWIDTH 1000 0
DWIDTH 18 0
BBX 18 18 0 -2
BITMAP
000000
000c00
3f0c00
000c00
7fffc0
001800
3f3800
007300
003f00
3f0e00
001d80
003b80
3f7700
330e00
331f00
333b80
3f71c0
000000
ENDCHAR
STARTCHAR 333b
ENCODING 13115
SWIDTH 1000 0
DWIDTH 18 0
BBX 18 18 0 -2
BITMAP
000000
0c0c00
1e6d80
1f6d80
3bff80
300000
7fffc0
0c0000
0c7f80
7fe180
0c6180
6f7f80
7f3300
3c3f00
0f1e00
3cffc0
700000
000000
ENDCHAR
STARTCHAR 333c
ENCODING 13116
SWIDTH 1000 0
DWIDTH 18 0
BBX 18 18 0 -2
BITMAP
000000
000c00
3f8c00
318c00
3fffc0
3d8c00
3d9c00
7ffb00
60df00
3f8e00
319d80
3fbb80
31f700
3f8e00
319f00
31bb80
33f1c0
000000
ENDCHAR
STARTCHAR 333d
ENCODING 13117
SWIDTH 1000 0
DWIDTH 18 0
BBX 18 18 0 -2
BITMAP
000000
000000
39ff80
1d9980
0d9980
01ff80
719980
399980
199980
01ff80
0c1800
1c1800
19ff80
381800
301800
73ffc0
000000
000000
ENDCHAR
STARTCHAR 333e
ENCODING 13118
SWIDTH 1000 0
DWIDTH 18 0
BBX 18 18 0 -2
BITMAP
000000
061f00
7ffb00
0633c0
7fff00
36db00
3fce00
303b00
6ff1c0
00c000
7fffc0
06cc00
1fff00
7c07c0
0ffe00
0c0600
0ffe00
000000
ENDCHAR
STARTCHAR 333f
ENCODING 13119
SWIDTH 1000 0
DWIDTH 18 0
BBX 18 18 0 -2
BITMAP
000000
0c0c00
0c0c00
0c7f80
7f8c00
6d8c00
6d8c00
6dffc0
6d8000
7f8c00
0c0c00
0f7f80
0f0c00
0f8c00
3d8c00
70ffc0
000000
000000
ENDCHAR
STARTCHAR 3340
ENCODING 13120
SWIDTH 1000 0
DWIDTH 18 0
BBX 18 18 0 -2
BITMAP
000000
180000
19ff80
180000
180000
7eff00
18c300
18c300
18ff00
18c300
18c300
1ec300
38ff00
700000
000000
03ffc0
000000
000000
ENDCHAR
STARTCHAR 3341
ENCODING 13121
SWIDTH 1000 0
DWIDTH 18 0
BBX 18 18 0 -2
BITMAP
000000
0c1800
0c1800
0c1800
7fffc0
0c1800
0c1800
1dff80
1f9980
1f9980
3d9980
3d9980
6d9980
0d9f80
0c1800
0c1800
0c1800
000000
ENDCHAR
STARTCHAR 3342
ENCODING 13122
SWIDTH 1000 0
DWIDTH 18 0
BBX 18 18 0 -2
BITMAP
000000
180000
18ffc0
18c000
7ec000
7effc0
7ed800
7ed800
7edf80
7ed980
18d980
1ed980
1fd980
3fb980
73b380
077300
00ef00
000000
ENDCHAR
STARTCHAR 3343
ENCODING 13123
SWIDTH 1000 0
DWIDTH 18 0
BBX 18 18 0 -2
BITMAP
000000
0c3000
1e3000
1f3000
3bff80
306180
7fe180
0c3180
0c3180
7ffd80
0c6d80
6f7f80
7fe780
3c0180
0f0380
3c0300
700f00
000000
ENDCHAR
STARTCHAR 3344
ENCODING 13124
SWIDTH 1000 0
DWIDTH 18 0
BBX 18 18 0 -2
BITMAP
000000
060180
3fed80
066d80
7ffd80
066d80
3fed80
060d80
3fed80
060d80
7ffd80
366d80
3fe180
366180
3fe180
000180
7ff780
000000
ENDCHAR
STARTCHAR 3345
ENCODING 13125
SWIDTH 1000 0
DWIDTH 18 0
BBX 18 18 0 -2
BITMAP
000000
018600
018600
7fff80
798600
798600
798600
7fffc0
7bcf00
7bcf00
7fff80
7fffc0
0fffc0
1bcf00
06db00
06db00
0df700
000000
ENDCHAR
STARTCHAR 3346
ENCODING 13126
SWIDTH 1000 0
DWIDTH 18 0
BBX 18 18 0 -2
BITMAP
000000
030000
030000
07fc00
0e0c00
1f1c00
7bb800
01f000
03b800
0f1e00
7c07c0
0ffe00
0c0600
0c0600
0c0600
0c0600
0ffe00
000000
ENDCHAR
STARTCHAR 3347
ENCODING 13127
SWIDTH 1000 0
DWIDTH 18 0
BBX 18 18 0 -2
BITMAP
000000
006000
006000
3fffc0
318000
3fff80
300d80
37ed80
366f00
37ef00
300d80
3fed80
30cd80
71fd80
6f8f80
618c00
078c00
000000
ENDCHAR
STARTCHAR 3348
ENCODING 13128
SWIDTH 1000 0
DWIDTH 18 0
BBX 18 18 0 -2
BITMAP
000000
181800
181800
181800
19ffc0
7f8000
199800
199800
199800
1fb800
79b300
19b300
19b380
19f180
1be180
1b6fc0
3ffcc0
000000
ENDCHAR
STARTCHAR 3349
ENCODING 13129
SWIDTH 1000 0
DWIDTH 18 0
BBX 18 18 0 -2
BITMAP
000000
19b180
19fb80
18db00
1bffc0
7f00c0
1bffc0
18c300
18ff00
1ec300
78ff00
18c300
18ff00
186c00
186cc0
18edc0
3bc780
000000
ENDCHAR
STARTCHAR 334a
ENCODING 13130
SWIDTH 1000 0
DWIDTH 18 0
BBX 18 18 0 -2
BITMAP
000000
0c3000
0c3000
0c7f00
7f6300
0cf700
0dfe00
1e1c00
1f3e00
1c7700
3de3c0
3c7f00
6c6300
0c6300
0c6300
0c6300
0c7f00
000000
ENDCHAR
STARTCHAR 334b
ENCODING 13131
SWIDTH 1000 0
DWIDTH 18 0
BBX 18 18 0 -2
BITMAP
000000
0c1800
0c1800
0c1800
7fffc0
0c3000
0c7000
1ce600
1e7e00
1f1c00
3c3b00
3c7700
6dee00
0c1c00
0c3f00
0c7380
0de1c0
000000
ENDCHAR
STARTCHAR 334c
ENCODING 13132
SWIDTH 1000 0
DWIDTH 18 0
BBX 18 18 0 -2
BITMAP
000000
0c0000
0c1f00
7fdb00
0c1b00
0c1b00
3fb3c0
000000
7fff80
60d980
7fdb80
1b1b00
1b1f00
1bce00
3b9f00
333b80
7071c0
000000
ENDCHAR
STARTCHAR 334d
ENCODING 13133
SWIDTH 1000 0
DWIDTH 18 0
BBX 18 18 0 -2
BITMAP
000000
066600
67ffc0
3c6600
18cc00
19ffc0
3f9800
6fff80
0d9800
1dff80
3d9800
6dffc0
0c0000
0fff80
0c6700
1c3c00
7be7c0
000000
ENDCHAR
STARTCHAR 334e
ENCODING 13134
SWIDTH 1000 0
DWIDTH 18 0
BBX 18 18 0 -2
BITMAP
000000
001800
001800
7fffc0
0cd8c0
0cfbc0
1c3600
187f80
1fec00
3bec00
3b7f80
7b6c00
1b6c00
1b7f80
1b6c00
1f6c00
007fc0
000000
ENDCHAR
STARTCHAR 334f
ENCODING 13135
SWIDTH 1000 0
DWIDTH 18 0
BBX 18 18 0 -2
BITMAP
000000
033300
0fffc0
7c3300
0c6c00
0cffc0
7fcc00
0cff80
1ecc00
1fff80
1fcc00
3cffc0
3c0000
6dff80
0c6300
0c3e00
0de3c0
000000
ENDCHAR
STARTCHAR 3350
ENCODING 13136
SWIDTH 1000 0
DWIDTH 18 0
BBX 18 18 0 -2
BITMAP
000000
198300
1dc700
0cc600
3fff80
300180
3fff80
0c0600
0ffe00
0c0600
0ffe00
0c0600
0ffe00
031800
0718c0
1e1dc0
780f80
000000
ENDCHAR
STARTCHAR 3351
ENCODING 13137
SWIDTH 1000 0
DWIDTH 18 0
BBX 18 18 0 -2
BITMAP
000000
030000
07fc00
0e1800
1c3000
7fff00
0c6300
0c6300
0fff00
0c6300
0c6300
0fff00
0c0300
1c0300
180300
380300
700f00
000000
ENDCHAR
STARTCHAR 3352
ENCODING 13138
SWIDTH 1000 0
DWIDTH 18 0
BBX 18 18 0 -2
BITMAP
000000
060c00
060c00
3fff80
060c00
060c00
060c00
7fffc0
0f1e00
3f9f80
3fff80
7f7fc0
6f1ec0
0f1e00
1f3e00
1b3600
3f7e00
000000
ENDCHAR
STARTCHAR 3353
ENCODING 13139
SWIDTH 1000 0
DWIDTH 18 0
BBX 18 18 0 -2
BITMAP
000000
0c0c00
0c0c00
7f8c00
0cffc0
3f3300
3f7380
3fe1c0
3f3300
3f3f00
3f1e00
3f1e00
0c0c00
7f9e00
0c3f00
0c7380
0ce1c0
000000
ENDCHAR
STARTCHAR 3354
ENCODING 13140
SWIDTH 1000 0
DWIDTH 18 0
BBX 18 18 0 -2
BITMAP
000000
060000
061f80
7ff980
001b80
3fdb00
30df00
3fde00
001b00
7fd980
039980
0e1980
07f980
7e1980
061f00
061800
1e1800
000000
ENDCHAR
STARTCHAR 3355
ENCODING 13141
SWIDTH 1000 0
DWIDTH 18 0
BBX 18 18 0 -2
BITMAP
000000
000000
3fbf80
31b180
3fbf80
31b180
3fbf80
318180
33f980
373180
31e180
33b980
3e0f80
33f980
331980
33f980
300780
000000
ENDCHAR
STARTCHAR 3356
ENCODING 13142
SWIDTH 1000 0
DWIDTH 18 0
BBX 18 18 0 -2
BITMAP
000000
000000
3fff80
360000
36ff00
36c300
3cff00
3c0000
37ff80
37bd80
37ed80
37c780
378180
3fff80
319980
319980
319b80
000000
ENDCHAR
STARTCHAR 3357
ENCODING 13143
SWIDTH 1000 0
DWIDTH 18 0
BBX 18 18 0 -2
BITMAP
000000
061800
061800
7fffc0
061800
061800
07f800
00c000
1ffe00
18c600
18c600
1ffe00
00c000
7fffc0
00c000
00c000
00c000
000000
ENDCHAR
STARTCHAR 3358
ENCODING 13144
SWIDTH 1000 0
DWIDTH 18 0
BBX 18 18 0 -2
BITMAP
000000
198300
1dc700
0cc600
3fff80
300180
300180
0ffe00
001c00
007000
00c000
7fffc0
00c000
00c000
00c000
00c000
03c000
000000
ENDCHAR
STARTCHAR 3359
ENCODING 13145
SWIDTH 1000 0
DWIDTH 18 0
BBX 18 18 0 -2
BITMAP
000000
000e00
007c00
0fe000
0c0000
0fff80
0c0c00
0c0c00
0c0c00
7fffc0
00c000
00c000
18c300
18c300
18c300
1fff00
000000
000000
ENDCHAR
STARTCHAR 335a
ENCODING 13146
SWIDTH 1000 0
DWIDTH 18 0
BBX 18 18 0 -2
BITMAP
000000
006000
38c380
1fff00
031800
031800
03f800
031800
1f1f00
3bfb80
00c000
7fffc0
03f000
07f800
1ede00
78c7c0
00c000
000000
ENDCHAR
STARTCHAR 335b
ENCODING 13147
SWIDTH 1000 0
DWIDTH 18 0
BBX 18 18 0 -2
BITMAP
000000
0c0000
0cffc0
7f8c00
61ff80
79e180
1f6180
337f80
7e6180
0c6180
1e7f80
73e180
3f6180
337f80
333300
3f7380
00e1c0
000000
ENDCHAR
STARTCHAR 335c
ENCODING 13148
SWIDTH 1000 0
DWIDTH 18 0
BBX 18 18 0 -2
BITMAP
000000
000000
7fffc0
7f8c00
7fbf80
7fb180
003180
3f3f80
003180
7fb180
0c3f80
183180
3f3180
033f80
031b00
073b80
1e71c0
000000
ENDCHAR
STARTCHAR 335d
ENCODING 13149
SWIDTH 1000 0
DWIDTH 18 0
BBX 18 18 0 -2
BITMAP
000000
186300
186300
19fb00
186300
7e6300
1bff00
180380
1863c0
1e63c0
79fb00
186300
186300
186300
187f00
1be300
380300
000000
ENDCHAR
STARTCHAR 335e
ENCODING 13150
SWIDTH 1000 0
DWIDTH 18 0
BBX 18 18 0 -2
BITMAP
000000
0c1800
0c1800
1fffc0
363c00
636600
03c600
00c000
3fff80
000000
0c0600
0e0e00
060c00
061c00
001800
7fffc0
000000
000000
ENDCHAR
STARTCHAR 335f
ENCODING 13151
SWIDTH 1000 0
DWIDTH 18 0
BBX 18 18 0 -2
BITMAP
000000
180000
1bf000
1bdf80
7fcd80
1bff80
1b3f00
1ff600
3fcf00
3bdf80
3bf1c0
781800
19ff80
181800
181800
1bffc0
180000
000000
ENDCHAR
STARTCHAR 3360
ENCODING 13152
SWIDTH 1000 0
DWIDTH 18 0
BBX 18 18 0 -2
BITMAP
000000
180000
1bffc0
180000
7eff00
18db00
18ff00
38db00
3fffc0
3e0000
78ff00
78db00
18ff00
18db00
18ff00
180000
1bffc0
000000
ENDCHAR
STARTCHAR 3361
ENCODING 13153
SWIDTH 1000 0
DWIDTH 18 0
BBX 18 18 0 -2
BITMAP
000000
0c0000
0dff80
0d8180
7f8180
0dff80
0d8000
1f8f00
1ffc00
1d9800
3dff80
3d9800
6dffc0
0d9800
0d98c0
0f1dc0
0c0f80
000000
ENDCHAR
STARTCHAR 3362
ENCODING 13154
SWIDTH 1000 0
DWIDTH 18 0
BBX 18 18 0 -2
BITMAP
000000
181e00
1f7e00
3be6c0
367ec0
7f7fc0
3fff80
3f7f80
3f6600
3ff600
3ffe00
3f6f00
006f00
006f00
7fef80
7ffd80
6079c0
000000
ENDCHAR
STARTCHAR 3363
ENCODING 13155
SWIDTH 1000 0
DWIDTH 18 0
BBX 18 18 0 -2
BITMAP
000000
007000
39ef80
1d8180
0d8180
01ff80
718180
398180
19ff80
00c000
0dffc0
0f80c0
1f06c0
19fbc0
39f9c0
330180
700780
000000
ENDCHAR
STARTCHAR 3364
ENCODING 13156
SWIDTH 1000 0
DWIDTH 18 0
BBX 18 18 0 -2
BITMAP
000000
060180
060d80
7fed80
606d80
666d80
3fcd80
060d80
3fcd80
060d80
7fed80
000d80
3fc180
30c180
30c180
30c180
3fc780
000000
ENDCHAR
STARTCHAR 3365
ENCODING 13157
SWIDTH 1000 0
DWIDTH 18 0
BBX 18 18 0 -2
BITMAP
000000
01ff00
018300
7d8300
6dff00
6d8300
6d8300
6dff00
6cc000
6cffc0
6dc0c0
7f9cc0
07f8c0
0180c0
018dc0
00fd80
000780
000000
ENDCHAR
STARTCHAR 3366
ENCODING 13158
SWIDTH 1000 0
DWIDTH 18 0
BBX 18 18 0 -2
BITMAP
000000
0c1800
0c3c00
0c3c00
0e7e00
3fe700
3dc380
3f81c0
7cff00
6c0000
0c0000
0cff00
0cc300
0cc300
0cc300
0cc300
0cff00
000000
ENDCHAR
STARTCHAR 3367
ENCODING 13159
SWIDTH 1000 0
DWIDTH 18 0
BBX 18 18 0 -2
BITMAP
000000
0c0380
0c0f00
0cfc00
0c0c00
7f0c00
0c0c00
0cffc0
0c0c00
0f0c00
7c0c00
0c7f80
0c6180
0c6180
0c6180
0c6180
3c7f80
000000
ENDCHAR
STARTCHAR 3368
ENCODING 13160
SWIDTH 1000 0
DWIDTH 18 0
BBX 18 18 0 -2
BITMAP
000000
000380
381f00
1df800
0c1800
001800
701800
3bffc0
181800
001800
0c1800
0dff80
1d8180
198180
398180
318180
71ff80
000000
ENDCHAR
STARTCHAR 3369
ENCODING 13161
SWIDTH 1000 0
DWIDTH 18 0
BBX 18 18 0 -2
BITMAP
000000
39ff00
1d8300
0d8300
01ff00
018300
718300
39ff00
18c000
00ffc0
0dc0c0
0f9cc0
1ff8c0
1980c0
398dc0
30fd80
700780
000000
ENDCHAR
STARTCHAR 336a
ENCODING 13162
SWIDTH 1000 0
DWIDTH 18 0
BBX 18 18 0 -2
BITMAP
000000
38ff00
1cc300
0cdf00
00db00
00db00
73ffc0
3b00c0
1b00c0
00ff00
0cc300
0cff00
1cc300
18ff00
38c300
30c300
70cf00
000000
ENDCHAR
STARTCHAR 336b
ENCODING 13163
SWIDTH 1000 0
DWIDTH 18 0
BBX 18 18 0 -2
BITMAP
000000
031800
031800
7fffc0
031800
0ffe00
0c0600
0ffe00
0c0600
0ffe00
060000
0fff80
1c0180
7fe180
0c1b80
07fb00
000f00
000000
ENDCHAR
STARTCHAR 336c
ENCODING 13164
SWIDTH 1000 0
DWIDTH 18 0
BBX 18 18 0 -2
BITMAP
000000
18ff00
18c300
18c300
7eff00
06c300
0ec300
0cff00
1f6000
3e7fc0
7ce0c0
1fdcc0
1bf8c0
18c0c0
18cdc0
187d80
180780
000000
ENDCHAR
STARTCHAR 336d
ENCODING 13165
SWIDTH 1000 0
DWIDTH 18 0
BBX 18 18 0 -2
BITMAP
000000
0c0c00
0c0c00
7fffc0
0cc0c0
3fccc0
3f7f80
3f0c00
3f7f80
3f0c00
3fffc0
3f0000
0c7f80
7fe180
0c6180
0c6180
0c7f80
000000
ENDCHAR
STARTCHAR 336e
ENCODING 13166
SWIDTH 1000 0
DWIDTH 18 0
BBX 18 18 0 -2
BITMAP
000000
000000
0ffe00
0c0600
0c0600
0c0600
0ffe00
0c0600
0c0600
0c0600
0ffe00
0c0600
0c0600
0c0600
0c0600
7fffc0
000000
000000
ENDCHAR
STARTCHAR 336f
ENCODING 13167
SWIDTH 1000 0
DWIDTH 18 0
BBX 18 18 0 -2
BITMAP
000000
180000
1ff800
3bff80
36f780
7fff80
3fdf80
3ffb00
3ff780
3fff80
3ff9c0
3f0c00
007f80
7f8c00
7f8c00
60ffc0
000000
000000
ENDCHAR
STARTCHAR 3370
ENCODING 13168
SWIDTH 1000 0
DWIDTH 18 0
BBX 18 18 0 -2
BITMAP
000000
001800
001800
7e1800
661800
661800
661800
67ffc0
661800
661800
661800
661800
7e1800
001800
001800
001800
001800
000000
ENDCHAR
STARTCHAR 3371
ENCODING 13169
SWIDTH 1000 0
DWIDTH 18 0
BBX 18 18 0 -2
BITMAP
000000
0c6600
0c6600
0dffc0
7f6600
0c6600
0c3c00
1e7c00
1f6dc0
1cef80
3def00
3fec00
6c6c00
0c6c00
0c6cc0
0c6dc0
0c6780
000000
ENDCHAR
STARTCHAR 3372
ENCODING 13170
SWIDTH 1000 0
DWIDTH 18 0
BBX 18 18 0 -2
BITMAP
000000
186600
186600
1bffc0
7e6600
19ff80
18db00
38db00
3fffc0
3edb00
78db00
79ff80
181800
1bffc0
181800
181800
181800
000000
ENDCHAR
STARTCHAR 3373
ENCODING 13171
SWIDTH 1000 0
DWIDTH 18 0
BBX 18 18 0 -2
BITMAP
000000
333000
333000
7fb000
337f80
336180
3ffd80
0c0d80
7f8d80
6dfd80
6de380
7fe300
0c6f00
7fe000
0c60c0
0c71c0
0c3f80
000000
ENDCHAR
STARTCHAR 3374
ENCODING 13172
SWIDTH 1000 0
DWIDTH 18 0
BBX 18 18 0 -2
BITMAP
000000
0c1800
0cd800
0cd800
7fd800
0dff80
0f9800
1f1800
1c1800
1fffc0
3c7e00
3c7e00
6cff00
0cdb00
0ddb80
0f99c0
0c1800
000000
ENDCHAR
STARTCHAR 3375
ENCODING 13173
SWIDTH 1000 0
DWIDTH 18 0
BBX 18 18 0 -2
BITMAP
000000
066000
0ec780
3ff980
331980
331980
33f980
331980
331980
3fff80
000000
033000
033000
073000
0e30c0
1c39c0
781f80
000000
ENDCHAR
STARTCHAR 3376
ENCODING 13174
SWIDTH 1000 0
DWIDTH 18 0
BBX 18 18 0 -2
BITMAP
000000
00c000
3fff80
36cd80
7fffc0
00c000
7fffc0
18c300
1fff00
18c300
3fff80
30c180
3fff80
30c180
3fff80
00c0c0
007fc0
000000
ENDCHAR
STARTCHAR 3377
ENCODING 13175
SWIDTH 1000 0
DWIDTH 18 0
BBX 18 18 0 -2
BITMAP
000000
031800
031800
7fffc0
031b00
381980
1fffc0
0c1800
71ff80
399980
19ff80
019980
0dff80
1d9980
199980
399980
719b80
000000
ENDCHAR
STARTCHAR 3378
ENCODING 13176
SWIDTH 1000 0
DWIDTH 18 0
BBX 18 18 0 -2
BITMAP
000000
01b000
03b800
0f1e00
3fbf80
01f000
03b800
0f1e00
7fffc0
00c000
00c000
3fff80
0cc600
0ece00
06cc00
7fffc0
000000
000000
ENDCHAR
STARTCHAR 3379
ENCODING 13177
SWIDTH 1000 0
DWIDTH 18 0
BBX 18 18 0 -2
BITMAP
000000
0c6300
1e3600
1fffc0
3b3c00
30ff80
7f3d80
0c3d80
0dffc0
7f3d80
0c3d80
6fff80
7f3e00
3c7f00
0fff80
7dbdc0
003c00
000000
ENDCHAR
STARTCHAR 337a
ENCODING 13178
SWIDTH 1000 0
DWIDTH 18 0
BBX 18 18 0 -2
BITMAP
000000
001800
00d800
7cdf80
6cd800
6cd800
6fffc0
6d8180
6dff80
6d9980
6dff80
6d9980
7dbd80
01ff80
019980
018180
01ff80
000000
ENDCHAR
STARTCHAR 337b
ENCODING 13179
SWIDTH 1000 0
DWIDTH 18 0
BBX 18 18 0 -2
BITMAP
000000
000c00
7f9800
6dff80
6de180
6dff80
7fe180
6dff80
6de000
6dffc0
7fe000
0c7fc0
0c00c0
0cffc0
0dffc0
0d81c0
0c0380
000000
ENDCHAR
STARTCHAR 337c
ENCODING 13180
SWIDTH 1000 0
DWIDTH 18 0
BBX 18 18 0 -2
BITMAP
000000
0c0000
0dffc0
0c0c00
7f1c00
0c1800
0cff80
1ec180
1fc180
1fc180
3cc180
3cff80
6cc180
0cc180
0cc180
0cc180
0cff80
000000
ENDCHAR
STARTCHAR 337d
ENCODING 13181
SWIDTH 1000 0
DWIDTH 18 0
BBX 18 18 0 -2
BITMAP
000000
031800
031800
7fffc0
031800
1ffe00
001c00
033000
01e000
7fffc0
01e180
03e300
076000
0e6000
1c6000
786000
01e000
000000
ENDCHAR
STARTCHAR 337e
ENCODING 13182
SWIDTH 1000 0
DWIDTH 18 0
BBX 18 18 0 -2
BITMAP
000000
060c00
060c00
7fffc0
060c00
00c000
3fff80
300180
3fff80
000000
0ffe00
0c0600
0ffe00
0c0600
0ffe00
000000
7fffc0
000000
ENDCHAR
STARTCHAR 3421
ENCODING 13345
SWIDTH 1000 0
DWIDTH 18 0
BBX 18 18 0 -2
BITMAP
000000
000000
7ccf80
0ff180
0ff180
0ff180
7ccf80
67fc00
60cc00
7def80
0de180
0ff180
0ff180
0ed980
1cc380
18c300
780f00
000000
ENDCHAR
STARTCHAR 3422
ENCODING 13346
SWIDTH 1000 0
DWIDTH 18 0
BBX 18 18 0 -2
BITMAP
000000
00c180
00cd80
00cd80
00cd80
39cd80
1d8d80
0f8d80
078d80
030d80
078d80
07cd80
0ec180
0ce180
1c6180
380180
700780
000000
ENDCHAR
STARTCHAR 3423
ENCODING 13347
SWIDTH 1000 0
DWIDTH 18 0
BBX 18 18 0 -2
BITMAP
000000
031800
031800
7fffc0
031800
031800
00c180
38d980
1dd980
0f9980
079980
031980
079980
0fc180
1ce180
386180
700780
000000
ENDCHAR
STARTCHAR 3424
ENCODING 13348
SWIDTH 1000 0
DWIDTH 18 0
BBX 18 18 0 -2
BITMAP
000000
000000
7fffc0
030000
030000
030000
07f800
061800
061800
079800
07d800
0ed800
0c1800
0c1800
0df8c0
1f9dc0
780f80
000000
ENDCHAR
STARTCHAR 3425
ENCODING 13349
SWIDTH 1000 0
DWIDTH 18 0
BBX 18 18 0 -2
BITMAP
000000
0c3000
0c3000
7fb000
0c7fc0
3fe000
33c000
337f80
3f0700
330e00
331c00
3f3800
0c3000
7ff000
0c60c0
0c71c0
0c3f80
000000
ENDCHAR
STARTCHAR 3426
ENCODING 13350
SWIDTH 1000 0
DWIDTH 18 0
BBX 18 18 0 -2
BITMAP
000000
060000
07ff80
0f8180
0d8180
1d8180
19ff80
380000
78db00
18db00
18db00
18db00
18db00
18db00
19dbc0
199bc0
1b81c0
000000
ENDCHAR
STARTCHAR 3427
ENCODING 13351
SWIDTH 1000 0
DWIDTH 18 0
BBX 18 18 0 -2
BITMAP
000000
000000
3fff80
300180
300180
3f8300
000300
007fc0
7fc300
1b3300
1b3b00
1b1b00
1b0300
1b0300
3b0fc0
3381c0
71ff80
000000
ENDCHAR
STARTCHAR 3428
ENCODING 13352
SWIDTH 1000 0
DWIDTH 18 0
BBX 18 18 0 -2
BITMAP
000000
00c000
00c000
3fff80
300180
331980
1fff00
031800
1fff00
031800
7fffc0
060c00
1fff00
783bc0
07c000
00f800
001c00
000000
ENDCHAR
STARTCHAR 3429
ENCODING 13353
SWIDTH 1000 0
DWIDTH 18 0
BBX 18 18 0 -2
BITMAP
000000
000180
3fd980
061980
061980
061980
061980
7ff980
061980
061980
061980
061980
060180
060180
060180
060180
060780
000000
ENDCHAR
STARTCHAR 342a
ENCODING 13354
SWIDTH 1000 0
DWIDTH 18 0
BBX 18 18 0 -2
BITMAP
000000
198c00
198c00
7fec00
198c00
1fbfc0
198cc0
1f8cc0
198cc0
7fecc0
3f0cc0
3f1cc0
3fd8c0
3819c0
303980
3ff180
007780
000000
ENDCHAR
STARTCHAR 342b
ENCODING 13355
SWIDTH 1000 0
DWIDTH 18 0
BBX 18 18 0 -2
BITMAP
000000
180c00
180c00
3fec00
360c00
663fc0
3fecc0
0d8cc0
1b0cc0
3fecc0
7b1cc0
1fd8c0
1b18c0
1ff9c0
1b3180
1ff180
006780
000000
ENDCHAR
STARTCHAR 342c
ENCODING 13356
SWIDTH 1000 0
DWIDTH 18 0
BBX 18 18 0 -2
BITMAP
000000
0cc600
0ece00
06cc00
1fff00
01b000
031800
7fffc0
060c00
0ffe00
1c1f00
781bc0
07f800
060000
060300
070700
03fe00
000000
ENDCHAR
STARTCHAR 342d
ENCODING 13357
SWIDTH 1000 0
DWIDTH 18 0
BBX 18 18 0 -2
BITMAP
000000
00c000
00fe00
7dc600
6d8c00
6fff80
6dbd80
6dbd80
6dbd80
6def80
6dc180
6d9980
7fffc0
003c00
007e00
00e700
03c3c0
000000
ENDCHAR
STARTCHAR 342e
ENCODING 13358
SWIDTH 1000 0
DWIDTH 18 0
BBX 18 18 0 -2
BITMAP
000000
18c300
18c300
1bffc0
18c300
7eff00
18c300
18ff00
18c300
18c300
1bffc0
19b600
1fb600
79e7c0
01c000
018000
01ffc0
000000
ENDCHAR
STARTCHAR 342f
ENCODING 13359
SWIDTH 1000 0
DWIDTH 18 0
BBX 18 18 0 -2
BITMAP
000000
018000
018000
3fff80
030c00
061800
0ff800
00df00
3f8380
0c0c00
7fffc0
199980
33b380
3f3f00
0f0f00
1f9f80
79f9c0
000000
ENDCHAR
STARTCHAR 3430
ENCODING 13360
SWIDTH 1000 0
DWIDTH 18 0
BBX 18 18 0 -2
BITMAP
000000
00c000
00c000
3fff80
300180
300180
0ffe00
000000
000000
7fffc0
031800
031800
071800
061800
0e18c0
1c1dc0
780f80
000000
ENDCHAR
STARTCHAR 3431
ENCODING 13361
SWIDTH 1000 0
DWIDTH 18 0
BBX 18 18 0 -2
BITMAP
000000
00c000
00c000
7fffc0
6000c0
6000c0
0ffe00
0c0600
0c0600
0ffe00
0c0000
0c0000
0fff00
0c0300
0c0300
0c0300
0fff00
000000
ENDCHAR
STARTCHAR 3432
ENCODING 13362
SWIDTH 1000 0
DWIDTH 18 0
BBX 18 18 0 -2
BITMAP
000000
00c000
00c000
7fffc0
6318c0
7fffc0
031800
0ffe00
0c0600
0ffe00
0c0600
0ffe00
0c0600
0ffe00
0318c0
0f19c0
7c0f80
000000
ENDCHAR
STARTCHAR 3433
ENCODING 13363
SWIDTH 1000 0
DWIDTH 18 0
BBX 18 18 0 -2
BITMAP
000000
000000
3fff00
00c000
00c000
00c000
00c000
00c000
7fffc0
00c000
00c000
00c000
00c000
00c000
00c000
00c000
00c000
000000
ENDCHAR
STARTCHAR 3434
ENCODING 13364
SWIDTH 1000 0
DWIDTH 18 0
BBX 18 18 0 -2
BITMAP
000000
0c0c00
0c1e00
7f9e00
0c3f00
3f7380
33e1c0
333f00
3f0c00
330c00
330c00
3fffc0
0c0c00
7f8c00
0c0c00
0c0c00
0c0c00
000000
ENDCHAR
STARTCHAR 3435
ENCODING 13365
SWIDTH 1000 0
DWIDTH 18 0
BBX 18 18 0 -2
BITMAP
000000
00c000
1fff00
18c300
18c300
1fff00
00c000
1fff00
18c300
18c300
1fff00
00c000
003000
1b3b80
1b1fc0
3b8ec0
71fc00
000000
ENDCHAR
STARTCHAR 3436
ENCODING 13366
SWIDTH 1000 0
DWIDTH 18 0
BBX 18 18 0 -2
BITMAP
000000
003600
003300
3fffc0
303000
3ffb00
301f00
3fde00
3ccc00
3fdec0
7077c0
6003c0
00e000
1b7380
1b37c0
3b8ec0
71fc00
000000
ENDCHAR
STARTCHAR 3437
ENCODING 13367
SWIDTH 1000 0
DWIDTH 18 0
BBX 18 18 0 -2
BITMAP
000000
180000
19ff80
199980
1bffc0
7d9980
7fff80
780000
79ff80
198180
19ff80
198180
19ff80
198180
19ff80
18c300
1b81c0
000000
ENDCHAR
STARTCHAR 3438
ENCODING 13368
SWIDTH 1000 0
DWIDTH 18 0
BBX 18 18 0 -2
BITMAP
000000
180f00
180d80
1bffc0
1b0c00
7bff80
7f0780
7fff80
7bdb00
1bffc0
1b0fc0
1e0180
183000
1bfb80
1bd9c0
1fc6c0
1e7e00
000000
ENDCHAR
STARTCHAR 3439
ENCODING 13369
SWIDTH 1000 0
DWIDTH 18 0
BBX 18 18 0 -2
BITMAP
000000
18c000
18fe00
19c600
7f8c00
1bff80
19bd80
19bd80
19bd80
1fef80
79c180
199980
1bffc0
183c00
187e00
18e700
3bc3c0
000000
ENDCHAR
STARTCHAR 343a
ENCODING 13370
SWIDTH 1000 0
DWIDTH 18 0
BBX 18 18 0 -2
BITMAP
000000
001800
3fd800
061800
063fc0
7ff300
19b300
19fb00
1f9f00
199e00
199e00
1f8c00
199e00
199e00
1fbf00
79b380
01f1c0
000000
ENDCHAR
STARTCHAR 343b
ENCODING 13371
SWIDTH 1000 0
DWIDTH 18 0
BBX 18 18 0 -2
BITMAP
000000
0c6300
0c6300
0c6300
7f6300
0dffc0
0c6300
1e6300
1f6300
1f6300
3c7f00
3c6300
6c6300
0c6300
0c6300
0c6300
0c7f00
000000
ENDCHAR
STARTCHAR 343c
ENCODING 13372
SWIDTH 1000 0
DWIDTH 18 0
BBX 18 18 0 -2
BITMAP
000000
0c0000
0dff80
0c0000
7f0000
0cff00
0cc300
1ec300
1fff00
1fc300
3cc300
3cc300
6cff00
0c0000
0c0000
0fffc0
0c0000
000000
ENDCHAR
STARTCHAR 343d
ENCODING 13373
SWIDTH 1000 0
DWIDTH 18 0
BBX 18 18 0 -2
BITMAP
000000
0c1800
0c1800
0dffc0
7f80c0
0d80c0
0c7f00
1e6300
1f6300
1f7f00
3c6000
3c6000
6c7f80
0c6180
0c6180
0c6180
0c7f80
000000
ENDCHAR
STARTCHAR 343e
ENCODING 13374
SWIDTH 1000 0
DWIDTH 18 0
BBX 18 18 0 -2
BITMAP
000000
0c1800
0c1800
7fd800
0c3fc0
0c30c0
3fbdc0
007d80
3f8c00
000c00
7fde00
0c1e00
3f1e00
3dbf00
6db300
0c7380
1ce1c0
000000
ENDCHAR
STARTCHAR 343f
ENCODING 13375
SWIDTH 1000 0
DWIDTH 18 0
BBX 18 18 0 -2
BITMAP
000000
181800
181800
3fd800
7c1fc0
0c38c0
7ffdc0
1b7d80
1e0c00
3fcc00
761e00
3f9e00
361e00
3fbf00
363300
3ff380
0061c0
000000
ENDCHAR
STARTCHAR 3440
ENCODING 13376
SWIDTH 1000 0
DWIDTH 18 0
BBX 18 18 0 -2
BITMAP
000000
000000
39ff80
1c1800
0c1800
001800
701800
381800
1bffc0
001800
0c1800
1c1800
181800
381800
301800
701800
001800
000000
ENDCHAR
STARTCHAR 3441
ENCODING 13377
SWIDTH 1000 0
DWIDTH 18 0
BBX 18 18 0 -2
BITMAP
000000
006600
3bffc0
1c6600
0c0000
01ff80
719980
399980
19ff80
001800
0dff80
0c1800
1fffc0
183c00
387e00
30e700
73c3c0
000000
ENDCHAR
STARTCHAR 3442
ENCODING 13378
SWIDTH 1000 0
DWIDTH 18 0
BBX 18 18 0 -2
BITMAP
000000
000000
3bffc0
1f3cc0
0fffc0
033cc0
73ffc0
3b00c0
1b7ec0
0366c0
0f66c0
0f7ec0
1f66c0
1b66c0
3b7ec0
3300c0
7303c0
000000
ENDCHAR
STARTCHAR 3443
ENCODING 13379
SWIDTH 1000 0
DWIDTH 18 0
BBX 18 18 0 -2
BITMAP
000000
00c000
38c000
1dff80
0db000
07ffc0
706600
38cc00
19ff80
039800
0dff80
0d9800
1d9800
19ff80
399800
319800
71ffc0
000000
ENDCHAR
STARTCHAR 3444
ENCODING 13380
SWIDTH 1000 0
DWIDTH 18 0
BBX 18 18 0 -2
BITMAP
000000
000000
01ff80
7fed80
19ed80
19ff80
180000
1bffc0
7e0000
19ff80
198180
19ff80
1838c0
1e7d80
78df00
0399c0
001800
000000
ENDCHAR
STARTCHAR 3445
ENCODING 13381
SWIDTH 1000 0
DWIDTH 18 0
BBX 18 18 0 -2
BITMAP
000000
060c00
060c00
060c00
060c00
7fffc0
060c00
060c00
060c00
060c00
07fc00
060c00
060c00
060c00
060c00
060c00
07fc00
000000
ENDCHAR
STARTCHAR 3446
ENCODING 13382
SWIDTH 1000 0
DWIDTH 18 0
BBX 18 18 0 -2
BITMAP
000000
001800
3fd800
361800
3fbfc0
31b000
31f000
3f9f80
360000
3fc000
000000
1fff00
1b3300
1b3300
1b3300
7fffc0
000000
000000
ENDCHAR
STARTCHAR 3447
ENCODING 13383
SWIDTH 1000 0
DWIDTH 18 0
BBX 18 18 0 -2
BITMAP
000000
000e00
00fc00
1fc000
00c000
3fff80
018000
7fffc0
030000
07ff00
0e0300
1fff00
760300
07ff00
060300
060300
07ff00
000000
ENDCHAR
STARTCHAR 3448
ENCODING 13384
SWIDTH 1000 0
DWIDTH 18 0
BBX 18 18 0 -2
BITMAP
000000
0c1800
0c1800
1fffc0
366c00
630600
000000
1fff00
00c000
00c000
00c000
7fffc0
00c000
00c000
00c000
00c000
00c000
000000
ENDCHAR
STARTCHAR 3449
ENCODING 13385
SWIDTH 1000 0
DWIDTH 18 0
BBX 18 18 0 -2
BITMAP
000000
0c1800
0c1800
1fffc0
366c00
630600
00c000
3fff80
300180
37fd80
060c00
07fc00
060000
07fe00
060600
060600
07fe00
000000
ENDCHAR
ENDFONT
